VesperLibre-Bold.ufo
<glyph name="exclam" format="1">
  <advance width="596"/>
  <unicode hex="0021"/>
  <outline>
    <contour>
      <point x="420" y="440" type="line"/>
      <point x="431" y="1384" type="line"/>
      <point x="140" y="1384" type="line"/>
      <point x="140" y="1147"/>
      <point x="145" y="733"/>
      <point x="165" y="491" type="curve"/>
    </contour>
    <contour>
      <point x="238" y="307"/>
      <point x="194" y="257"/>
      <point x="165" y="205" type="curve"/>
      <point x="143" y="169"/>
      <point x="126" y="132"/>
      <point x="129" y="113" type="curve"/>
      <point x="135" y="83"/>
      <point x="193" y="33"/>
      <point x="247" y="3" type="curve" smooth="yes"/>
      <point x="280" y="-15"/>
      <point x="310" y="-28"/>
      <point x="329" y="-25" type="curve"/>
      <point x="359" y="-19"/>
      <point x="402" y="34"/>
      <point x="434" y="85" type="curve" smooth="yes"/>
      <point x="456" y="118"/>
      <point x="471" y="156"/>
      <point x="467" y="177" type="curve" smooth="yes"/>
      <point x="461" y="204"/>
      <point x="404" y="254"/>
      <point x="352" y="284" type="curve" smooth="yes"/>
      <point x="318" y="303"/>
      <point x="286" y="317"/>
      <point x="268" y="313" type="curve" smooth="yes"/>
    </contour>
  </outline>
</glyph>
<glyph name="quotedbl" format="1">
  <advance width="788"/>
  <unicode hex="0022"/>
  <outline>
    <contour>
      <point x="108" y="1400" type="line"/>
      <point x="108" y="956" type="line"/>
      <point x="300" y="903" type="line"/>
      <point x="316" y="1051"/>
      <point x="326" y="1243"/>
      <point x="328" y="1400" type="curve"/>
    </contour>
    <contour>
      <point x="456" y="1400" type="line"/>
      <point x="456" y="956" type="line"/>
      <point x="648" y="903" type="line"/>
      <point x="664" y="1051"/>
      <point x="674" y="1243"/>
      <point x="676" y="1400" type="curve"/>
    </contour>
  </outline>
</glyph>
<glyph name="numbersign" format="1">
  <advance width="1392"/>
  <unicode hex="0023"/>
  <outline>
    <contour>
      <point x="1326" y="914" type="line"/>
      <point x="1148" y="914" type="line"/>
      <point x="1238" y="1138" type="line"/>
      <point x="1069" y="1184" type="line"/>
      <point x="960" y="914" type="line"/>
      <point x="701" y="914" type="line"/>
      <point x="791" y="1138" type="line"/>
      <point x="622" y="1184" type="line"/>
      <point x="513" y="914" type="line"/>
      <point x="278" y="914" type="line"/>
      <point x="245" y="733" type="line"/>
      <point x="310" y="732"/>
      <point x="375" y="732"/>
      <point x="439" y="732" type="curve"/>
      <point x="329" y="459" type="line"/>
      <point x="94" y="459" type="line"/>
      <point x="62" y="279" type="line"/>
      <point x="257" y="279" type="line"/>
      <point x="145" y="3" type="line"/>
      <point x="322" y="-35" type="line"/>
      <point x="448" y="281" type="line"/>
      <point x="535" y="282"/>
      <point x="621" y="284"/>
      <point x="707" y="286" type="curve"/>
      <point x="593" y="3" type="line"/>
      <point x="769" y="-35" type="line"/>
      <point x="900" y="292" type="line"/>
      <point x="973" y="295"/>
      <point x="1045" y="298"/>
      <point x="1118" y="301" type="curve"/>
      <point x="1143" y="459" type="line"/>
      <point x="967" y="459" type="line"/>
      <point x="1081" y="745" type="line"/>
      <point x="1154" y="748"/>
      <point x="1227" y="751"/>
      <point x="1300" y="755" type="curve"/>
    </contour>
    <contour>
      <point x="777" y="459" type="line"/>
      <point x="520" y="459" type="line"/>
      <point x="629" y="733" type="line"/>
      <point x="716" y="734"/>
      <point x="803" y="735"/>
      <point x="890" y="738" type="curve"/>
    </contour>
  </outline>
</glyph>
<glyph name="dollar" format="1">
  <advance width="1068"/>
  <unicode hex="0024"/>
  <outline>
    <contour>
      <point x="998" y="626"/>
      <point x="838" y="721"/>
      <point x="682" y="783" type="curve" smooth="yes"/>
      <point x="628" y="805" type="line"/>
      <point x="680" y="1229" type="line"/>
      <point x="695" y="1230"/>
      <point x="709" y="1230"/>
      <point x="724" y="1230" type="curve"/>
      <point x="824" y="1006" type="line"/>
      <point x="945" y="1034" type="line"/>
      <point x="914" y="1323" type="line"/>
      <point x="829" y="1317" type="line"/>
      <point x="811" y="1321"/>
      <point x="755" y="1332"/>
      <point x="694" y="1338" type="curve"/>
      <point x="711" y="1477" type="line"/>
      <point x="558" y="1456" type="line"/>
      <point x="547" y="1341" type="line"/>
      <point x="294" y="1321"/>
      <point x="116" y="1182"/>
      <point x="116" y="974" type="curve" smooth="yes"/>
      <point x="116" y="772"/>
      <point x="258" y="683"/>
      <point x="451" y="599" type="curve" smooth="yes"/>
      <point x="462" y="594" type="line"/>
      <point x="403" y="135" type="line"/>
      <point x="393" y="135" type="line" smooth="yes"/>
      <point x="351" y="135"/>
      <point x="316" y="137"/>
      <point x="278" y="141" type="curve"/>
      <point x="258" y="345" type="line"/>
      <point x="124" y="382" type="line"/>
      <point x="60" y="108" type="line"/>
      <point x="129" y="67"/>
      <point x="249" y="22"/>
      <point x="387" y="7" type="curve"/>
      <point x="366" y="-156" type="line"/>
      <point x="514" y="-132" type="line"/>
      <point x="528" y="3" type="line"/>
      <point x="815" y="18"/>
      <point x="998" y="177"/>
      <point x="998" y="416" type="curve" smooth="yes"/>
    </contour>
    <contour>
      <point x="365" y="1069"/>
      <point x="368" y="1097"/>
      <point x="379" y="1118" type="curve"/>
      <point x="403" y="1152"/>
      <point x="459" y="1184"/>
      <point x="534" y="1205" type="curve"/>
      <point x="502" y="861" type="line"/>
      <point x="414" y="906"/>
      <point x="365" y="956"/>
      <point x="365" y="1041" type="curve" smooth="yes"/>
    </contour>
    <contour>
      <point x="657" y="208"/>
      <point x="603" y="179"/>
      <point x="544" y="160" type="curve"/>
      <point x="582" y="537" type="line"/>
      <point x="655" y="494"/>
      <point x="712" y="436"/>
      <point x="712" y="347" type="curve" smooth="yes"/>
      <point x="712" y="307"/>
      <point x="698" y="261"/>
      <point x="683" y="243" type="curve"/>
    </contour>
  </outline>
</glyph>
<glyph name="percent" format="1">
  <advance width="1523"/>
  <unicode hex="0025"/>
  <outline>
    <contour>
      <point x="579" y="686"/>
      <point x="716" y="848"/>
      <point x="716" y="1044" type="curve" smooth="yes"/>
      <point x="716" y="1235"/>
      <point x="573" y="1368"/>
      <point x="401" y="1368" type="curve" smooth="yes"/>
      <point x="204" y="1368"/>
      <point x="68" y="1203"/>
      <point x="68" y="1009" type="curve" smooth="yes"/>
      <point x="68" y="818"/>
      <point x="212" y="686"/>
      <point x="386" y="686" type="curve" smooth="yes"/>
    </contour>
    <contour>
      <point x="305" y="853"/>
      <point x="245" y="951"/>
      <point x="245" y="1052" type="curve" smooth="yes"/>
      <point x="245" y="1128"/>
      <point x="290" y="1203"/>
      <point x="374" y="1203" type="curve" smooth="yes"/>
      <point x="477" y="1203"/>
      <point x="540" y="1112"/>
      <point x="540" y="1007" type="curve" smooth="yes"/>
      <point x="540" y="925"/>
      <point x="489" y="853"/>
      <point x="411" y="853" type="curve" smooth="yes"/>
    </contour>
    <contour>
      <point x="329" y="241" type="line"/>
      <point x="503" y="197" type="line"/>
      <point x="1226" y="1148" type="line"/>
      <point x="1044" y="1197" type="line"/>
    </contour>
    <contour>
      <point x="1319" y="-2"/>
      <point x="1456" y="160"/>
      <point x="1456" y="356" type="curve" smooth="yes"/>
      <point x="1456" y="547"/>
      <point x="1313" y="680"/>
      <point x="1142" y="680" type="curve" smooth="yes"/>
      <point x="944" y="680"/>
      <point x="808" y="515"/>
      <point x="808" y="322" type="curve" smooth="yes"/>
      <point x="808" y="130"/>
      <point x="952" y="-2"/>
      <point x="1127" y="-2" type="curve" smooth="yes"/>
    </contour>
    <contour>
      <point x="1045" y="165"/>
      <point x="985" y="263"/>
      <point x="985" y="364" type="curve" smooth="yes"/>
      <point x="985" y="440"/>
      <point x="1031" y="515"/>
      <point x="1114" y="515" type="curve" smooth="yes"/>
      <point x="1218" y="515"/>
      <point x="1280" y="424"/>
      <point x="1280" y="318" type="curve" smooth="yes"/>
      <point x="1280" y="237"/>
      <point x="1229" y="165"/>
      <point x="1151" y="165" type="curve" smooth="yes"/>
    </contour>
  </outline>
</glyph>
<glyph name="ampersand" format="1">
  <advance width="1584"/>
  <unicode hex="0026"/>
  <outline>
    <contour>
      <point x="1538" y="75" type="line"/>
      <point x="1390" y="124" type="line"/>
      <point x="1327" y="182"/>
      <point x="1293" y="213"/>
      <point x="1150" y="353" type="curve"/>
      <point x="1284" y="485"/>
      <point x="1344" y="664"/>
      <point x="1344" y="835" type="curve"/>
      <point x="1460" y="865" type="line"/>
      <point x="1474" y="950" type="line"/>
      <point x="1051" y="950" type="line"/>
      <point x="1031" y="873" type="line"/>
      <point x="1143" y="840" type="line"/>
      <point x="1147" y="812"/>
      <point x="1148" y="784"/>
      <point x="1148" y="755" type="curve" smooth="yes"/>
      <point x="1148" y="645"/>
      <point x="1121" y="529"/>
      <point x="1072" y="430" type="curve"/>
      <point x="700" y="794" type="line"/>
      <point x="847" y="861"/>
      <point x="969" y="968"/>
      <point x="969" y="1138" type="curve" smooth="yes"/>
      <point x="969" y="1329"/>
      <point x="808" y="1419"/>
      <point x="595" y="1419" type="curve" smooth="yes"/>
      <point x="390" y="1419"/>
      <point x="212" y="1308"/>
      <point x="212" y="1108" type="curve" smooth="yes"/>
      <point x="212" y="959"/>
      <point x="301" y="846"/>
      <point x="407" y="747" type="curve"/>
      <point x="224" y="671"/>
      <point x="74" y="565"/>
      <point x="74" y="361" type="curve" smooth="yes"/>
      <point x="74" y="90"/>
      <point x="293" y="-32"/>
      <point x="524" y="-32" type="curve" smooth="yes"/>
      <point x="714" y="-32"/>
      <point x="874" y="37"/>
      <point x="992" y="163" type="curve"/>
      <point x="1036" y="115"/>
      <point x="1066" y="79"/>
      <point x="1075" y="61" type="curve"/>
      <point x="1063" y="0" type="line"/>
      <point x="1521" y="0" type="line"/>
    </contour>
    <contour>
      <point x="487" y="1297"/>
      <point x="523" y="1306"/>
      <point x="558" y="1306" type="curve" smooth="yes"/>
      <point x="627" y="1306"/>
      <point x="728" y="1256"/>
      <point x="728" y="1084" type="curve" smooth="yes"/>
      <point x="728" y="1013"/>
      <point x="706" y="946"/>
      <point x="650" y="896" type="curve"/>
      <point x="642" y="885"/>
      <point x="633" y="875"/>
      <point x="623" y="868" type="curve"/>
      <point x="526" y="956"/>
      <point x="448" y="1062"/>
      <point x="448" y="1186" type="curve" smooth="yes"/>
      <point x="448" y="1235"/>
      <point x="463" y="1271"/>
      <point x="476" y="1285" type="curve" smooth="yes"/>
    </contour>
    <contour>
      <point x="492" y="136"/>
      <point x="362" y="295"/>
      <point x="362" y="430" type="curve" smooth="yes"/>
      <point x="362" y="526"/>
      <point x="404" y="601"/>
      <point x="486" y="671" type="curve"/>
      <point x="615" y="544"/>
      <point x="793" y="371"/>
      <point x="920" y="239" type="curve"/>
      <point x="859" y="180"/>
      <point x="765" y="136"/>
      <point x="681" y="136" type="curve" smooth="yes"/>
    </contour>
  </outline>
</glyph>
<glyph name="quotesingle" format="1">
  <advance width="440"/>
  <unicode hex="0027"/>
  <outline>
    <contour>
      <point x="108" y="1400" type="line"/>
      <point x="108" y="956" type="line"/>
      <point x="300" y="903" type="line"/>
      <point x="316" y="1051"/>
      <point x="326" y="1243"/>
      <point x="328" y="1400" type="curve"/>
    </contour>
  </outline>
</glyph>
<glyph name="parenleft" format="1">
  <advance width="622"/>
  <unicode hex="0028"/>
  <outline>
    <contour>
      <point x="69" y="208"/>
      <point x="206" y="-110"/>
      <point x="504" y="-326" type="curve"/>
      <point x="607" y="-282" type="line"/>
      <point x="414" y="-54"/>
      <point x="302" y="252"/>
      <point x="302" y="578" type="curve" smooth="yes"/>
      <point x="302" y="894"/>
      <point x="417" y="1218"/>
      <point x="607" y="1440" type="curve"/>
      <point x="506" y="1484" type="line"/>
      <point x="209" y="1271"/>
      <point x="69" y="934"/>
      <point x="69" y="578" type="curve" smooth="yes"/>
    </contour>
  </outline>
</glyph>
<glyph name="parenright" format="1">
  <advance width="621"/>
  <unicode hex="0029"/>
  <outline>
    <contour>
      <point x="552" y="934"/>
      <point x="412" y="1271"/>
      <point x="115" y="1484" type="curve"/>
      <point x="15" y="1440" type="line"/>
      <point x="204" y="1218"/>
      <point x="320" y="894"/>
      <point x="320" y="578" type="curve" smooth="yes"/>
      <point x="320" y="252"/>
      <point x="208" y="-54"/>
      <point x="15" y="-282" type="curve"/>
      <point x="118" y="-326" type="line"/>
      <point x="416" y="-110"/>
      <point x="552" y="208"/>
      <point x="552" y="578" type="curve" smooth="yes"/>
    </contour>
  </outline>
</glyph>
<glyph name="asterisk" format="1">
  <advance width="871"/>
  <unicode hex="002A"/>
  <outline>
    <contour>
      <point x="645" y="1432" type="line"/>
      <point x="600" y="1371"/>
      <point x="535" y="1333"/>
      <point x="469" y="1317" type="curve"/>
      <point x="482" y="1326"/>
      <point x="496" y="1339"/>
      <point x="502" y="1346" type="curve"/>
      <point x="535" y="1392"/>
      <point x="556" y="1465"/>
      <point x="556" y="1537" type="curve" smooth="yes"/>
      <point x="556" y="1659"/>
      <point x="487" y="1724"/>
      <point x="469" y="1724" type="curve"/>
      <point x="358" y="1573" type="line"/>
      <point x="404" y="1511"/>
      <point x="420" y="1436"/>
      <point x="413" y="1367" type="curve"/>
      <point x="408" y="1383"/>
      <point x="401" y="1400"/>
      <point x="396" y="1407" type="curve" smooth="yes"/>
      <point x="362" y="1453"/>
      <point x="299" y="1496"/>
      <point x="231" y="1518" type="curve" smooth="yes"/>
      <point x="115" y="1556"/>
      <point x="32" y="1510"/>
      <point x="27" y="1493" type="curve"/>
      <point x="136" y="1341" type="line"/>
      <point x="207" y="1365"/>
      <point x="281" y="1357"/>
      <point x="345" y="1332" type="curve"/>
      <point x="330" y="1331"/>
      <point x="313" y="1330"/>
      <point x="305" y="1326" type="curve"/>
      <point x="251" y="1309"/>
      <point x="191" y="1262"/>
      <point x="149" y="1204" type="curve" smooth="yes"/>
      <point x="77" y="1105"/>
      <point x="95" y="1013"/>
      <point x="110" y="1002" type="curve"/>
      <point x="288" y="1059" type="line"/>
      <point x="287" y="1136"/>
      <point x="319" y="1206"/>
      <point x="365" y="1259" type="curve"/>
      <point x="364" y="1256" type="line"/>
      <point x="360" y="1240"/>
      <point x="355" y="1221"/>
      <point x="355" y="1211" type="curve" smooth="yes"/>
      <point x="355" y="1155"/>
      <point x="381" y="1083"/>
      <point x="423" y="1025" type="curve" smooth="yes"/>
      <point x="495" y="925"/>
      <point x="588" y="915"/>
      <point x="604" y="925" type="curve"/>
      <point x="605" y="1112" type="line"/>
      <point x="532" y="1135"/>
      <point x="477" y="1185"/>
      <point x="441" y="1243" type="curve"/>
      <point x="453" y="1235"/>
      <point x="466" y="1228"/>
      <point x="473" y="1226" type="curve"/>
      <point x="527" y="1208"/>
      <point x="603" y="1210"/>
      <point x="672" y="1233" type="curve" smooth="yes"/>
      <point x="788" y="1271"/>
      <point x="827" y="1356"/>
      <point x="822" y="1374" type="curve"/>
    </contour>
  </outline>
</glyph>
<glyph name="plus" format="1">
  <advance width="1024"/>
  <unicode hex="002B"/>
  <outline>
    <contour>
      <point x="602" y="165" type="line"/>
      <point x="602" y="470" type="line"/>
      <point x="708" y="474"/>
      <point x="804" y="478"/>
      <point x="880" y="489" type="curve"/>
      <point x="899" y="660" type="line"/>
      <point x="602" y="660" type="line"/>
      <point x="602" y="945" type="line"/>
      <point x="408" y="923" type="line"/>
      <point x="408" y="660" type="line"/>
      <point x="147" y="660" type="line"/>
      <point x="128" y="465" type="line"/>
      <point x="199" y="465"/>
      <point x="302" y="465"/>
      <point x="409" y="466" type="curve"/>
      <point x="410" y="343"/>
      <point x="412" y="225"/>
      <point x="420" y="141" type="curve"/>
    </contour>
  </outline>
</glyph>
<glyph name="comma" format="1">
  <advance width="576"/>
  <unicode hex="002C"/>
  <outline>
    <contour>
      <point x="112" y="91"/>
      <point x="171" y="28"/>
      <point x="244" y="-13" type="curve"/>
      <point x="110" y="-303" type="line"/>
      <point x="210" y="-320" type="line"/>
      <point x="330" y="-222"/>
      <point x="416" y="-86"/>
      <point x="443" y="21" type="curve" smooth="yes"/>
      <point x="454" y="61"/>
      <point x="464" y="135"/>
      <point x="459" y="178" type="curve"/>
      <point x="453" y="211"/>
      <point x="386" y="267"/>
      <point x="329" y="297" type="curve" smooth="yes"/>
      <point x="294" y="314"/>
      <point x="270" y="321"/>
      <point x="245" y="316" type="curve" smooth="yes"/>
      <point x="208" y="309"/>
      <point x="156" y="249"/>
      <point x="126" y="191" type="curve" smooth="yes"/>
      <point x="113" y="164"/>
      <point x="105" y="139"/>
      <point x="108" y="125" type="curve"/>
    </contour>
  </outline>
</glyph>
<glyph name="hyphen" format="1">
  <advance width="907"/>
  <unicode hex="002D"/>
  <outline>
    <contour>
      <point x="168" y="631" type="line"/>
      <point x="126" y="432" type="line"/>
      <point x="265" y="432"/>
      <point x="604" y="448"/>
      <point x="749" y="465" type="curve"/>
      <point x="780" y="631" type="line"/>
    </contour>
  </outline>
</glyph>
<glyph name="period" format="1">
  <advance width="580"/>
  <unicode hex="002E"/>
  <outline>
    <contour>
      <point x="369" y="-28"/>
      <point x="480" y="123"/>
      <point x="470" y="177" type="curve" smooth="yes"/>
      <point x="462" y="223"/>
      <point x="317" y="336"/>
      <point x="259" y="325" type="curve" smooth="yes"/>
      <point x="207" y="317"/>
      <point x="98" y="165"/>
      <point x="108" y="113" type="curve" smooth="yes"/>
      <point x="119" y="62"/>
      <point x="267" y="-44"/>
      <point x="319" y="-36" type="curve" smooth="yes"/>
    </contour>
  </outline>
</glyph>
<glyph name="zero" format="1">
  <advance width="1293"/>
  <unicode hex="0030"/>
  <outline>
    <contour>
      <point x="989" y="-29"/>
      <point x="1160" y="190"/>
      <point x="1160" y="635" type="curve" smooth="yes"/>
      <point x="1160" y="1036"/>
      <point x="935" y="1212"/>
      <point x="667" y="1212" type="curve" smooth="yes"/>
      <point x="298" y="1212"/>
      <point x="132" y="979"/>
      <point x="132" y="572" type="curve" smooth="yes"/>
      <point x="132" y="151"/>
      <point x="342" y="-29"/>
      <point x="630" y="-29" type="curve" smooth="yes"/>
    </contour>
    <contour>
      <point x="446" y="374"/>
      <point x="438" y="531"/>
      <point x="438" y="677" type="curve" smooth="yes"/>
      <point x="438" y="859"/>
      <point x="477" y="1029"/>
      <point x="521" y="1077" type="curve" smooth="yes"/>
      <point x="540" y="1099"/>
      <point x="572" y="1106"/>
      <point x="613" y="1106" type="curve" smooth="yes"/>
      <point x="702" y="1106"/>
      <point x="765" y="1037"/>
      <point x="798" y="960" type="curve" smooth="yes"/>
      <point x="848" y="837"/>
      <point x="856" y="643"/>
      <point x="856" y="521" type="curve" smooth="yes"/>
      <point x="856" y="350"/>
      <point x="822" y="163"/>
      <point x="772" y="108" type="curve"/>
      <point x="752" y="84"/>
      <point x="720" y="78"/>
      <point x="671" y="78" type="curve" smooth="yes"/>
      <point x="584" y="78"/>
      <point x="506" y="170"/>
      <point x="479" y="271" type="curve"/>
    </contour>
  </outline>
</glyph>
<glyph name="one" format="1">
  <advance width="943"/>
  <unicode hex="0031"/>
  <outline>
    <contour>
      <point x="109" y="987" type="line"/>
      <point x="355" y="987" type="line"/>
      <point x="355" y="140" type="line"/>
      <point x="139" y="80" type="line"/>
      <point x="122" y="0" type="line"/>
      <point x="795" y="0" type="line"/>
      <point x="817" y="97" type="line"/>
      <point x="638" y="141" type="line"/>
      <point x="638" y="1205" type="line"/>
      <point x="127" y="1081" type="line"/>
    </contour>
  </outline>
</glyph>
<glyph name="two" format="1">
  <advance width="1210"/>
  <unicode hex="0032"/>
  <outline>
    <contour>
      <point x="165" y="856" type="line"/>
      <point x="279" y="835" type="line"/>
      <point x="379" y="1079" type="line"/>
      <point x="422" y="1088"/>
      <point x="456" y="1090"/>
      <point x="496" y="1090" type="curve" smooth="yes"/>
      <point x="600" y="1090"/>
      <point x="683" y="1053"/>
      <point x="713" y="991" type="curve" smooth="yes"/>
      <point x="726" y="964"/>
      <point x="731" y="932"/>
      <point x="731" y="898" type="curve" smooth="yes"/>
      <point x="731" y="791"/>
      <point x="650" y="669"/>
      <point x="591" y="601" type="curve" smooth="yes"/>
      <point x="486" y="478"/>
      <point x="237" y="229"/>
      <point x="116" y="91" type="curve"/>
      <point x="151" y="0" type="line"/>
      <point x="1016" y="0" type="line"/>
      <point x="1088" y="311" type="line"/>
      <point x="975" y="327" type="line"/>
      <point x="860" y="147" type="line"/>
      <point x="382" y="100" type="line"/>
      <point x="658" y="328"/>
      <point x="1034" y="615"/>
      <point x="1034" y="898" type="curve" smooth="yes"/>
      <point x="1034" y="1092"/>
      <point x="856" y="1212"/>
      <point x="587" y="1212" type="curve" smooth="yes"/>
      <point x="527" y="1212"/>
      <point x="320" y="1194"/>
      <point x="165" y="1117" type="curve"/>
    </contour>
  </outline>
</glyph>
<glyph name="three" format="1">
  <advance width="1124"/>
  <unicode hex="0033"/>
  <outline>
    <contour>
      <point x="1006" y="1091" type="line"/>
      <point x="970" y="1193" type="line"/>
      <point x="312" y="1187" type="line"/>
      <point x="137" y="1198" type="line"/>
      <point x="125" y="888" type="line"/>
      <point x="240" y="869" type="line"/>
      <point x="303" y="1035" type="line"/>
      <point x="449" y="1040"/>
      <point x="622" y="1051"/>
      <point x="761" y="1069" type="curve"/>
      <point x="357" y="680" type="line"/>
      <point x="335" y="591" type="line"/>
      <point x="497" y="591"/>
      <point x="685" y="544"/>
      <point x="685" y="370" type="curve" smooth="yes"/>
      <point x="685" y="136"/>
      <point x="373" y="59"/>
      <point x="154" y="8" type="curve"/>
      <point x="170" y="-74" type="line"/>
      <point x="484" y="-68"/>
      <point x="980" y="-9"/>
      <point x="980" y="368" type="curve" smooth="yes"/>
      <point x="980" y="567"/>
      <point x="809" y="665"/>
      <point x="634" y="668" type="curve"/>
    </contour>
  </outline>
</glyph>
<glyph name="four" format="1">
  <advance width="1234"/>
  <unicode hex="0034"/>
  <outline>
    <contour>
      <point x="1105" y="250" type="line"/>
      <point x="1138" y="438" type="line"/>
      <point x="952" y="428" type="line"/>
      <point x="952" y="709" type="line"/>
      <point x="675" y="646" type="line"/>
      <point x="675" y="413" type="line"/>
      <point x="352" y="396" type="line"/>
      <point x="813" y="1139" type="line"/>
      <point x="526" y="1212" type="line"/>
      <point x="45" y="340" type="line"/>
      <point x="97" y="250" type="line"/>
      <point x="675" y="250" type="line"/>
      <point x="675" y="-96" type="line"/>
      <point x="952" y="-40" type="line"/>
      <point x="952" y="250" type="line"/>
    </contour>
  </outline>
</glyph>
<glyph name="five" format="1">
  <advance width="1061"/>
  <unicode hex="0035"/>
  <outline>
    <contour>
      <point x="121" y="-75" type="line"/>
      <point x="454" y="-70"/>
      <point x="904" y="-5"/>
      <point x="904" y="387" type="curve" smooth="yes"/>
      <point x="904" y="590"/>
      <point x="765" y="710"/>
      <point x="532" y="710" type="curve" smooth="yes"/>
      <point x="495" y="710"/>
      <point x="452" y="708"/>
      <point x="408" y="705" type="curve"/>
      <point x="421" y="1048" type="line"/>
      <point x="845" y="1011" type="line"/>
      <point x="930" y="1187" type="line"/>
      <point x="195" y="1187" type="line"/>
      <point x="143" y="610" type="line"/>
      <point x="179" y="612"/>
      <point x="244" y="615"/>
      <point x="296" y="615" type="curve" smooth="yes"/>
      <point x="463" y="615"/>
      <point x="607" y="555"/>
      <point x="607" y="369" type="curve" smooth="yes"/>
      <point x="607" y="141"/>
      <point x="308" y="58"/>
      <point x="103" y="7" type="curve"/>
    </contour>
  </outline>
</glyph>
<glyph name="six" format="1">
  <advance width="1185"/>
  <unicode hex="0036"/>
  <outline>
    <contour>
      <point x="403" y="281"/>
      <point x="387" y="374"/>
      <point x="387" y="501" type="curve" smooth="yes"/>
      <point x="387" y="807"/>
      <point x="598" y="1027"/>
      <point x="896" y="1209" type="curve"/>
      <point x="804" y="1257" type="line"/>
      <point x="398" y="1156"/>
      <point x="97" y="852"/>
      <point x="97" y="475" type="curve" smooth="yes"/>
      <point x="97" y="167"/>
      <point x="269" y="-30"/>
      <point x="588" y="-30" type="curve" smooth="yes"/>
      <point x="843" y="-30"/>
      <point x="1065" y="116"/>
      <point x="1065" y="393" type="curve" smooth="yes"/>
      <point x="1065" y="602"/>
      <point x="914" y="728"/>
      <point x="695" y="728" type="curve" smooth="yes"/>
      <point x="648" y="728"/>
      <point x="583" y="715"/>
      <point x="538" y="693" type="curve"/>
      <point x="522" y="633" type="line"/>
      <point x="726" y="607"/>
      <point x="783" y="486"/>
      <point x="783" y="330" type="curve" smooth="yes"/>
      <point x="783" y="213"/>
      <point x="768" y="148"/>
      <point x="742" y="119" type="curve"/>
      <point x="720" y="92"/>
      <point x="690" y="83"/>
      <point x="639" y="83" type="curve" smooth="yes"/>
      <point x="552" y="83"/>
      <point x="485" y="142"/>
      <point x="446" y="208" type="curve" smooth="yes"/>
    </contour>
  </outline>
</glyph>
<glyph name="seven" format="1">
  <advance width="1186"/>
  <unicode hex="0037"/>
  <outline>
    <contour>
      <point x="828" y="1040" type="line"/>
      <point x="224" y="0" type="line"/>
      <point x="504" y="-67" type="line"/>
      <point x="1098" y="1070" type="line"/>
      <point x="1056" y="1189" type="line"/>
      <point x="323" y="1187" type="line"/>
      <point x="138" y="1200" type="line"/>
      <point x="125" y="845" type="line"/>
      <point x="246" y="827" type="line"/>
      <point x="316" y="1018" type="line"/>
    </contour>
  </outline>
</glyph>
<glyph name="eight" format="1">
  <advance width="1165"/>
  <unicode hex="0038"/>
  <outline>
    <contour>
      <point x="134" y="49"/>
      <point x="362" y="-29"/>
      <point x="592" y="-29" type="curve" smooth="yes"/>
      <point x="847" y="-29"/>
      <point x="1031" y="67"/>
      <point x="1031" y="289" type="curve" smooth="yes"/>
      <point x="1031" y="459"/>
      <point x="931" y="550"/>
      <point x="803" y="621" type="curve"/>
      <point x="903" y="689"/>
      <point x="997" y="776"/>
      <point x="997" y="923" type="curve" smooth="yes"/>
      <point x="997" y="1124"/>
      <point x="807" y="1212"/>
      <point x="586" y="1212" type="curve" smooth="yes"/>
      <point x="339" y="1212"/>
      <point x="165" y="1088"/>
      <point x="165" y="903" type="curve" smooth="yes"/>
      <point x="165" y="746"/>
      <point x="251" y="665"/>
      <point x="365" y="598" type="curve"/>
      <point x="242" y="527"/>
      <point x="134" y="435"/>
      <point x="134" y="278" type="curve" smooth="yes"/>
    </contour>
    <contour>
      <point x="635" y="710"/>
      <point x="506" y="785"/>
      <point x="466" y="834" type="curve" smooth="yes"/>
      <point x="431" y="878"/>
      <point x="417" y="925"/>
      <point x="417" y="975" type="curve" smooth="yes"/>
      <point x="417" y="1018"/>
      <point x="424" y="1062"/>
      <point x="454" y="1087" type="curve"/>
      <point x="474" y="1105"/>
      <point x="500" y="1110"/>
      <point x="532" y="1110" type="curve" smooth="yes"/>
      <point x="641" y="1110"/>
      <point x="743" y="1003"/>
      <point x="743" y="874" type="curve" smooth="yes"/>
      <point x="743" y="801"/>
      <point x="718" y="731"/>
      <point x="691" y="681" type="curve"/>
    </contour>
    <contour>
      <point x="406" y="415"/>
      <point x="431" y="482"/>
      <point x="466" y="541" type="curve"/>
      <point x="527" y="513"/>
      <point x="669" y="428"/>
      <point x="715" y="372" type="curve" smooth="yes"/>
      <point x="751" y="327"/>
      <point x="764" y="278"/>
      <point x="764" y="222" type="curve" smooth="yes"/>
      <point x="764" y="177"/>
      <point x="761" y="131"/>
      <point x="729" y="106" type="curve"/>
      <point x="706" y="85"/>
      <point x="672" y="82"/>
      <point x="631" y="82" type="curve" smooth="yes"/>
      <point x="510" y="82"/>
      <point x="406" y="187"/>
      <point x="406" y="334" type="curve" smooth="yes"/>
    </contour>
  </outline>
</glyph>
<glyph name="nine" format="1">
  <advance width="1191"/>
  <unicode hex="0039"/>
  <outline>
    <contour>
      <point x="203" y="-74" type="line"/>
      <point x="456" y="-74"/>
      <point x="684" y="-3"/>
      <point x="862" y="166" type="curve" smooth="yes"/>
      <point x="1024" y="321"/>
      <point x="1072" y="503"/>
      <point x="1072" y="714" type="curve" smooth="yes"/>
      <point x="1072" y="1012"/>
      <point x="902" y="1212"/>
      <point x="563" y="1212" type="curve" smooth="yes"/>
      <point x="276" y="1212"/>
      <point x="112" y="1078"/>
      <point x="112" y="845" type="curve" smooth="yes"/>
      <point x="112" y="739"/>
      <point x="146" y="657"/>
      <point x="202" y="602" type="curve" smooth="yes"/>
      <point x="264" y="540"/>
      <point x="365" y="511"/>
      <point x="476" y="511" type="curve" smooth="yes"/>
      <point x="528" y="511"/>
      <point x="594" y="515"/>
      <point x="638" y="528" type="curve"/>
      <point x="622" y="597" type="line"/>
      <point x="531" y="607"/>
      <point x="478" y="632"/>
      <point x="447" y="672" type="curve" smooth="yes"/>
      <point x="405" y="727"/>
      <point x="396" y="801"/>
      <point x="396" y="893" type="curve" smooth="yes"/>
      <point x="396" y="980"/>
      <point x="409" y="1048"/>
      <point x="441" y="1076" type="curve"/>
      <point x="465" y="1100"/>
      <point x="498" y="1106"/>
      <point x="532" y="1106" type="curve" smooth="yes"/>
      <point x="593" y="1106"/>
      <point x="637" y="1085"/>
      <point x="671" y="1048" type="curve" smooth="yes"/>
      <point x="746" y="967"/>
      <point x="773" y="820"/>
      <point x="773" y="721" type="curve" smooth="yes"/>
      <point x="773" y="429"/>
      <point x="647" y="169"/>
      <point x="186" y="7" type="curve"/>
    </contour>
  </outline>
</glyph>
<glyph name="colon" format="1">
  <advance width="589"/>
  <unicode hex="003A"/>
  <outline>
    <contour>
      <point x="380" y="575"/>
      <point x="491" y="726"/>
      <point x="481" y="780" type="curve" smooth="yes"/>
      <point x="473" y="826"/>
      <point x="329" y="939"/>
      <point x="270" y="929" type="curve" smooth="yes"/>
      <point x="218" y="921"/>
      <point x="109" y="768"/>
      <point x="120" y="717" type="curve" smooth="yes"/>
      <point x="130" y="666"/>
      <point x="279" y="559"/>
      <point x="330" y="567" type="curve" smooth="yes"/>
    </contour>
    <contour>
      <point x="380" y="-28"/>
      <point x="491" y="123"/>
      <point x="481" y="177" type="curve" smooth="yes"/>
      <point x="473" y="223"/>
      <point x="329" y="336"/>
      <point x="270" y="325" type="curve" smooth="yes"/>
      <point x="218" y="317"/>
      <point x="109" y="165"/>
      <point x="120" y="113" type="curve" smooth="yes"/>
      <point x="130" y="62"/>
      <point x="279" y="-44"/>
      <point x="330" y="-36" type="curve" smooth="yes"/>
    </contour>
  </outline>
</glyph>
<glyph name="semicolon" format="1">
  <advance width="569"/>
  <unicode hex="003B"/>
  <outline>
    <contour>
      <point x="380" y="575"/>
      <point x="491" y="726"/>
      <point x="481" y="780" type="curve" smooth="yes"/>
      <point x="473" y="826"/>
      <point x="329" y="939"/>
      <point x="270" y="929" type="curve" smooth="yes"/>
      <point x="218" y="921"/>
      <point x="109" y="768"/>
      <point x="120" y="717" type="curve" smooth="yes"/>
      <point x="130" y="666"/>
      <point x="279" y="559"/>
      <point x="330" y="567" type="curve" smooth="yes"/>
    </contour>
    <contour>
      <point x="135" y="91"/>
      <point x="194" y="28"/>
      <point x="267" y="-13" type="curve"/>
      <point x="133" y="-303" type="line"/>
      <point x="233" y="-320" type="line"/>
      <point x="353" y="-222"/>
      <point x="439" y="-86"/>
      <point x="466" y="21" type="curve" smooth="yes"/>
      <point x="477" y="61"/>
      <point x="487" y="135"/>
      <point x="482" y="178" type="curve"/>
      <point x="476" y="211"/>
      <point x="409" y="267"/>
      <point x="352" y="297" type="curve" smooth="yes"/>
      <point x="317" y="314"/>
      <point x="293" y="321"/>
      <point x="268" y="316" type="curve" smooth="yes"/>
      <point x="231" y="309"/>
      <point x="179" y="249"/>
      <point x="149" y="191" type="curve" smooth="yes"/>
      <point x="136" y="164"/>
      <point x="128" y="139"/>
      <point x="131" y="125" type="curve"/>
    </contour>
  </outline>
</glyph>
<glyph name="less" format="1">
  <advance width="1025"/>
  <unicode hex="003C"/>
  <outline>
    <contour>
      <point x="108" y="410" type="line"/>
      <point x="834" y="58" type="line"/>
      <point x="909" y="229" type="line"/>
      <point x="404" y="475" type="line"/>
      <point x="908" y="718" type="line"/>
      <point x="836" y="889" type="line"/>
      <point x="108" y="540" type="line"/>
    </contour>
  </outline>
</glyph>
<glyph name="equal" format="1">
  <advance width="1024"/>
  <unicode hex="003D"/>
  <outline>
    <contour>
      <point x="151" y="849" type="line"/>
      <point x="125" y="655" type="line"/>
      <point x="383" y="656"/>
      <point x="634" y="663"/>
      <point x="876" y="680" type="curve"/>
      <point x="900" y="849" type="line"/>
    </contour>
    <contour>
      <point x="151" y="498" type="line"/>
      <point x="125" y="305" type="line"/>
      <point x="386" y="305"/>
      <point x="633" y="314"/>
      <point x="876" y="329" type="curve"/>
      <point x="900" y="498" type="line"/>
    </contour>
  </outline>
</glyph>
<glyph name="greater" format="1">
  <advance width="1024"/>
  <unicode hex="003E"/>
  <outline>
    <contour>
      <point x="117" y="229" type="line"/>
      <point x="192" y="58" type="line"/>
      <point x="918" y="410" type="line"/>
      <point x="918" y="540" type="line"/>
      <point x="190" y="889" type="line"/>
      <point x="118" y="718" type="line"/>
      <point x="622" y="475" type="line"/>
    </contour>
  </outline>
</glyph>
<glyph name="question" format="1">
  <advance width="1015"/>
  <unicode hex="003F"/>
  <outline>
    <contour>
      <point x="292" y="490" type="line"/>
      <point x="526" y="444" type="line"/>
      <point x="542" y="497"/>
      <point x="576" y="623"/>
      <point x="584" y="662" type="curve"/>
      <point x="822" y="754"/>
      <point x="933" y="870"/>
      <point x="933" y="1058" type="curve" smooth="yes"/>
      <point x="933" y="1325"/>
      <point x="624" y="1418"/>
      <point x="392" y="1418" type="curve" smooth="yes"/>
      <point x="250" y="1418"/>
      <point x="84" y="1359"/>
      <point x="84" y="1279" type="curve" smooth="yes"/>
      <point x="84" y="1219"/>
      <point x="201" y="1106"/>
      <point x="255" y="1106" type="curve" smooth="yes"/>
      <point x="287" y="1106"/>
      <point x="334" y="1140"/>
      <point x="356" y="1162" type="curve"/>
      <point x="395" y="1344" type="line"/>
      <point x="463" y="1340"/>
      <point x="626" y="1223"/>
      <point x="626" y="1034" type="curve" smooth="yes"/>
      <point x="626" y="916"/>
      <point x="542" y="800"/>
      <point x="307" y="681" type="curve" smooth="yes"/>
      <point x="290" y="672"/>
      <point x="286" y="665"/>
      <point x="287" y="643" type="curve" smooth="yes"/>
    </contour>
    <contour>
      <point x="495" y="-28"/>
      <point x="606" y="123"/>
      <point x="596" y="177" type="curve" smooth="yes"/>
      <point x="588" y="223"/>
      <point x="443" y="336"/>
      <point x="385" y="325" type="curve" smooth="yes"/>
      <point x="333" y="317"/>
      <point x="224" y="165"/>
      <point x="234" y="113" type="curve" smooth="yes"/>
      <point x="244" y="62"/>
      <point x="393" y="-44"/>
      <point x="445" y="-36" type="curve" smooth="yes"/>
    </contour>
  </outline>
</glyph>
<glyph name="at" format="1">
  <advance width="1759"/>
  <unicode hex="0040"/>
  <outline>
    <contour>
      <point x="1210" y="726" type="line"/>
      <point x="1240" y="875" type="line"/>
      <point x="1118" y="858" type="line"/>
      <point x="1081" y="893"/>
      <point x="1012" y="915"/>
      <point x="941" y="915" type="curve" smooth="yes"/>
      <point x="666" y="915"/>
      <point x="453" y="613"/>
      <point x="453" y="332" type="curve" smooth="yes"/>
      <point x="453" y="131"/>
      <point x="570" y="40"/>
      <point x="707" y="40" type="curve" smooth="yes"/>
      <point x="788" y="40"/>
      <point x="864" y="105"/>
      <point x="911" y="172" type="curve"/>
      <point x="927" y="172" type="line"/>
      <point x="938" y="130"/>
      <point x="993" y="40"/>
      <point x="1073" y="40" type="curve" smooth="yes"/>
      <point x="1294" y="40"/>
      <point x="1654" y="246"/>
      <point x="1654" y="611" type="curve" smooth="yes"/>
      <point x="1654" y="936"/>
      <point x="1475" y="1214"/>
      <point x="989" y="1214" type="curve" smooth="yes"/>
      <point x="508" y="1214"/>
      <point x="71" y="841"/>
      <point x="71" y="332" type="curve" smooth="yes"/>
      <point x="71" y="-53"/>
      <point x="310" y="-295"/>
      <point x="716" y="-295" type="curve" smooth="yes"/>
      <point x="964" y="-295"/>
      <point x="1109" y="-194"/>
      <point x="1175" y="-133" type="curve"/>
      <point x="1001" y="-84" type="line"/>
      <point x="942" y="-120"/>
      <point x="849" y="-163"/>
      <point x="765" y="-163" type="curve" smooth="yes"/>
      <point x="551" y="-163"/>
      <point x="311" y="-10"/>
      <point x="311" y="351" type="curve" smooth="yes"/>
      <point x="311" y="741"/>
      <point x="629" y="1079"/>
      <point x="953" y="1079" type="curve" smooth="yes"/>
      <point x="1233" y="1079"/>
      <point x="1416" y="879"/>
      <point x="1416" y="597" type="curve" smooth="yes"/>
      <point x="1416" y="356"/>
      <point x="1284" y="166"/>
      <point x="1192" y="166" type="curve" smooth="yes"/>
      <point x="1178" y="166"/>
      <point x="1159" y="179"/>
      <point x="1146" y="195" type="curve"/>
    </contour>
    <contour>
      <point x="919" y="814"/>
      <point x="963" y="765"/>
      <point x="982" y="645" type="curve"/>
      <point x="906" y="237" type="line"/>
      <point x="863" y="207"/>
      <point x="806" y="189"/>
      <point x="764" y="187" type="curve"/>
      <point x="728" y="224"/>
      <point x="717" y="306"/>
      <point x="717" y="385" type="curve" smooth="yes"/>
      <point x="717" y="587"/>
      <point x="792" y="771"/>
      <point x="869" y="816" type="curve"/>
    </contour>
  </outline>
</glyph>
<glyph name="B" format="1">
  <advance width="1366"/>
  <unicode hex="0042"/>
  <outline>
    <contour>
      <point x="76" y="85" type="line"/>
      <point x="59" y="0" type="line"/>
      <point x="600" y="0" type="line" smooth="yes"/>
      <point x="1067" y="0"/>
      <point x="1286" y="98"/>
      <point x="1286" y="392" type="curve" smooth="yes"/>
      <point x="1286" y="596"/>
      <point x="1110" y="719"/>
      <point x="895" y="740" type="curve"/>
      <point x="1064" y="770"/>
      <point x="1223" y="870"/>
      <point x="1223" y="1060" type="curve" smooth="yes"/>
      <point x="1223" y="1371"/>
      <point x="889" y="1384"/>
      <point x="478" y="1384" type="curve" smooth="yes"/>
      <point x="81" y="1384" type="line"/>
      <point x="64" y="1304" type="line"/>
      <point x="251" y="1230" type="line"/>
      <point x="251" y="155" type="line"/>
    </contour>
    <contour>
      <point x="917" y="912"/>
      <point x="829" y="809"/>
      <point x="669" y="760" type="curve"/>
      <point x="660" y="701" type="line"/>
      <point x="818" y="661"/>
      <point x="970" y="574"/>
      <point x="970" y="391" type="curve" smooth="yes"/>
      <point x="970" y="170"/>
      <point x="766" y="113"/>
      <point x="554" y="81" type="curve"/>
      <point x="554" y="1305" type="line"/>
      <point x="724" y="1288"/>
      <point x="917" y="1235"/>
      <point x="917" y="1051" type="curve" smooth="yes"/>
    </contour>
  </outline>
</glyph>
<glyph name="F" format="1">
  <advance width="1257"/>
  <unicode hex="0046"/>
  <outline>
    <contour>
      <point x="59" y="1302" type="line"/>
      <point x="247" y="1231" type="line"/>
      <point x="247" y="157" type="line"/>
      <point x="68" y="87" type="line"/>
      <point x="51" y="0" type="line"/>
      <point x="796" y="0" type="line"/>
      <point x="832" y="102" type="line"/>
      <point x="549" y="157" type="line"/>
      <point x="549" y="651" type="line"/>
      <point x="640" y="638"/>
      <point x="736" y="630"/>
      <point x="837" y="628" type="curve"/>
      <point x="883" y="466" type="line"/>
      <point x="979" y="451" type="line"/>
      <point x="997" y="922" type="line"/>
      <point x="904" y="945" type="line"/>
      <point x="838" y="776" type="line"/>
      <point x="741" y="767"/>
      <point x="645" y="757"/>
      <point x="549" y="741" type="curve"/>
      <point x="549" y="1294" type="line"/>
      <point x="1023" y="1234" type="line"/>
      <point x="1119" y="1023" type="line"/>
      <point x="1239" y="1043" type="line"/>
      <point x="1204" y="1397" type="line"/>
      <point x="1077" y="1384" type="line"/>
      <point x="77" y="1384" type="line"/>
    </contour>
  </outline>
</glyph>
<glyph name="G" format="1">
  <advance width="1480"/>
  <unicode hex="0047"/>
  <outline>
    <contour>
      <point x="751" y="583" type="line"/>
      <point x="1026" y="507" type="line"/>
      <point x="1026" y="163" type="line"/>
      <point x="980" y="135"/>
      <point x="889" y="121"/>
      <point x="829" y="121" type="curve" smooth="yes"/>
      <point x="735" y="121"/>
      <point x="629" y="143"/>
      <point x="537" y="242" type="curve" smooth="yes"/>
      <point x="443" y="338"/>
      <point x="393" y="509"/>
      <point x="393" y="708" type="curve" smooth="yes"/>
      <point x="393" y="966"/>
      <point x="440" y="1149"/>
      <point x="524" y="1223" type="curve" smooth="yes"/>
      <point x="564" y="1259"/>
      <point x="668" y="1276"/>
      <point x="761" y="1276" type="curve" smooth="yes"/>
      <point x="868" y="1276"/>
      <point x="999" y="1246"/>
      <point x="1076" y="1188" type="curve"/>
      <point x="1155" y="1007" type="line"/>
      <point x="1278" y="1028" type="line"/>
      <point x="1237" y="1402" type="line"/>
      <point x="1086" y="1389" type="line"/>
      <point x="994" y="1408"/>
      <point x="887" y="1418"/>
      <point x="795" y="1418" type="curve" smooth="yes"/>
      <point x="623" y="1418"/>
      <point x="465" y="1369"/>
      <point x="351" y="1277" type="curve" smooth="yes"/>
      <point x="161" y="1124"/>
      <point x="78" y="890"/>
      <point x="78" y="649" type="curve" smooth="yes"/>
      <point x="78" y="436"/>
      <point x="144" y="255"/>
      <point x="263" y="142" type="curve" smooth="yes"/>
      <point x="401" y="12"/>
      <point x="563" y="-35"/>
      <point x="784" y="-35" type="curve" smooth="yes"/>
      <point x="1011" y="-35"/>
      <point x="1226" y="75"/>
      <point x="1322" y="212" type="curve"/>
      <point x="1322" y="499" type="line"/>
      <point x="1444" y="577" type="line"/>
      <point x="1458" y="666" type="line"/>
      <point x="766" y="666" type="line"/>
    </contour>
  </outline>
</glyph>
<glyph name="H" format="1">
  <advance width="1669"/>
  <unicode hex="0048"/>
  <outline>
    <contour>
      <point x="756" y="87" type="line"/>
      <point x="549" y="159" type="line"/>
      <point x="549" y="602" type="line"/>
      <point x="740" y="607"/>
      <point x="930" y="614"/>
      <point x="1119" y="624" type="curve"/>
      <point x="1119" y="158" type="line"/>
      <point x="925" y="88" type="line"/>
      <point x="908" y="0" type="line"/>
      <point x="1587" y="0" type="line"/>
      <point x="1605" y="81" type="line"/>
      <point x="1416" y="154" type="line"/>
      <point x="1416" y="1229" type="line"/>
      <point x="1597" y="1301" type="line"/>
      <point x="1613" y="1384" type="line"/>
      <point x="952" y="1384" type="line"/>
      <point x="934" y="1301" type="line"/>
      <point x="1119" y="1229" type="line"/>
      <point x="1119" y="772" type="line"/>
      <point x="549" y="772" type="line"/>
      <point x="549" y="1224" type="line"/>
      <point x="724" y="1294" type="line"/>
      <point x="743" y="1384" type="line"/>
      <point x="82" y="1384" type="line"/>
      <point x="65" y="1303" type="line"/>
      <point x="252" y="1230" type="line"/>
      <point x="252" y="156" type="line"/>
      <point x="74" y="85" type="line"/>
      <point x="58" y="0" type="line"/>
      <point x="736" y="0" type="line"/>
    </contour>
  </outline>
</glyph>
<glyph name="I" format="1">
  <advance width="810"/>
  <unicode hex="0049"/>
  <outline>
    <contour>
      <point x="252" y="156" type="line"/>
      <point x="75" y="86" type="line"/>
      <point x="57" y="0" type="line"/>
      <point x="729" y="0" type="line"/>
      <point x="747" y="82" type="line"/>
      <point x="555" y="156" type="line"/>
      <point x="555" y="1228" type="line"/>
      <point x="737" y="1300" type="line"/>
      <point x="752" y="1384" type="line"/>
      <point x="82" y="1384" type="line"/>
      <point x="65" y="1302" type="line"/>
      <point x="252" y="1230" type="line"/>
    </contour>
  </outline>
</glyph>
<glyph name="J" format="1">
  <advance width="773"/>
  <unicode hex="004A"/>
  <outline>
    <contour>
      <point x="35" y="1302" type="line"/>
      <point x="247" y="1230" type="line"/>
      <point x="247" y="175" type="line" smooth="yes"/>
      <point x="247" y="121"/>
      <point x="126" y="-182"/>
      <point x="79" y="-283" type="curve"/>
      <point x="141" y="-331" type="line"/>
      <point x="472" y="-109"/>
      <point x="549" y="67"/>
      <point x="549" y="456" type="curve" smooth="yes"/>
      <point x="549" y="1229" type="line"/>
      <point x="717" y="1300" type="line"/>
      <point x="733" y="1384" type="line"/>
      <point x="52" y="1384" type="line"/>
    </contour>
  </outline>
</glyph>
<glyph name="K" format="1">
  <advance width="1537"/>
  <unicode hex="004B"/>
  <outline>
    <contour>
      <point x="253" y="155" type="line"/>
      <point x="75" y="86" type="line"/>
      <point x="59" y="0" type="line"/>
      <point x="734" y="0" type="line"/>
      <point x="753" y="86" type="line"/>
      <point x="555" y="160" type="line"/>
      <point x="555" y="1227" type="line"/>
      <point x="714" y="1297" type="line"/>
      <point x="730" y="1384" type="line"/>
      <point x="83" y="1384" type="line"/>
      <point x="65" y="1304" type="line"/>
      <point x="253" y="1230" type="line"/>
    </contour>
    <contour>
      <point x="1348" y="156" type="line"/>
      <point x="931" y="751" type="line"/>
      <point x="1323" y="1232" type="line"/>
      <point x="1499" y="1297" type="line"/>
      <point x="1518" y="1384" type="line"/>
      <point x="904" y="1384" type="line"/>
      <point x="885" y="1306" type="line"/>
      <point x="1036" y="1234" type="line"/>
      <point x="624" y="702" type="line"/>
      <point x="1022" y="81" type="line"/>
      <point x="1005" y="0" type="line"/>
      <point x="1520" y="0" type="line"/>
      <point x="1538" y="82" type="line"/>
    </contour>
  </outline>
</glyph>
<glyph name="L" format="1">
  <advance width="1247"/>
  <unicode hex="004C"/>
  <outline>
    <contour>
      <point x="1139" y="359" type="line"/>
      <point x="1014" y="166" type="line"/>
      <point x="556" y="100" type="line"/>
      <point x="556" y="1227" type="line"/>
      <point x="744" y="1299" type="line"/>
      <point x="760" y="1384" type="line"/>
      <point x="83" y="1384" type="line"/>
      <point x="65" y="1302" type="line"/>
      <point x="253" y="1231" type="line"/>
      <point x="253" y="157" type="line"/>
      <point x="74" y="85" type="line"/>
      <point x="58" y="0" type="line"/>
      <point x="1172" y="0" type="line"/>
      <point x="1251" y="342" type="line"/>
    </contour>
  </outline>
</glyph>
<glyph name="M" format="1">
  <advance width="2035"/>
  <unicode hex="004D"/>
  <outline>
    <contour>
      <point x="68" y="1298" type="line"/>
      <point x="251" y="1227" type="line"/>
      <point x="251" y="155" type="line"/>
      <point x="77" y="85" type="line"/>
      <point x="60" y="0" type="line"/>
      <point x="596" y="0" type="line"/>
      <point x="613" y="82" type="line"/>
      <point x="429" y="154" type="line"/>
      <point x="427" y="484"/>
      <point x="427" y="863"/>
      <point x="391" y="1143" type="curve"/>
      <point x="833" y="-15" type="line"/>
      <point x="1081" y="25" type="line"/>
      <point x="1232" y="402"/>
      <point x="1374" y="777"/>
      <point x="1484" y="1149" type="curve"/>
      <point x="1484" y="155" type="line"/>
      <point x="1307" y="84" type="line"/>
      <point x="1291" y="0" type="line"/>
      <point x="1954" y="0" type="line"/>
      <point x="1972" y="82" type="line"/>
      <point x="1781" y="154" type="line"/>
      <point x="1781" y="1219" type="line"/>
      <point x="1961" y="1290" type="line"/>
      <point x="1977" y="1384" type="line"/>
      <point x="1445" y="1384" type="line"/>
      <point x="1028" y="297" type="line"/>
      <point x="576" y="1384" type="line"/>
      <point x="86" y="1384" type="line"/>
    </contour>
  </outline>
</glyph>
<glyph name="P" format="1">
  <advance width="1287"/>
  <unicode hex="0050"/>
  <outline>
    <contour>
      <point x="253" y="155" type="line"/>
      <point x="74" y="85" type="line"/>
      <point x="57" y="0" type="line"/>
      <point x="785" y="0" type="line"/>
      <point x="801" y="82" type="line"/>
      <point x="556" y="154" type="line"/>
      <point x="556" y="1303" type="line"/>
      <point x="762" y="1300"/>
      <point x="943" y="1216"/>
      <point x="943" y="982" type="curve" smooth="yes"/>
      <point x="943" y="798"/>
      <point x="875" y="731"/>
      <point x="691" y="640" type="curve"/>
      <point x="679" y="573" type="line"/>
      <point x="803" y="573"/>
      <point x="977" y="596"/>
      <point x="1091" y="674" type="curve" smooth="yes"/>
      <point x="1188" y="741"/>
      <point x="1246" y="846"/>
      <point x="1246" y="975" type="curve" smooth="yes"/>
      <point x="1246" y="1120"/>
      <point x="1183" y="1234"/>
      <point x="1089" y="1296" type="curve" smooth="yes"/>
      <point x="956" y="1383"/>
      <point x="777" y="1384"/>
      <point x="584" y="1384" type="curve" smooth="yes"/>
      <point x="83" y="1384" type="line"/>
      <point x="66" y="1303" type="line"/>
      <point x="253" y="1230" type="line"/>
    </contour>
  </outline>
</glyph>
<glyph name="Q" format="1">
  <advance width="1491"/>
  <unicode hex="0051"/>
  <outline>
    <contour>
      <point x="1414" y="1173"/>
      <point x="1126" y="1419"/>
      <point x="789" y="1419" type="curve" smooth="yes"/>
      <point x="320" y="1419"/>
      <point x="77" y="1041"/>
      <point x="77" y="623" type="curve" smooth="yes"/>
      <point x="77" y="211"/>
      <point x="358" y="-35"/>
      <point x="718" y="-35" type="curve" smooth="yes"/>
      <point x="751" y="-35"/>
      <point x="784" y="-33"/>
      <point x="815" y="-29" type="curve"/>
      <point x="974" y="-202"/>
      <point x="1216" y="-324"/>
      <point x="1374" y="-324" type="curve"/>
      <point x="1410" y="-258" type="line"/>
      <point x="1097" y="80" type="line"/>
      <point x="1300" y="222"/>
      <point x="1414" y="480"/>
      <point x="1414" y="762" type="curve" smooth="yes"/>
    </contour>
    <contour>
      <point x="405" y="413"/>
      <point x="393" y="586"/>
      <point x="393" y="766" type="curve" smooth="yes"/>
      <point x="393" y="895"/>
      <point x="419" y="1126"/>
      <point x="498" y="1203" type="curve" smooth="yes"/>
      <point x="545" y="1249"/>
      <point x="621" y="1259"/>
      <point x="682" y="1259" type="curve" smooth="yes"/>
      <point x="841" y="1259"/>
      <point x="992" y="1151"/>
      <point x="1054" y="984" type="curve" smooth="yes"/>
      <point x="1091" y="882"/>
      <point x="1098" y="775"/>
      <point x="1098" y="617" type="curve" smooth="yes"/>
      <point x="1098" y="491"/>
      <point x="1070" y="274"/>
      <point x="1007" y="197" type="curve" smooth="yes"/>
      <point x="961" y="142"/>
      <point x="877" y="125"/>
      <point x="810" y="125" type="curve" smooth="yes"/>
      <point x="685" y="125"/>
      <point x="571" y="186"/>
      <point x="498" y="286" type="curve" smooth="yes"/>
    </contour>
  </outline>
</glyph>
<glyph name="T" format="1">
  <advance width="1422"/>
  <unicode hex="0054"/>
  <outline>
    <contour>
      <point x="560" y="160" type="line"/>
      <point x="357" y="89" type="line"/>
      <point x="338" y="0" type="line"/>
      <point x="1069" y="0" type="line"/>
      <point x="1087" y="89" type="line"/>
      <point x="856" y="159" type="line"/>
      <point x="856" y="1289" type="line"/>
      <point x="1163" y="1242" type="line"/>
      <point x="1280" y="987" type="line"/>
      <point x="1407" y="1013" type="line"/>
      <point x="1363" y="1398" type="line"/>
      <point x="1235" y="1384" type="line"/>
      <point x="220" y="1384" type="line"/>
      <point x="87" y="1394" type="line"/>
      <point x="5" y="1015" type="line"/>
      <point x="128" y="993" type="line"/>
      <point x="262" y="1243" type="line"/>
      <point x="560" y="1288" type="line"/>
    </contour>
  </outline>
</glyph>
<glyph name="V" format="1">
  <advance width="1414"/>
  <unicode hex="0056"/>
  <outline>
    <contour>
      <point x="1109" y="1234" type="line"/>
      <point x="804" y="202" type="line"/>
      <point x="448" y="1232" type="line"/>
      <point x="610" y="1293" type="line"/>
      <point x="625" y="1384" type="line"/>
      <point x="-17" y="1384" type="line"/>
      <point x="-36" y="1291" type="line"/>
      <point x="106" y="1233" type="line"/>
      <point x="576" y="-35" type="line"/>
      <point x="871" y="0" type="line"/>
      <point x="1294" y="1233" type="line"/>
      <point x="1429" y="1291" type="line"/>
      <point x="1447" y="1384" type="line"/>
      <point x="951" y="1384" type="line"/>
      <point x="933" y="1292" type="line"/>
    </contour>
  </outline>
</glyph>
<glyph name="W" format="1">
  <advance width="2182"/>
  <unicode hex="0057"/>
  <outline>
    <contour>
      <point x="2214" y="1384" type="line"/>
      <point x="1701" y="1384" type="line"/>
      <point x="1681" y="1290" type="line"/>
      <point x="1879" y="1234" type="line"/>
      <point x="1604" y="217" type="line"/>
      <point x="1291" y="1231" type="line"/>
      <point x="1479" y="1291" type="line"/>
      <point x="1496" y="1384" type="line"/>
      <point x="843" y="1384" type="line"/>
      <point x="826" y="1295" type="line"/>
      <point x="972" y="1234" type="line"/>
      <point x="1022" y="1077" type="line"/>
      <point x="737" y="216" type="line"/>
      <point x="462" y="1232" type="line"/>
      <point x="617" y="1293" type="line"/>
      <point x="632" y="1384" type="line"/>
      <point x="3" y="1384" type="line"/>
      <point x="-14" y="1290" type="line"/>
      <point x="133" y="1232" type="line"/>
      <point x="511" y="-35" type="line"/>
      <point x="808" y="0" type="line"/>
      <point x="1095" y="849" type="line"/>
      <point x="1377" y="-35" type="line"/>
      <point x="1672" y="0" type="line"/>
      <point x="2064" y="1233" type="line"/>
      <point x="2196" y="1290" type="line"/>
    </contour>
  </outline>
</glyph>
<glyph name="X" format="1">
  <advance width="1437"/>
  <unicode hex="0058"/>
  <outline>
    <contour>
      <point x="1421" y="87" type="line"/>
      <point x="1268" y="148" type="line"/>
      <point x="882" y="707" type="line"/>
      <point x="1250" y="1233" type="line"/>
      <point x="1400" y="1287" type="line"/>
      <point x="1419" y="1384" type="line"/>
      <point x="907" y="1384" type="line"/>
      <point x="891" y="1304" type="line"/>
      <point x="1043" y="1232" type="line"/>
      <point x="798" y="832" type="line"/>
      <point x="537" y="1232" type="line"/>
      <point x="677" y="1298" type="line"/>
      <point x="691" y="1384" type="line"/>
      <point x="41" y="1384" type="line"/>
      <point x="21" y="1286" type="line"/>
      <point x="174" y="1233" type="line"/>
      <point x="559" y="670" type="line"/>
      <point x="182" y="152" type="line"/>
      <point x="32" y="92" type="line"/>
      <point x="16" y="0" type="line"/>
      <point x="526" y="0" type="line"/>
      <point x="545" y="81" type="line"/>
      <point x="391" y="151" type="line"/>
      <point x="641" y="547" type="line"/>
      <point x="902" y="152" type="line"/>
      <point x="763" y="86" type="line"/>
      <point x="748" y="0" type="line"/>
      <point x="1406" y="0" type="line"/>
    </contour>
  </outline>
</glyph>
<glyph name="Y" format="1">
  <advance width="1286"/>
  <unicode hex="0059"/>
  <outline>
    <contour>
      <point x="500" y="151" type="line"/>
      <point x="325" y="83" type="line"/>
      <point x="310" y="0" type="line"/>
      <point x="983" y="0" type="line"/>
      <point x="1000" y="82" type="line"/>
      <point x="797" y="151" type="line"/>
      <point x="797" y="560" type="line"/>
      <point x="1160" y="1233" type="line"/>
      <point x="1299" y="1290" type="line"/>
      <point x="1314" y="1384" type="line"/>
      <point x="811" y="1384" type="line"/>
      <point x="793" y="1303" type="line"/>
      <point x="973" y="1230" type="line"/>
      <point x="888" y="1058"/>
      <point x="795" y="864"/>
      <point x="732" y="690" type="curve"/>
      <point x="425" y="1231" type="line"/>
      <point x="577" y="1296" type="line"/>
      <point x="593" y="1384" type="line"/>
      <point x="-19" y="1384" type="line"/>
      <point x="-37" y="1291" type="line"/>
      <point x="102" y="1232" type="line"/>
      <point x="500" y="558" type="line"/>
    </contour>
  </outline>
</glyph>
<glyph name="Z" format="1">
  <advance width="1289"/>
  <unicode hex="005A"/>
  <outline>
    <contour>
      <point x="1111" y="382" type="line"/>
      <point x="985" y="167" type="line"/>
      <point x="384" y="116" type="line"/>
      <point x="1215" y="1262" type="line"/>
      <point x="1175" y="1384" type="line"/>
      <point x="342" y="1384" type="line"/>
      <point x="138" y="1394" type="line"/>
      <point x="93" y="1035" type="line"/>
      <point x="221" y="1014" type="line"/>
      <point x="324" y="1232" type="line"/>
      <point x="879" y="1279" type="line"/>
      <point x="53" y="150" type="line"/>
      <point x="108" y="0" type="line"/>
      <point x="1146" y="0" type="line"/>
      <point x="1227" y="362" type="line"/>
    </contour>
  </outline>
</glyph>
<glyph name="bracketleft" format="1">
  <advance width="635"/>
  <unicode hex="005B"/>
  <outline>
    <contour>
      <point x="617" y="1472" type="line"/>
      <point x="160" y="1472" type="line"/>
      <point x="160" y="-316" type="line"/>
      <point x="608" y="-316" type="line"/>
      <point x="627" y="-248" type="line"/>
      <point x="390" y="-164" type="line"/>
      <point x="390" y="1321" type="line"/>
      <point x="602" y="1399" type="line"/>
    </contour>
  </outline>
</glyph>
<glyph name="backslash" format="1">
  <advance width="936"/>
  <unicode hex="005C"/>
  <outline>
    <contour>
      <point x="262" y="1495" type="line"/>
      <point x="67" y="1445" type="line"/>
      <point x="658" y="-23" type="line"/>
      <point x="854" y="24" type="line"/>
    </contour>
  </outline>
</glyph>
<glyph name="bracketright" format="1">
  <advance width="632"/>
  <unicode hex="005D"/>
  <outline>
    <contour>
      <point x="472" y="-316" type="line"/>
      <point x="472" y="1472" type="line"/>
      <point x="32" y="1472" type="line"/>
      <point x="14" y="1400" type="line"/>
      <point x="242" y="1321" type="line"/>
      <point x="242" y="-164" type="line"/>
      <point x="29" y="-245" type="line"/>
      <point x="14" y="-316" type="line"/>
    </contour>
  </outline>
</glyph>
<glyph name="asciicircum" format="1">
  <advance width="937"/>
  <unicode hex="005E"/>
  <outline>
    <contour>
      <point x="228" y="958" type="line"/>
      <point x="468" y="1097" type="line"/>
      <point x="710" y="957" type="line"/>
      <point x="824" y="1013" type="line"/>
      <point x="550" y="1282" type="line"/>
      <point x="388" y="1282" type="line"/>
      <point x="114" y="1013" type="line"/>
    </contour>
  </outline>
</glyph>
<glyph name="underscore" format="1">
  <advance width="1024"/>
  <unicode hex="005F"/>
  <outline>
    <contour>
      <point x="1088" y="-182" type="line"/>
      <point x="-23" y="-182" type="line"/>
      <point x="-64" y="-365" type="line"/>
      <point x="1055" y="-365" type="line"/>
    </contour>
  </outline>
</glyph>
<glyph name="grave" format="1">
  <advance width="1024"/>
  <unicode hex="0060"/>
  <outline>
    <contour>
      <point x="257" y="1286" type="line"/>
      <point x="680" y="1049" type="line"/>
      <point x="705" y="1195" type="line"/>
      <point x="419" y="1463" type="line"/>
      <point x="291" y="1463" type="line"/>
    </contour>
  </outline>
</glyph>
<glyph name="b" format="1">
  <advance width="1166"/>
  <unicode hex="0062"/>
  <outline>
    <contour>
      <point x="111" y="-25" type="line"/>
      <point x="406" y="100" type="line"/>
      <point x="484" y="13"/>
      <point x="563" y="-25"/>
      <point x="677" y="-25" type="curve" smooth="yes"/>
      <point x="808" y="-25"/>
      <point x="900" y="39"/>
      <point x="965" y="114" type="curve" smooth="yes"/>
      <point x="1050" y="211"/>
      <point x="1095" y="355"/>
      <point x="1095" y="508" type="curve" smooth="yes"/>
      <point x="1095" y="732"/>
      <point x="1005" y="975"/>
      <point x="762" y="975" type="curve" smooth="yes"/>
      <point x="640" y="975"/>
      <point x="518" y="897"/>
      <point x="437" y="830" type="curve"/>
      <point x="437" y="1472" type="line"/>
      <point x="22" y="1413" type="line"/>
      <point x="12" y="1365" type="line"/>
      <point x="155" y="1278" type="line"/>
      <point x="155" y="199" type="line"/>
      <point x="67" y="33" type="line"/>
    </contour>
    <contour>
      <point x="437" y="763" type="line"/>
      <point x="490" y="783"/>
      <point x="599" y="801"/>
      <point x="643" y="801" type="curve" smooth="yes"/>
      <point x="675" y="801"/>
      <point x="698" y="792"/>
      <point x="720" y="762" type="curve"/>
      <point x="790" y="679"/>
      <point x="818" y="549"/>
      <point x="818" y="422" type="curve" smooth="yes"/>
      <point x="818" y="332"/>
      <point x="800" y="217"/>
      <point x="767" y="172" type="curve"/>
      <point x="749" y="139"/>
      <point x="715" y="134"/>
      <point x="670" y="134" type="curve" smooth="yes"/>
      <point x="594" y="134"/>
      <point x="503" y="146"/>
      <point x="437" y="188" type="curve"/>
    </contour>
  </outline>
</glyph>
<glyph name="c" format="1">
  <advance width="930"/>
  <unicode hex="0063"/>
  <outline>
    <contour>
      <point x="615" y="719" type="line"/>
      <point x="639" y="691"/>
      <point x="686" y="662"/>
      <point x="716" y="662" type="curve" smooth="yes"/>
      <point x="764" y="662"/>
      <point x="887" y="772"/>
      <point x="887" y="836" type="curve" smooth="yes"/>
      <point x="887" y="868"/>
      <point x="838" y="911"/>
      <point x="787" y="935" type="curve" smooth="yes"/>
      <point x="725" y="963"/>
      <point x="661" y="973"/>
      <point x="585" y="973" type="curve" smooth="yes"/>
      <point x="302" y="973"/>
      <point x="60" y="784"/>
      <point x="60" y="462" type="curve" smooth="yes"/>
      <point x="60" y="167"/>
      <point x="233" y="-25"/>
      <point x="533" y="-25" type="curve" smooth="yes"/>
      <point x="704" y="-25"/>
      <point x="840" y="72"/>
      <point x="898" y="150" type="curve"/>
      <point x="879" y="182" type="line"/>
      <point x="851" y="173"/>
      <point x="697" y="139"/>
      <point x="615" y="139" type="curve" smooth="yes"/>
      <point x="530" y="139"/>
      <point x="466" y="184"/>
      <point x="415" y="257" type="curve" smooth="yes"/>
      <point x="360" y="336"/>
      <point x="338" y="423"/>
      <point x="338" y="530" type="curve" smooth="yes"/>
      <point x="338" y="612"/>
      <point x="358" y="716"/>
      <point x="416" y="794" type="curve" smooth="yes"/>
      <point x="460" y="850"/>
      <point x="516" y="880"/>
      <point x="579" y="890" type="curve"/>
    </contour>
  </outline>
</glyph>
<glyph name="d" format="1">
  <advance width="1199"/>
  <unicode hex="0064"/>
  <outline>
    <contour>
      <point x="1018" y="1472" type="line"/>
      <point x="600" y="1412" type="line"/>
      <point x="591" y="1366" type="line"/>
      <point x="736" y="1277" type="line"/>
      <point x="736" y="879" type="line"/>
      <point x="664" y="939"/>
      <point x="584" y="975"/>
      <point x="500" y="975" type="curve" smooth="yes"/>
      <point x="229" y="975"/>
      <point x="65" y="727"/>
      <point x="65" y="438" type="curve" smooth="yes"/>
      <point x="65" y="104"/>
      <point x="263" y="-25"/>
      <point x="458" y="-25" type="curve" smooth="yes"/>
      <point x="593" y="-25"/>
      <point x="702" y="45"/>
      <point x="774" y="132" type="curve"/>
      <point x="832" y="93"/>
      <point x="874" y="39"/>
      <point x="914" y="-25" type="curve"/>
      <point x="1002" y="-25"/>
      <point x="1144" y="18"/>
      <point x="1178" y="33" type="curve"/>
      <point x="1191" y="94" type="line"/>
      <point x="1150" y="103"/>
      <point x="1051" y="136"/>
      <point x="1018" y="196" type="curve"/>
    </contour>
    <contour>
      <point x="397" y="266"/>
      <point x="349" y="385"/>
      <point x="349" y="534" type="curve" smooth="yes"/>
      <point x="349" y="628"/>
      <point x="362" y="708"/>
      <point x="391" y="765" type="curve" smooth="yes"/>
      <point x="413" y="810"/>
      <point x="456" y="816"/>
      <point x="506" y="816" type="curve" smooth="yes"/>
      <point x="591" y="816"/>
      <point x="681" y="787"/>
      <point x="736" y="733" type="curve"/>
      <point x="736" y="174" type="line"/>
      <point x="693" y="154"/>
      <point x="612" y="139"/>
      <point x="557" y="139" type="curve" smooth="yes"/>
      <point x="524" y="139"/>
      <point x="491" y="160"/>
      <point x="466" y="190" type="curve"/>
    </contour>
  </outline>
</glyph>
<glyph name="e" format="1">
  <advance width="1002"/>
  <unicode hex="0065"/>
  <outline>
    <contour>
      <point x="257" y="975"/>
      <point x="60" y="734"/>
      <point x="60" y="460" type="curve" smooth="yes"/>
      <point x="60" y="115"/>
      <point x="290" y="-25"/>
      <point x="517" y="-25" type="curve" smooth="yes"/>
      <point x="673" y="-25"/>
      <point x="827" y="53"/>
      <point x="906" y="152" type="curve"/>
      <point x="888" y="186" type="line"/>
      <point x="856" y="175"/>
      <point x="695" y="140"/>
      <point x="604" y="140" type="curve" smooth="yes"/>
      <point x="468" y="140"/>
      <point x="359" y="297"/>
      <point x="337" y="461" type="curve"/>
      <point x="863" y="461" type="line" smooth="yes"/>
      <point x="896" y="461"/>
      <point x="912" y="473"/>
      <point x="921" y="495" type="curve" smooth="yes"/>
      <point x="939" y="539"/>
      <point x="946" y="585"/>
      <point x="946" y="635" type="curve" smooth="yes"/>
      <point x="946" y="825"/>
      <point x="804" y="975"/>
      <point x="568" y="975" type="curve" smooth="yes"/>
    </contour>
    <contour>
      <point x="333" y="544" type="line"/>
      <point x="336" y="690"/>
      <point x="365" y="778"/>
      <point x="395" y="819" type="curve"/>
      <point x="411" y="839"/>
      <point x="442" y="840"/>
      <point x="466" y="840" type="curve" smooth="yes"/>
      <point x="587" y="840"/>
      <point x="691" y="754"/>
      <point x="704" y="588" type="curve"/>
    </contour>
  </outline>
</glyph>
<glyph name="f" format="1">
  <advance width="806"/>
  <unicode hex="0066"/>
  <outline>
    <contour>
      <point x="208" y="145" type="line"/>
      <point x="72" y="78" type="line"/>
      <point x="56" y="0" type="line"/>
      <point x="737" y="0" type="line"/>
      <point x="753" y="70" type="line"/>
      <point x="490" y="135" type="line"/>
      <point x="490" y="795" type="line"/>
      <point x="791" y="871" type="line"/>
      <point x="804" y="950" type="line"/>
      <point x="490" y="950" type="line"/>
      <point x="490" y="1175"/>
      <point x="517" y="1355"/>
      <point x="676" y="1397" type="curve"/>
      <point x="713" y="1217" type="line"/>
      <point x="735" y="1196"/>
      <point x="782" y="1160"/>
      <point x="815" y="1160" type="curve" smooth="yes"/>
      <point x="868" y="1160"/>
      <point x="986" y="1275"/>
      <point x="986" y="1334" type="curve" smooth="yes"/>
      <point x="986" y="1367"/>
      <point x="941" y="1408"/>
      <point x="894" y="1430" type="curve" smooth="yes"/>
      <point x="835" y="1459"/>
      <point x="772" y="1472"/>
      <point x="667" y="1472" type="curve" smooth="yes"/>
      <point x="349" y="1472"/>
      <point x="208" y="1313"/>
      <point x="208" y="950" type="curve"/>
      <point x="70" y="950" type="line"/>
      <point x="52" y="862" type="line"/>
      <point x="208" y="793" type="line"/>
    </contour>
  </outline>
</glyph>
<glyph name="g" format="1">
  <advance width="1107"/>
  <unicode hex="0067"/>
  <outline>
    <contour>
      <point x="454" y="133"/>
      <point x="388" y="135"/>
      <point x="352" y="148" type="curve" smooth="yes"/>
      <point x="337" y="153"/>
      <point x="323" y="167"/>
      <point x="323" y="183" type="curve" smooth="yes"/>
      <point x="323" y="211"/>
      <point x="349" y="258"/>
      <point x="364" y="288" type="curve"/>
      <point x="410" y="277"/>
      <point x="462" y="272"/>
      <point x="517" y="272" type="curve" smooth="yes"/>
      <point x="772" y="272"/>
      <point x="961" y="416"/>
      <point x="961" y="653" type="curve" smooth="yes"/>
      <point x="961" y="696"/>
      <point x="953" y="735"/>
      <point x="938" y="769" type="curve"/>
      <point x="1114" y="942" type="line"/>
      <point x="1094" y="982" type="line"/>
      <point x="1005" y="982"/>
      <point x="897" y="959"/>
      <point x="806" y="914" type="curve"/>
      <point x="736" y="955"/>
      <point x="649" y="975"/>
      <point x="563" y="975" type="curve" smooth="yes"/>
      <point x="238" y="975"/>
      <point x="100" y="795"/>
      <point x="100" y="584" type="curve" smooth="yes"/>
      <point x="100" y="449"/>
      <point x="172" y="360"/>
      <point x="286" y="312" type="curve"/>
      <point x="196" y="285"/>
      <point x="73" y="223"/>
      <point x="73" y="114" type="curve" smooth="yes"/>
      <point x="73" y="32"/>
      <point x="127" y="-23"/>
      <point x="203" y="-51" type="curve"/>
      <point x="108" y="-98"/>
      <point x="11" y="-172"/>
      <point x="11" y="-278" type="curve" smooth="yes"/>
      <point x="11" y="-337"/>
      <point x="36" y="-385"/>
      <point x="86" y="-420" type="curve" smooth="yes"/>
      <point x="170" y="-479"/>
      <point x="328" y="-500"/>
      <point x="452" y="-500" type="curve" smooth="yes"/>
      <point x="862" y="-500"/>
      <point x="1065" y="-297"/>
      <point x="1065" y="-73" type="curve" smooth="yes"/>
      <point x="1065" y="52"/>
      <point x="1000" y="133"/>
      <point x="778" y="133" type="curve" smooth="yes"/>
    </contour>
    <contour>
      <point x="410" y="851"/>
      <point x="453" y="858"/>
      <point x="485" y="858" type="curve" smooth="yes"/>
      <point x="636" y="858"/>
      <point x="706" y="735"/>
      <point x="706" y="603" type="curve" smooth="yes"/>
      <point x="706" y="504"/>
      <point x="693" y="438"/>
      <point x="673" y="418" type="curve" smooth="yes"/>
      <point x="656" y="401"/>
      <point x="629" y="392"/>
      <point x="591" y="392" type="curve" smooth="yes"/>
      <point x="447" y="392"/>
      <point x="364" y="539"/>
      <point x="364" y="695" type="curve" smooth="yes"/>
      <point x="364" y="746"/>
      <point x="375" y="803"/>
      <point x="397" y="832" type="curve"/>
    </contour>
    <contour>
      <point x="729" y="-354"/>
      <point x="630" y="-361"/>
      <point x="565" y="-361" type="curve" smooth="yes"/>
      <point x="422" y="-361"/>
      <point x="278" y="-322"/>
      <point x="243" y="-273" type="curve"/>
      <point x="236" y="-264"/>
      <point x="234" y="-251"/>
      <point x="234" y="-237" type="curve" smooth="yes"/>
      <point x="234" y="-191"/>
      <point x="261" y="-118"/>
      <point x="284" y="-70" type="curve"/>
      <point x="397" y="-87"/>
      <point x="572" y="-87"/>
      <point x="732" y="-87" type="curve" smooth="yes"/>
      <point x="818" y="-87"/>
      <point x="824" y="-121"/>
      <point x="824" y="-168" type="curve" smooth="yes"/>
      <point x="824" y="-245"/>
      <point x="789" y="-307"/>
      <point x="772" y="-320" type="curve" smooth="yes"/>
    </contour>
  </outline>
</glyph>
<glyph name="h" format="1">
  <advance width="1280"/>
  <unicode hex="0068"/>
  <outline>
    <contour>
      <point x="1267" y="70" type="line"/>
      <point x="1109" y="135" type="line"/>
      <point x="1109" y="620" type="line" smooth="yes"/>
      <point x="1109" y="905"/>
      <point x="958" y="974"/>
      <point x="822" y="974" type="curve" smooth="yes"/>
      <point x="710" y="974"/>
      <point x="589" y="917"/>
      <point x="463" y="821" type="curve"/>
      <point x="463" y="1472" type="line"/>
      <point x="46" y="1412" type="line"/>
      <point x="37" y="1365" type="line"/>
      <point x="181" y="1277" type="line"/>
      <point x="181" y="141" type="line"/>
      <point x="45" y="76" type="line"/>
      <point x="31" y="0" type="line"/>
      <point x="587" y="0" type="line"/>
      <point x="603" y="68" type="line"/>
      <point x="463" y="135" type="line"/>
      <point x="463" y="752" type="line"/>
      <point x="529" y="774"/>
      <point x="665" y="796"/>
      <point x="731" y="796" type="curve" smooth="yes"/>
      <point x="747" y="796"/>
      <point x="757" y="792"/>
      <point x="768" y="783" type="curve"/>
      <point x="796" y="758"/>
      <point x="827" y="683"/>
      <point x="827" y="552" type="curve" smooth="yes"/>
      <point x="827" y="143" type="line"/>
      <point x="739" y="75" type="line"/>
      <point x="724" y="0" type="line"/>
      <point x="1251" y="0" type="line"/>
    </contour>
  </outline>
</glyph>
<glyph name="i" format="1">
  <advance width="657"/>
  <unicode hex="0069"/>
  <outline>
    <contour>
      <point x="406" y="1120"/>
      <point x="507" y="1258"/>
      <point x="498" y="1308" type="curve" smooth="yes"/>
      <point x="490" y="1350"/>
      <point x="359" y="1453"/>
      <point x="305" y="1444" type="curve" smooth="yes"/>
      <point x="257" y="1436"/>
      <point x="158" y="1297"/>
      <point x="167" y="1249" type="curve" smooth="yes"/>
      <point x="177" y="1203"/>
      <point x="313" y="1105"/>
      <point x="360" y="1113" type="curve" smooth="yes"/>
    </contour>
    <contour>
      <point x="198" y="141" type="line"/>
      <point x="62" y="77" type="line"/>
      <point x="47" y="0" type="line"/>
      <point x="610" y="0" type="line"/>
      <point x="625" y="68" type="line"/>
      <point x="480" y="135" type="line"/>
      <point x="480" y="965" type="line"/>
      <point x="63" y="906" type="line"/>
      <point x="55" y="857" type="line"/>
      <point x="198" y="770" type="line"/>
    </contour>
  </outline>
</glyph>
<glyph name="j" format="1">
  <advance width="595"/>
  <unicode hex="006A"/>
  <outline>
    <contour>
      <point x="372" y="1120"/>
      <point x="476" y="1253"/>
      <point x="467" y="1308" type="curve"/>
      <point x="459" y="1348"/>
      <point x="327" y="1454"/>
      <point x="274" y="1444" type="curve" smooth="yes"/>
      <point x="223" y="1436"/>
      <point x="127" y="1297"/>
      <point x="136" y="1249" type="curve" smooth="yes"/>
      <point x="146" y="1202"/>
      <point x="282" y="1105"/>
      <point x="329" y="1113" type="curve" smooth="yes"/>
    </contour>
    <contour>
      <point x="30" y="857" type="line"/>
      <point x="173" y="770" type="line"/>
      <point x="173" y="0" type="line" smooth="yes"/>
      <point x="173" y="-239"/>
      <point x="165" y="-332"/>
      <point x="71" y="-439" type="curve"/>
      <point x="28" y="-241" type="line"/>
      <point x="2" y="-218"/>
      <point x="-42" y="-185"/>
      <point x="-72" y="-185" type="curve" smooth="yes"/>
      <point x="-124" y="-185"/>
      <point x="-246" y="-304"/>
      <point x="-246" y="-360" type="curve" smooth="yes"/>
      <point x="-246" y="-433"/>
      <point x="-93" y="-500"/>
      <point x="23" y="-500" type="curve" smooth="yes"/>
      <point x="388" y="-500"/>
      <point x="455" y="-226"/>
      <point x="455" y="28" type="curve" smooth="yes"/>
      <point x="455" y="965" type="line"/>
      <point x="37" y="906" type="line"/>
    </contour>
  </outline>
</glyph>
<glyph name="k" format="1">
  <advance width="1244"/>
  <unicode hex="006B"/>
  <outline>
    <contour>
      <point x="36" y="1365" type="line"/>
      <point x="180" y="1277" type="line"/>
      <point x="180" y="141" type="line"/>
      <point x="45" y="76" type="line"/>
      <point x="31" y="0" type="line"/>
      <point x="592" y="0" type="line"/>
      <point x="608" y="68" type="line"/>
      <point x="462" y="135" type="line"/>
      <point x="462" y="1472" type="line"/>
      <point x="45" y="1412" type="line"/>
    </contour>
    <contour>
      <point x="1113" y="125" type="line"/>
      <point x="779" y="611" type="line"/>
      <point x="1016" y="825" type="line"/>
      <point x="1155" y="874" type="line"/>
      <point x="1171" y="950" type="line"/>
      <point x="704" y="950" type="line"/>
      <point x="690" y="883" type="line"/>
      <point x="801" y="832" type="line"/>
      <point x="503" y="550" type="line"/>
      <point x="806" y="65" type="line"/>
      <point x="794" y="0" type="line"/>
      <point x="1232" y="0" type="line"/>
      <point x="1249" y="67" type="line"/>
    </contour>
  </outline>
</glyph>
<glyph name="l" format="1">
  <advance width="640"/>
  <unicode hex="006C"/>
  <outline>
    <contour>
      <point x="36" y="1365" type="line"/>
      <point x="180" y="1277" type="line"/>
      <point x="180" y="141" type="line"/>
      <point x="45" y="76" type="line"/>
      <point x="31" y="0" type="line"/>
      <point x="592" y="0" type="line"/>
      <point x="608" y="68" type="line"/>
      <point x="462" y="135" type="line"/>
      <point x="462" y="1472" type="line"/>
      <point x="45" y="1412" type="line"/>
    </contour>
  </outline>
</glyph>
<glyph name="m" format="1">
  <advance width="1904"/>
  <unicode hex="006D"/>
  <outline>
    <contour>
      <point x="55" y="857" type="line"/>
      <point x="199" y="770" type="line"/>
      <point x="199" y="145" type="line"/>
      <point x="63" y="77" type="line"/>
      <point x="48" y="0" type="line"/>
      <point x="608" y="0" type="line"/>
      <point x="622" y="68" type="line"/>
      <point x="481" y="135" type="line"/>
      <point x="481" y="687" type="line" smooth="yes"/>
      <point x="481" y="712"/>
      <point x="479" y="733"/>
      <point x="474" y="752" type="curve"/>
      <point x="563" y="781"/>
      <point x="693" y="796"/>
      <point x="740" y="796" type="curve" smooth="yes"/>
      <point x="750" y="796"/>
      <point x="758" y="793"/>
      <point x="765" y="786" type="curve"/>
      <point x="795" y="753"/>
      <point x="827" y="682"/>
      <point x="827" y="500" type="curve" smooth="yes"/>
      <point x="827" y="143" type="line"/>
      <point x="738" y="73" type="line"/>
      <point x="725" y="0" type="line"/>
      <point x="1231" y="0" type="line"/>
      <point x="1248" y="68" type="line"/>
      <point x="1109" y="135" type="line"/>
      <point x="1109" y="477" type="line" smooth="yes"/>
      <point x="1109" y="611"/>
      <point x="1107" y="697"/>
      <point x="1093" y="750" type="curve"/>
      <point x="1179" y="783"/>
      <point x="1326" y="796"/>
      <point x="1356" y="796" type="curve" smooth="yes"/>
      <point x="1378" y="796"/>
      <point x="1387" y="792"/>
      <point x="1398" y="775" type="curve"/>
      <point x="1424" y="750"/>
      <point x="1452" y="680"/>
      <point x="1452" y="496" type="curve" smooth="yes"/>
      <point x="1452" y="143" type="line"/>
      <point x="1364" y="75" type="line"/>
      <point x="1349" y="0" type="line"/>
      <point x="1875" y="0" type="line"/>
      <point x="1891" y="70" type="line"/>
      <point x="1734" y="135" type="line"/>
      <point x="1734" y="562" type="line" smooth="yes"/>
      <point x="1734" y="871"/>
      <point x="1630" y="975"/>
      <point x="1439" y="975" type="curve" smooth="yes"/>
      <point x="1345" y="975"/>
      <point x="1201" y="913"/>
      <point x="1076" y="808" type="curve"/>
      <point x="1025" y="939"/>
      <point x="915" y="975"/>
      <point x="833" y="975" type="curve" smooth="yes"/>
      <point x="710" y="975"/>
      <point x="579" y="904"/>
      <point x="456" y="805" type="curve"/>
      <point x="402" y="960" type="line"/>
      <point x="64" y="906" type="line"/>
    </contour>
  </outline>
</glyph>
<glyph name="p" format="1">
  <advance width="1182"/>
  <unicode hex="0070"/>
  <outline>
    <contour>
      <point x="722" y="-405" type="line"/>
      <point x="455" y="-340" type="line"/>
      <point x="455" y="78" type="line"/>
      <point x="509" y="6"/>
      <point x="606" y="-25"/>
      <point x="702" y="-25" type="curve" smooth="yes"/>
      <point x="783" y="-25"/>
      <point x="857" y="5"/>
      <point x="914" y="49" type="curve" smooth="yes"/>
      <point x="1039" y="144"/>
      <point x="1113" y="320"/>
      <point x="1113" y="501" type="curve" smooth="yes"/>
      <point x="1113" y="798"/>
      <point x="985" y="974"/>
      <point x="774" y="974" type="curve" smooth="yes"/>
      <point x="648" y="974"/>
      <point x="531" y="896"/>
      <point x="439" y="827" type="curve"/>
      <point x="377" y="960" type="line"/>
      <point x="38" y="906" type="line"/>
      <point x="30" y="857" type="line"/>
      <point x="173" y="770" type="line"/>
      <point x="173" y="-330" type="line"/>
      <point x="38" y="-396" type="line"/>
      <point x="23" y="-475" type="line"/>
      <point x="707" y="-475" type="line"/>
    </contour>
    <contour>
      <point x="506" y="783"/>
      <point x="608" y="802"/>
      <point x="654" y="802" type="curve" smooth="yes"/>
      <point x="685" y="802"/>
      <point x="708" y="793"/>
      <point x="732" y="761" type="curve"/>
      <point x="801" y="677"/>
      <point x="835" y="552"/>
      <point x="835" y="412" type="curve" smooth="yes"/>
      <point x="835" y="308"/>
      <point x="812" y="214"/>
      <point x="784" y="172" type="curve"/>
      <point x="766" y="139"/>
      <point x="734" y="134"/>
      <point x="690" y="134" type="curve" smooth="yes"/>
      <point x="614" y="134"/>
      <point x="521" y="147"/>
      <point x="455" y="188" type="curve"/>
      <point x="455" y="693" type="line" smooth="yes"/>
      <point x="455" y="709"/>
      <point x="455" y="740"/>
      <point x="453" y="763" type="curve"/>
    </contour>
  </outline>
</glyph>
<glyph name="q" format="1">
  <advance width="1172"/>
  <unicode hex="0071"/>
  <outline>
    <contour>
      <point x="734" y="-334" type="line"/>
      <point x="495" y="-398" type="line"/>
      <point x="478" y="-475" type="line"/>
      <point x="1158" y="-475" type="line"/>
      <point x="1173" y="-405" type="line"/>
      <point x="1016" y="-337" type="line"/>
      <point x="1016" y="737" type="line"/>
      <point x="1102" y="901" type="line"/>
      <point x="1062" y="965" type="line"/>
      <point x="775" y="844" type="line"/>
      <point x="699" y="933"/>
      <point x="602" y="974"/>
      <point x="494" y="974" type="curve" smooth="yes"/>
      <point x="388" y="974"/>
      <point x="292" y="931"/>
      <point x="222" y="860" type="curve" smooth="yes"/>
      <point x="119" y="758"/>
      <point x="65" y="605"/>
      <point x="65" y="450" type="curve" smooth="yes"/>
      <point x="65" y="104"/>
      <point x="259" y="-25"/>
      <point x="450" y="-25" type="curve" smooth="yes"/>
      <point x="584" y="-25"/>
      <point x="683" y="46"/>
      <point x="734" y="98" type="curve"/>
    </contour>
    <contour>
      <point x="734" y="173" type="line"/>
      <point x="691" y="153"/>
      <point x="613" y="139"/>
      <point x="558" y="139" type="curve" smooth="yes"/>
      <point x="524" y="139"/>
      <point x="486" y="160"/>
      <point x="462" y="192" type="curve"/>
      <point x="377" y="283"/>
      <point x="349" y="408"/>
      <point x="349" y="533" type="curve" smooth="yes"/>
      <point x="349" y="621"/>
      <point x="360" y="707"/>
      <point x="390" y="764" type="curve" smooth="yes"/>
      <point x="412" y="809"/>
      <point x="450" y="816"/>
      <point x="506" y="816" type="curve" smooth="yes"/>
      <point x="595" y="816"/>
      <point x="683" y="779"/>
      <point x="734" y="734" type="curve"/>
    </contour>
  </outline>
</glyph>
<glyph name="t" format="1">
  <advance width="803"/>
  <unicode hex="0074"/>
  <outline>
    <contour>
      <point x="30" y="950" type="line"/>
      <point x="12" y="861" type="line"/>
      <point x="175" y="793" type="line"/>
      <point x="175" y="316" type="line" smooth="yes"/>
      <point x="175" y="74"/>
      <point x="301" y="-25"/>
      <point x="475" y="-25" type="curve" smooth="yes"/>
      <point x="615" y="-25"/>
      <point x="742" y="55"/>
      <point x="810" y="124" type="curve"/>
      <point x="795" y="162" type="line"/>
      <point x="781" y="159"/>
      <point x="629" y="131"/>
      <point x="574" y="131" type="curve" smooth="yes"/>
      <point x="554" y="131"/>
      <point x="537" y="136"/>
      <point x="527" y="144" type="curve"/>
      <point x="480" y="177"/>
      <point x="457" y="273"/>
      <point x="457" y="367" type="curve" smooth="yes"/>
      <point x="457" y="793" type="line"/>
      <point x="752" y="863" type="line"/>
      <point x="768" y="950" type="line"/>
      <point x="457" y="950" type="line"/>
      <point x="457" y="1259" type="line"/>
      <point x="215" y="1159" type="line"/>
      <point x="175" y="950" type="line"/>
    </contour>
  </outline>
</glyph>
<glyph name="u" format="1">
  <advance width="1258"/>
  <unicode hex="0075"/>
  <outline>
    <contour>
      <point x="21" y="866" type="line"/>
      <point x="171" y="779" type="line"/>
      <point x="171" y="332" type="line" smooth="yes"/>
      <point x="171" y="58"/>
      <point x="313" y="-25"/>
      <point x="491" y="-25" type="curve" smooth="yes"/>
      <point x="624" y="-25"/>
      <point x="743" y="52"/>
      <point x="821" y="136" type="curve"/>
      <point x="885" y="102"/>
      <point x="947" y="7"/>
      <point x="961" y="-25" type="curve"/>
      <point x="1070" y="-25"/>
      <point x="1184" y="14"/>
      <point x="1224" y="33" type="curve"/>
      <point x="1239" y="94" type="line"/>
      <point x="1204" y="101"/>
      <point x="1100" y="134"/>
      <point x="1066" y="196" type="curve"/>
      <point x="1066" y="950" type="line"/>
      <point x="656" y="950" type="line"/>
      <point x="640" y="864" type="line"/>
      <point x="784" y="779" type="line"/>
      <point x="784" y="173" type="line"/>
      <point x="726" y="153"/>
      <point x="627" y="140"/>
      <point x="559" y="140" type="curve" smooth="yes"/>
      <point x="538" y="140"/>
      <point x="524" y="145"/>
      <point x="509" y="159" type="curve" smooth="yes"/>
      <point x="477" y="189"/>
      <point x="453" y="240"/>
      <point x="453" y="388" type="curve" smooth="yes"/>
      <point x="453" y="950" type="line"/>
      <point x="39" y="950" type="line"/>
    </contour>
  </outline>
</glyph>
<glyph name="v" format="1">
  <advance width="1109"/>
  <unicode hex="0076"/>
  <outline>
    <contour>
      <point x="1135" y="950" type="line"/>
      <point x="735" y="950" type="line"/>
      <point x="722" y="883" type="line"/>
      <point x="840" y="824" type="line"/>
      <point x="634" y="218" type="line"/>
      <point x="410" y="826" type="line"/>
      <point x="510" y="878" type="line"/>
      <point x="526" y="950" type="line"/>
      <point x="-18" y="950" type="line"/>
      <point x="-29" y="882" type="line"/>
      <point x="113" y="822" type="line"/>
      <point x="446" y="-23" type="line"/>
      <point x="673" y="0" type="line"/>
      <point x="1002" y="820" type="line"/>
      <point x="1122" y="880" type="line"/>
    </contour>
  </outline>
</glyph>
<glyph name="w" format="1">
  <advance width="1606"/>
  <unicode hex="0077"/>
  <outline>
    <contour>
      <point x="1616" y="950" type="line"/>
      <point x="1192" y="950" type="line"/>
      <point x="1179" y="881" type="line"/>
      <point x="1338" y="825" type="line"/>
      <point x="1188" y="207" type="line"/>
      <point x="912" y="950" type="line"/>
      <point x="791" y="950" type="line"/>
      <point x="570" y="205" type="line"/>
      <point x="409" y="825" type="line"/>
      <point x="517" y="878" type="line"/>
      <point x="531" y="950" type="line"/>
      <point x="-10" y="950" type="line"/>
      <point x="-22" y="883" type="line"/>
      <point x="122" y="821" type="line"/>
      <point x="383" y="-25" type="line"/>
      <point x="622" y="0" type="line"/>
      <point x="793" y="528" type="line"/>
      <point x="994" y="-25" type="line"/>
      <point x="1241" y="0" type="line"/>
      <point x="1481" y="821" type="line"/>
      <point x="1602" y="882" type="line"/>
    </contour>
  </outline>
</glyph>
<glyph name="x" format="1">
  <advance width="1214"/>
  <unicode hex="0078"/>
  <outline>
    <contour>
      <point x="1198" y="70" type="line"/>
      <point x="1055" y="121" type="line"/>
      <point x="757" y="483" type="line"/>
      <point x="1042" y="825" type="line"/>
      <point x="1163" y="871" type="line"/>
      <point x="1179" y="950" type="line"/>
      <point x="754" y="950" type="line"/>
      <point x="740" y="883" type="line"/>
      <point x="852" y="830" type="line"/>
      <point x="675" y="594" type="line"/>
      <point x="505" y="832" type="line"/>
      <point x="598" y="875" type="line"/>
      <point x="612" y="950" type="line"/>
      <point x="39" y="950" type="line"/>
      <point x="25" y="879" type="line"/>
      <point x="166" y="830" type="line"/>
      <point x="455" y="460" type="line"/>
      <point x="176" y="129" type="line"/>
      <point x="40" y="77" type="line"/>
      <point x="25" y="0" type="line"/>
      <point x="458" y="0" type="line"/>
      <point x="472" y="67" type="line"/>
      <point x="363" y="119" type="line"/>
      <point x="537" y="354" type="line"/>
      <point x="717" y="120" type="line"/>
      <point x="619" y="76" type="line"/>
      <point x="604" y="0" type="line"/>
      <point x="1185" y="0" type="line"/>
    </contour>
  </outline>
</glyph>
<glyph name="y" format="1">
  <advance width="1135"/>
  <unicode hex="0079"/>
  <outline>
    <contour>
      <point x="1155" y="950" type="line"/>
      <point x="730" y="950" type="line"/>
      <point x="718" y="884" type="line"/>
      <point x="835" y="824" type="line"/>
      <point x="634" y="207" type="line"/>
      <point x="409" y="826" type="line"/>
      <point x="514" y="878" type="line"/>
      <point x="529" y="950" type="line"/>
      <point x="-19" y="950" type="line"/>
      <point x="-31" y="881" type="line"/>
      <point x="110" y="822" type="line"/>
      <point x="447" y="-30" type="line"/>
      <point x="560" y="-15" type="line"/>
      <point x="488" y="-184"/>
      <point x="365" y="-394"/>
      <point x="321" y="-417" type="curve"/>
      <point x="284" y="-234" type="line"/>
      <point x="260" y="-208"/>
      <point x="209" y="-177"/>
      <point x="179" y="-177" type="curve" smooth="yes"/>
      <point x="123" y="-177"/>
      <point x="7" y="-299"/>
      <point x="7" y="-352" type="curve" smooth="yes"/>
      <point x="7" y="-437"/>
      <point x="165" y="-500"/>
      <point x="285" y="-500" type="curve" smooth="yes"/>
      <point x="325" y="-500"/>
      <point x="357" y="-494"/>
      <point x="385" y="-484" type="curve" smooth="yes"/>
      <point x="525" y="-430"/>
      <point x="625" y="-218"/>
      <point x="770" y="162" type="curve" smooth="yes"/>
      <point x="1022" y="821" type="line"/>
      <point x="1141" y="878" type="line"/>
    </contour>
  </outline>
</glyph>
<glyph name="z" format="1">
  <advance width="995"/>
  <unicode hex="007A"/>
  <outline>
    <contour>
      <point x="795" y="307" type="line"/>
      <point x="718" y="129" type="line"/>
      <point x="371" y="95" type="line"/>
      <point x="932" y="829" type="line"/>
      <point x="885" y="950" type="line"/>
      <point x="98" y="950" type="line"/>
      <point x="98" y="648" type="line"/>
      <point x="211" y="657" type="line"/>
      <point x="291" y="830" type="line"/>
      <point x="636" y="856" type="line"/>
      <point x="46" y="109" type="line"/>
      <point x="100" y="0" type="line"/>
      <point x="908" y="0" type="line"/>
      <point x="906" y="314" type="line"/>
    </contour>
  </outline>
</glyph>
<glyph name="braceleft" format="1">
  <advance width="661"/>
  <unicode hex="007B"/>
  <outline>
    <contour>
      <point x="255" y="577"/>
      <point x="421" y="616"/>
      <point x="421" y="793" type="curve" smooth="yes"/>
      <point x="421" y="1309" type="line"/>
      <point x="634" y="1417" type="line"/>
      <point x="647" y="1488" type="line"/>
      <point x="229" y="1488"/>
      <point x="202" y="1435"/>
      <point x="202" y="1287" type="curve" smooth="yes"/>
      <point x="202" y="763" type="line" smooth="yes"/>
      <point x="202" y="693"/>
      <point x="109" y="632"/>
      <point x="65" y="608" type="curve" smooth="yes"/>
      <point x="58" y="604"/>
      <point x="44" y="591"/>
      <point x="44" y="575" type="curve" smooth="yes"/>
      <point x="44" y="559"/>
      <point x="56" y="548"/>
      <point x="65" y="543" type="curve" smooth="yes"/>
      <point x="113" y="518"/>
      <point x="202" y="465"/>
      <point x="202" y="396" type="curve" smooth="yes"/>
      <point x="202" y="-134" type="line" smooth="yes"/>
      <point x="202" y="-282"/>
      <point x="230" y="-335"/>
      <point x="629" y="-335" type="curve"/>
      <point x="646" y="-264" type="line"/>
      <point x="421" y="-159" type="line"/>
      <point x="421" y="356" type="line" smooth="yes"/>
      <point x="421" y="535"/>
      <point x="255" y="573"/>
      <point x="246" y="575" type="curve"/>
    </contour>
  </outline>
</glyph>
<glyph name="braceright" format="1">
  <advance width="662"/>
  <unicode hex="007D"/>
  <outline>
    <contour>
      <point x="407" y="576"/>
      <point x="241" y="537"/>
      <point x="241" y="360" type="curve" smooth="yes"/>
      <point x="241" y="-156" type="line"/>
      <point x="27" y="-264" type="line"/>
      <point x="14" y="-335" type="line"/>
      <point x="433" y="-335"/>
      <point x="459" y="-282"/>
      <point x="459" y="-134" type="curve" smooth="yes"/>
      <point x="459" y="390" type="line" smooth="yes"/>
      <point x="459" y="459"/>
      <point x="552" y="520"/>
      <point x="596" y="545" type="curve" smooth="yes"/>
      <point x="603" y="549"/>
      <point x="617" y="562"/>
      <point x="617" y="578" type="curve" smooth="yes"/>
      <point x="617" y="594"/>
      <point x="605" y="605"/>
      <point x="596" y="610" type="curve" smooth="yes"/>
      <point x="549" y="635"/>
      <point x="459" y="688"/>
      <point x="459" y="757" type="curve" smooth="yes"/>
      <point x="459" y="1287" type="line" smooth="yes"/>
      <point x="459" y="1435"/>
      <point x="431" y="1488"/>
      <point x="32" y="1488" type="curve"/>
      <point x="15" y="1416" type="line"/>
      <point x="241" y="1312" type="line"/>
      <point x="241" y="797" type="line" smooth="yes"/>
      <point x="241" y="618"/>
      <point x="407" y="580"/>
      <point x="416" y="578" type="curve"/>
    </contour>
  </outline>
</glyph>
<glyph name="asciitilde" format="1">
  <advance width="963"/>
  <unicode hex="007E"/>
  <outline>
    <contour>
      <point x="141" y="440" type="line"/>
      <point x="207" y="498"/>
      <point x="304" y="541"/>
      <point x="346" y="541" type="curve" smooth="yes"/>
      <point x="401" y="541"/>
      <point x="486" y="412"/>
      <point x="606" y="412" type="curve" smooth="yes"/>
      <point x="699" y="412"/>
      <point x="776" y="491"/>
      <point x="846" y="563" type="curve"/>
      <point x="821" y="708" type="line"/>
      <point x="754" y="655"/>
      <point x="658" y="609"/>
      <point x="617" y="609" type="curve" smooth="yes"/>
      <point x="562" y="609"/>
      <point x="477" y="738"/>
      <point x="356" y="738" type="curve" smooth="yes"/>
      <point x="264" y="738"/>
      <point x="187" y="660"/>
      <point x="116" y="585" type="curve"/>
    </contour>
  </outline>
</glyph>
<glyph name="exclamdown" format="1">
  <advance width="554"/>
  <unicode hex="00A1"/>
  <outline>
    <contour>
      <point x="362" y="777"/>
      <point x="406" y="827"/>
      <point x="435" y="879" type="curve"/>
      <point x="457" y="915"/>
      <point x="474" y="952"/>
      <point x="470" y="971" type="curve" smooth="yes"/>
      <point x="464" y="1001"/>
      <point x="407" y="1051"/>
      <point x="353" y="1081" type="curve" smooth="yes"/>
      <point x="320" y="1099"/>
      <point x="290" y="1112"/>
      <point x="271" y="1109" type="curve" smooth="yes"/>
      <point x="240" y="1103"/>
      <point x="198" y="1050"/>
      <point x="166" y="999" type="curve" smooth="yes"/>
      <point x="144" y="966"/>
      <point x="129" y="928"/>
      <point x="133" y="907" type="curve" smooth="yes"/>
      <point x="138" y="880"/>
      <point x="195" y="830"/>
      <point x="248" y="800" type="curve" smooth="yes"/>
      <point x="282" y="781"/>
      <point x="313" y="767"/>
      <point x="332" y="771" type="curve" smooth="yes"/>
    </contour>
    <contour>
      <point x="180" y="644" type="line"/>
      <point x="168" y="-300" type="line"/>
      <point x="459" y="-300" type="line"/>
      <point x="459" y="-63"/>
      <point x="454" y="351"/>
      <point x="435" y="593" type="curve"/>
    </contour>
  </outline>
</glyph>
<glyph name="cent" format="1">
  <advance width="1051"/>
  <unicode hex="00A2"/>
  <outline>
    <contour>
      <point x="935" y="183" type="line"/>
      <point x="903" y="170"/>
      <point x="750" y="136"/>
      <point x="668" y="136" type="curve" smooth="yes"/>
      <point x="646" y="136"/>
      <point x="625" y="138"/>
      <point x="605" y="141" type="curve"/>
      <point x="651" y="535" type="line"/>
      <point x="687" y="803" type="line"/>
      <point x="704" y="729" type="line"/>
      <point x="725" y="702"/>
      <point x="759" y="673"/>
      <point x="786" y="673" type="curve" smooth="yes"/>
      <point x="831" y="673"/>
      <point x="944" y="778"/>
      <point x="944" y="838" type="curve" smooth="yes"/>
      <point x="944" y="867"/>
      <point x="898" y="910"/>
      <point x="849" y="933" type="curve" smooth="yes"/>
      <point x="806" y="954"/>
      <point x="761" y="966"/>
      <point x="710" y="972" type="curve"/>
      <point x="733" y="1143" type="line"/>
      <point x="585" y="1122" type="line"/>
      <point x="567" y="971" type="line"/>
      <point x="290" y="942"/>
      <point x="74" y="750"/>
      <point x="74" y="454" type="curve" smooth="yes"/>
      <point x="74" y="215"/>
      <point x="215" y="40"/>
      <point x="447" y="-10" type="curve"/>
      <point x="425" y="-184" type="line"/>
      <point x="570" y="-164" type="line"/>
      <point x="586" y="-24" type="line"/>
      <point x="588" y="-24" type="line" smooth="yes"/>
      <point x="755" y="-24"/>
      <point x="891" y="62"/>
      <point x="961" y="151" type="curve"/>
    </contour>
    <contour>
      <point x="463" y="215" type="line"/>
      <point x="382" y="290"/>
      <point x="348" y="406"/>
      <point x="348" y="525" type="curve" smooth="yes"/>
      <point x="348" y="609"/>
      <point x="363" y="722"/>
      <point x="427" y="796" type="curve" smooth="yes"/>
      <point x="465" y="838"/>
      <point x="510" y="860"/>
      <point x="555" y="873" type="curve"/>
      <point x="512" y="512" type="line"/>
      <point x="473" y="204" type="line"/>
    </contour>
  </outline>
</glyph>
<glyph name="sterling" format="1">
  <advance width="1358"/>
  <unicode hex="00A3"/>
  <outline>
    <contour>
      <point x="1067" y="654" type="line"/>
      <point x="1077" y="739" type="line"/>
      <point x="639" y="739" type="line"/>
      <point x="667" y="931" type="line" smooth="yes"/>
      <point x="679" y="1013"/>
      <point x="708" y="1149"/>
      <point x="731" y="1173" type="curve"/>
      <point x="768" y="1219"/>
      <point x="837" y="1243"/>
      <point x="938" y="1243" type="curve" smooth="yes"/>
      <point x="963" y="1243"/>
      <point x="992" y="1240"/>
      <point x="1017" y="1227" type="curve"/>
      <point x="1120" y="1006" type="line"/>
      <point x="1244" y="1032" type="line"/>
      <point x="1213" y="1344" type="line"/>
      <point x="1092" y="1336" type="line"/>
      <point x="1071" y="1342"/>
      <point x="982" y="1365"/>
      <point x="903" y="1365" type="curve" smooth="yes"/>
      <point x="562" y="1365"/>
      <point x="393" y="1217"/>
      <point x="361" y="988" type="curve" smooth="yes"/>
      <point x="325" y="739" type="line"/>
      <point x="111" y="739" type="line"/>
      <point x="88" y="632" type="line"/>
      <point x="303" y="582" type="line"/>
      <point x="243" y="157" type="line"/>
      <point x="65" y="85" type="line"/>
      <point x="49" y="0" type="line"/>
      <point x="1191" y="0" type="line"/>
      <point x="1268" y="323" type="line"/>
      <point x="1157" y="340" type="line"/>
      <point x="1034" y="154" type="line"/>
      <point x="549" y="100" type="line"/>
      <point x="615" y="573" type="line"/>
    </contour>
  </outline>
</glyph>
<glyph name="currency" format="1">
  <advance width="1310"/>
  <unicode hex="00A4"/>
  <outline>
    <contour>
      <point x="93" y="259" type="line"/>
      <point x="226" y="124" type="line"/>
      <point x="357" y="259" type="line"/>
      <point x="438" y="194"/>
      <point x="544" y="157"/>
      <point x="655" y="157" type="curve" smooth="yes"/>
      <point x="768" y="157"/>
      <point x="869" y="195"/>
      <point x="950" y="260" type="curve"/>
      <point x="1075" y="121" type="line"/>
      <point x="1218" y="263" type="line"/>
      <point x="1070" y="406" type="line"/>
      <point x="1112" y="481"/>
      <point x="1135" y="567"/>
      <point x="1135" y="661" type="curve" smooth="yes"/>
      <point x="1135" y="754"/>
      <point x="1110" y="835"/>
      <point x="1067" y="905" type="curve"/>
      <point x="1214" y="1041" type="line"/>
      <point x="1080" y="1176" type="line"/>
      <point x="946" y="1035" type="line"/>
      <point x="869" y="1089"/>
      <point x="774" y="1120"/>
      <point x="677" y="1120" type="curve" smooth="yes"/>
      <point x="574" y="1120"/>
      <point x="481" y="1090"/>
      <point x="405" y="1038" type="curve"/>
      <point x="274" y="1177" type="line"/>
      <point x="133" y="1039" type="line"/>
      <point x="274" y="902" type="line"/>
      <point x="221" y="820"/>
      <point x="190" y="721"/>
      <point x="190" y="615" type="curve" smooth="yes"/>
      <point x="190" y="533"/>
      <point x="210" y="460"/>
      <point x="243" y="396" type="curve"/>
    </contour>
    <contour>
      <point x="541" y="403"/>
      <point x="443" y="531"/>
      <point x="443" y="668" type="curve" smooth="yes"/>
      <point x="443" y="777"/>
      <point x="524" y="877"/>
      <point x="635" y="877" type="curve" smooth="yes"/>
      <point x="779" y="877"/>
      <point x="879" y="756"/>
      <point x="879" y="610" type="curve" smooth="yes"/>
      <point x="879" y="497"/>
      <point x="798" y="403"/>
      <point x="690" y="403" type="curve" smooth="yes"/>
    </contour>
  </outline>
</glyph>
<glyph name="yen" format="1">
  <advance width="1427"/>
  <unicode hex="00A5"/>
  <outline>
    <contour>
      <point x="1362" y="1310" type="line"/>
      <point x="866" y="1310" type="line"/>
      <point x="849" y="1230" type="line"/>
      <point x="1028" y="1157" type="line"/>
      <point x="775" y="635" type="line"/>
      <point x="495" y="1158" type="line"/>
      <point x="644" y="1224" type="line"/>
      <point x="659" y="1310" type="line"/>
      <point x="82" y="1310" type="line"/>
      <point x="64" y="1216" type="line"/>
      <point x="203" y="1159" type="line"/>
      <point x="509" y="627" type="line"/>
      <point x="321" y="627" type="line"/>
      <point x="295" y="497" type="line"/>
      <point x="572" y="506" type="line"/>
      <point x="572" y="408" type="line"/>
      <point x="321" y="408" type="line"/>
      <point x="295" y="278" type="line"/>
      <point x="572" y="287" type="line"/>
      <point x="572" y="151" type="line"/>
      <point x="398" y="84" type="line"/>
      <point x="381" y="0" type="line"/>
      <point x="1029" y="0" type="line"/>
      <point x="1047" y="83" type="line"/>
      <point x="844" y="151" type="line"/>
      <point x="844" y="296" type="line"/>
      <point x="1116" y="305" type="line"/>
      <point x="1131" y="408" type="line"/>
      <point x="844" y="408" type="line"/>
      <point x="844" y="515" type="line"/>
      <point x="1115" y="524" type="line"/>
      <point x="1130" y="627" type="line"/>
      <point x="905" y="627" type="line"/>
      <point x="1207" y="1160" type="line"/>
      <point x="1340" y="1214" type="line"/>
    </contour>
  </outline>
</glyph>
<glyph name="brokenbar" format="1">
  <advance width="543"/>
  <unicode hex="00A6"/>
  <outline>
    <contour>
      <point x="170" y="650" type="line"/>
      <point x="373" y="703" type="line"/>
      <point x="373" y="1472" type="line"/>
      <point x="170" y="1418" type="line"/>
    </contour>
    <contour>
      <point x="170" y="-500" type="line"/>
      <point x="373" y="-447" type="line"/>
      <point x="373" y="322" type="line"/>
      <point x="170" y="268" type="line"/>
    </contour>
  </outline>
</glyph>
<glyph name="section" format="1">
  <advance width="1054"/>
  <unicode hex="00A7"/>
  <outline>
    <contour>
      <point x="640" y="505" type="line"/>
      <point x="804" y="506"/>
      <point x="959" y="620"/>
      <point x="959" y="783" type="curve" smooth="yes"/>
      <point x="959" y="935"/>
      <point x="887" y="1024"/>
      <point x="643" y="1129" type="curve" smooth="yes"/>
      <point x="503" y="1189"/>
      <point x="372" y="1233"/>
      <point x="372" y="1302" type="curve" smooth="yes"/>
      <point x="372" y="1325"/>
      <point x="378" y="1347"/>
      <point x="389" y="1360" type="curve" smooth="yes"/>
      <point x="430" y="1409"/>
      <point x="531" y="1452"/>
      <point x="676" y="1452" type="curve"/>
      <point x="706" y="1279" type="line"/>
      <point x="725" y="1257"/>
      <point x="769" y="1223"/>
      <point x="799" y="1223" type="curve" smooth="yes"/>
      <point x="841" y="1223"/>
      <point x="956" y="1330"/>
      <point x="956" y="1402" type="curve" smooth="yes"/>
      <point x="956" y="1481"/>
      <point x="746" y="1577"/>
      <point x="553" y="1577" type="curve" smooth="yes"/>
      <point x="298" y="1577"/>
      <point x="96" y="1444"/>
      <point x="96" y="1244" type="curve" smooth="yes"/>
      <point x="96" y="1088"/>
      <point x="213" y="998"/>
      <point x="400" y="929" type="curve" smooth="yes"/>
      <point x="586" y="860"/>
      <point x="709" y="809"/>
      <point x="709" y="706" type="curve" smooth="yes"/>
      <point x="709" y="669"/>
      <point x="690" y="636"/>
      <point x="656" y="608" type="curve"/>
    </contour>
    <contour>
      <point x="416" y="887" type="line"/>
      <point x="250" y="887"/>
      <point x="96" y="771"/>
      <point x="96" y="609" type="curve" smooth="yes"/>
      <point x="96" y="456"/>
      <point x="167" y="368"/>
      <point x="412" y="263" type="curve" smooth="yes"/>
      <point x="551" y="203"/>
      <point x="682" y="159"/>
      <point x="682" y="90" type="curve" smooth="yes"/>
      <point x="682" y="67"/>
      <point x="676" y="45"/>
      <point x="665" y="32" type="curve" smooth="yes"/>
      <point x="624" y="-17"/>
      <point x="523" y="-60"/>
      <point x="378" y="-60" type="curve"/>
      <point x="348" y="112" type="line"/>
      <point x="329" y="135"/>
      <point x="285" y="168"/>
      <point x="255" y="168" type="curve" smooth="yes"/>
      <point x="213" y="168"/>
      <point x="99" y="61"/>
      <point x="99" y="-10" type="curve" smooth="yes"/>
      <point x="99" y="-89"/>
      <point x="308" y="-185"/>
      <point x="501" y="-185" type="curve" smooth="yes"/>
      <point x="756" y="-185"/>
      <point x="959" y="-52"/>
      <point x="959" y="148" type="curve" smooth="yes"/>
      <point x="959" y="304"/>
      <point x="840" y="394"/>
      <point x="655" y="463" type="curve" smooth="yes"/>
      <point x="468" y="532"/>
      <point x="345" y="583"/>
      <point x="345" y="685" type="curve" smooth="yes"/>
      <point x="345" y="723"/>
      <point x="364" y="754"/>
      <point x="398" y="783" type="curve"/>
    </contour>
  </outline>
</glyph>
<glyph name="dieresis" format="1">
  <advance width="1024"/>
  <unicode hex="00A8"/>
  <outline>
    <contour>
      <point x="136" y="1201"/>
      <point x="278" y="1105"/>
      <point x="321" y="1113" type="curve" smooth="yes"/>
      <point x="370" y="1122"/>
      <point x="455" y="1261"/>
      <point x="446" y="1308" type="curve" smooth="yes"/>
      <point x="436" y="1354"/>
      <point x="309" y="1453"/>
      <point x="265" y="1444" type="curve" smooth="yes"/>
      <point x="215" y="1434"/>
      <point x="120" y="1296"/>
      <point x="128" y="1249" type="curve" smooth="yes"/>
    </contour>
    <contour>
      <point x="587" y="1203"/>
      <point x="711" y="1105"/>
      <point x="757" y="1113" type="curve" smooth="yes"/>
      <point x="810" y="1122"/>
      <point x="904" y="1262"/>
      <point x="895" y="1308" type="curve" smooth="yes"/>
      <point x="885" y="1356"/>
      <point x="745" y="1453"/>
      <point x="702" y="1444" type="curve" smooth="yes"/>
      <point x="654" y="1434"/>
      <point x="569" y="1298"/>
      <point x="577" y="1249" type="curve"/>
    </contour>
  </outline>
</glyph>
<glyph name="copyright" format="1">
  <advance width="1364"/>
  <unicode hex="00A9"/>
  <outline>
    <contour>
      <point x="95" y="187"/>
      <point x="304" y="-35"/>
      <point x="654" y="-35" type="curve" smooth="yes"/>
      <point x="1030" y="-35"/>
      <point x="1270" y="216"/>
      <point x="1270" y="589" type="curve" smooth="yes"/>
      <point x="1270" y="992"/>
      <point x="1020" y="1180"/>
      <point x="718" y="1180" type="curve" smooth="yes"/>
      <point x="333" y="1180"/>
      <point x="95" y="928"/>
      <point x="95" y="552" type="curve" smooth="yes"/>
    </contour>
    <contour>
      <point x="272" y="842"/>
      <point x="443" y="1027"/>
      <point x="666" y="1027" type="curve" smooth="yes"/>
      <point x="942" y="1027"/>
      <point x="1094" y="833"/>
      <point x="1094" y="545" type="curve" smooth="yes"/>
      <point x="1094" y="303"/>
      <point x="920" y="118"/>
      <point x="704" y="118" type="curve" smooth="yes"/>
      <point x="424" y="118"/>
      <point x="270" y="311"/>
      <point x="270" y="601" type="curve" smooth="yes"/>
    </contour>
    <contour>
      <point x="383" y="370"/>
      <point x="501" y="237"/>
      <point x="682" y="237" type="curve" smooth="yes"/>
      <point x="791" y="237"/>
      <point x="875" y="292"/>
      <point x="942" y="362" type="curve"/>
      <point x="910" y="429" type="line"/>
      <point x="879" y="416"/>
      <point x="752" y="376"/>
      <point x="715" y="376" type="curve" smooth="yes"/>
      <point x="680" y="376"/>
      <point x="636" y="392"/>
      <point x="603" y="439" type="curve" smooth="yes"/>
      <point x="572" y="481"/>
      <point x="557" y="540"/>
      <point x="557" y="592" type="curve" smooth="yes"/>
      <point x="557" y="643"/>
      <point x="561" y="715"/>
      <point x="593" y="746" type="curve" smooth="yes"/>
      <point x="611" y="764"/>
      <point x="647" y="774"/>
      <point x="683" y="774" type="curve" smooth="yes"/>
      <point x="713" y="774"/>
      <point x="749" y="769"/>
      <point x="778" y="759" type="curve"/>
      <point x="827" y="657" type="line"/>
      <point x="908" y="679" type="line"/>
      <point x="883" y="904" type="line"/>
      <point x="819" y="894" type="line"/>
      <point x="799" y="898"/>
      <point x="749" y="908"/>
      <point x="708" y="908" type="curve" smooth="yes"/>
      <point x="496" y="908"/>
      <point x="383" y="756"/>
      <point x="383" y="555" type="curve" smooth="yes"/>
    </contour>
  </outline>
</glyph>
<glyph name="ordfeminine" format="1">
  <advance width="1079"/>
  <unicode hex="00AA"/>
  <outline>
    <contour>
      <point x="497" y="615"/>
      <point x="609" y="691"/>
      <point x="642" y="741" type="curve"/>
      <point x="678" y="717"/>
      <point x="711" y="659"/>
      <point x="734" y="614" type="curve"/>
      <point x="815" y="614"/>
      <point x="912" y="643"/>
      <point x="958" y="665" type="curve"/>
      <point x="972" y="717" type="line"/>
      <point x="901" y="730"/>
      <point x="862" y="753"/>
      <point x="840" y="790" type="curve"/>
      <point x="840" y="1191" type="line" smooth="yes"/>
      <point x="840" y="1321"/>
      <point x="773" y="1419"/>
      <point x="581" y="1419" type="curve" smooth="yes"/>
      <point x="478" y="1419"/>
      <point x="376" y="1405"/>
      <point x="274" y="1368" type="curve"/>
      <point x="223" y="1352"/>
      <point x="162" y="1319"/>
      <point x="162" y="1292" type="curve" smooth="yes"/>
      <point x="162" y="1248"/>
      <point x="266" y="1148"/>
      <point x="309" y="1148" type="curve" smooth="yes"/>
      <point x="335" y="1148"/>
      <point x="378" y="1182"/>
      <point x="403" y="1204" type="curve"/>
      <point x="423" y="1329" type="line"/>
      <point x="433" y="1333"/>
      <point x="446" y="1334"/>
      <point x="458" y="1334" type="curve" smooth="yes"/>
      <point x="492" y="1334"/>
      <point x="530" y="1330"/>
      <point x="552" y="1313" type="curve"/>
      <point x="603" y="1278"/>
      <point x="613" y="1193"/>
      <point x="613" y="1069" type="curve"/>
      <point x="605" y="1073"/>
      <point x="561" y="1078"/>
      <point x="541" y="1078" type="curve" smooth="yes"/>
      <point x="482" y="1078"/>
      <point x="344" y="1074"/>
      <point x="265" y="1043" type="curve"/>
      <point x="179" y="1004"/>
      <point x="136" y="950"/>
      <point x="136" y="840" type="curve" smooth="yes"/>
      <point x="136" y="743"/>
      <point x="206" y="615"/>
      <point x="375" y="615" type="curve" smooth="yes"/>
    </contour>
    <contour>
      <point x="400" y="781"/>
      <point x="375" y="844"/>
      <point x="375" y="891" type="curve" smooth="yes"/>
      <point x="375" y="912"/>
      <point x="377" y="929"/>
      <point x="388" y="941" type="curve" smooth="yes"/>
      <point x="404" y="958"/>
      <point x="470" y="984"/>
      <point x="613" y="997" type="curve"/>
      <point x="613" y="790" type="line"/>
      <point x="579" y="775"/>
      <point x="500" y="759"/>
      <point x="448" y="759" type="curve" smooth="yes"/>
      <point x="442" y="759"/>
      <point x="432" y="760"/>
      <point x="427" y="764" type="curve"/>
    </contour>
    <contour>
      <point x="164" y="506" type="line"/>
      <point x="135" y="347" type="line"/>
      <point x="325" y="347"/>
      <point x="677" y="353"/>
      <point x="948" y="369" type="curve"/>
      <point x="978" y="506" type="line"/>
    </contour>
  </outline>
</glyph>
<glyph name="guillemotleft" format="1">
  <advance width="1012"/>
  <unicode hex="00AB"/>
  <outline>
    <contour>
      <point x="454" y="635"/>
      <point x="554" y="775"/>
      <point x="594" y="866" type="curve"/>
      <point x="487" y="944" type="line"/>
      <point x="36" y="461" type="line"/>
      <point x="489" y="-21" type="line"/>
      <point x="595" y="57" type="line"/>
      <point x="551" y="150"/>
      <point x="450" y="295"/>
      <point x="319" y="461" type="curve"/>
    </contour>
    <contour>
      <point x="831" y="573"/>
      <point x="901" y="679"/>
      <point x="934" y="752" type="curve"/>
      <point x="827" y="829" type="line"/>
      <point x="488" y="461" type="line"/>
      <point x="828" y="92" type="line"/>
      <point x="936" y="172" type="line"/>
      <point x="898" y="243"/>
      <point x="838" y="347"/>
      <point x="755" y="461" type="curve"/>
    </contour>
  </outline>
</glyph>
<glyph name="logicalnot" format="1">
  <advance width="1024"/>
  <unicode hex="00AC"/>
  <outline>
    <contour>
      <point x="132" y="660" type="line"/>
      <point x="107" y="465" type="line"/>
      <point x="695" y="472" type="line"/>
      <point x="707" y="162" type="line"/>
      <point x="877" y="140" type="line"/>
      <point x="877" y="660" type="line"/>
    </contour>
  </outline>
</glyph>
<glyph name="softhyphen" format="1">
  <advance width="907"/>
  <unicode hex="00AD"/>
  <outline>
    <contour>
      <point x="178" y="631" type="line"/>
      <point x="136" y="432" type="line"/>
      <point x="275" y="432"/>
      <point x="614" y="448"/>
      <point x="759" y="465" type="curve"/>
      <point x="790" y="631" type="line"/>
    </contour>
  </outline>
</glyph>
<glyph name="registered" format="1">
  <advance width="1191"/>
  <unicode hex="00AE"/>
  <outline>
    <contour>
      <point x="907" y="541"/>
      <point x="1107" y="773"/>
      <point x="1107" y="1083" type="curve" smooth="yes"/>
      <point x="1107" y="1406"/>
      <point x="873" y="1595"/>
      <point x="619" y="1595" type="curve" smooth="yes"/>
      <point x="282" y="1595"/>
      <point x="84" y="1358"/>
      <point x="84" y="1049" type="curve" smooth="yes"/>
      <point x="84" y="748"/>
      <point x="296" y="541"/>
      <point x="578" y="541" type="curve" smooth="yes"/>
    </contour>
    <contour>
      <point x="232" y="1292"/>
      <point x="375" y="1466"/>
      <point x="568" y="1466" type="curve" smooth="yes"/>
      <point x="804" y="1466"/>
      <point x="954" y="1299"/>
      <point x="954" y="1038" type="curve" smooth="yes"/>
      <point x="954" y="834"/>
      <point x="810" y="671"/>
      <point x="625" y="671" type="curve" smooth="yes"/>
      <point x="378" y="671"/>
      <point x="231" y="851"/>
      <point x="231" y="1099" type="curve" smooth="yes"/>
    </contour>
    <contour>
      <point x="369" y="877" type="line"/>
      <point x="355" y="810" type="line"/>
      <point x="591" y="810" type="line"/>
      <point x="610" y="868" type="line"/>
      <point x="551" y="893" type="line"/>
      <point x="551" y="1271" type="line"/>
      <point x="603" y="1263"/>
      <point x="680" y="1247"/>
      <point x="680" y="1177" type="curve" smooth="yes"/>
      <point x="680" y="1124"/>
      <point x="651" y="1092"/>
      <point x="582" y="1069" type="curve"/>
      <point x="671" y="851" type="line"/>
      <point x="663" y="810" type="line"/>
      <point x="850" y="810" type="line"/>
      <point x="863" y="857" type="line"/>
      <point x="792" y="899" type="line"/>
      <point x="718" y="1055" type="line"/>
      <point x="801" y="1089"/>
      <point x="826" y="1129"/>
      <point x="826" y="1198" type="curve" smooth="yes"/>
      <point x="826" y="1262"/>
      <point x="785" y="1303"/>
      <point x="730" y="1322" type="curve" smooth="yes"/>
      <point x="669" y="1345"/>
      <point x="588" y="1348"/>
      <point x="523" y="1348" type="curve" smooth="yes"/>
      <point x="367" y="1348" type="line"/>
      <point x="350" y="1280" type="line"/>
      <point x="419" y="1252" type="line"/>
      <point x="419" y="903" type="line"/>
    </contour>
  </outline>
</glyph>
<glyph name="macron" format="1">
  <advance width="1024"/>
  <unicode hex="00AF"/>
  <outline>
    <contour>
      <point x="244" y="1316" type="line"/>
      <point x="209" y="1136" type="line"/>
      <point x="391" y="1135"/>
      <point x="603" y="1139"/>
      <point x="784" y="1148" type="curve"/>
      <point x="817" y="1316" type="line"/>
    </contour>
  </outline>
</glyph>
<glyph name="degree" format="1">
  <advance width="810"/>
  <unicode hex="00B0"/>
  <outline>
    <contour>
      <point x="593" y="861"/>
      <point x="727" y="995"/>
      <point x="727" y="1181" type="curve" smooth="yes"/>
      <point x="727" y="1361"/>
      <point x="576" y="1477"/>
      <point x="415" y="1477" type="curve" smooth="yes"/>
      <point x="213" y="1477"/>
      <point x="83" y="1338"/>
      <point x="83" y="1154" type="curve" smooth="yes"/>
      <point x="83" y="975"/>
      <point x="229" y="861"/>
      <point x="401" y="861" type="curve" smooth="yes"/>
    </contour>
    <contour>
      <point x="319" y="1030"/>
      <point x="273" y="1105"/>
      <point x="273" y="1184" type="curve" smooth="yes"/>
      <point x="273" y="1252"/>
      <point x="319" y="1312"/>
      <point x="389" y="1312" type="curve" smooth="yes"/>
      <point x="481" y="1312"/>
      <point x="534" y="1238"/>
      <point x="534" y="1153" type="curve" smooth="yes"/>
      <point x="534" y="1084"/>
      <point x="489" y="1030"/>
      <point x="418" y="1030" type="curve" smooth="yes"/>
    </contour>
  </outline>
</glyph>
<glyph name="plusminus" format="1">
  <advance width="1024"/>
  <unicode hex="00B1"/>
  <outline>
    <contour>
      <point x="408" y="520" type="line"/>
      <point x="408" y="262" type="line"/>
      <point x="601" y="282" type="line"/>
      <point x="601" y="524" type="line"/>
      <point x="877" y="540" type="line"/>
      <point x="897" y="713" type="line"/>
      <point x="601" y="713" type="line"/>
      <point x="601" y="948" type="line"/>
      <point x="408" y="925" type="line"/>
      <point x="408" y="713" type="line"/>
      <point x="146" y="713" type="line"/>
      <point x="120" y="519" type="line"/>
    </contour>
    <contour>
      <point x="150" y="167" type="line"/>
      <point x="124" y="-27" type="line"/>
      <point x="381" y="-25"/>
      <point x="633" y="-19"/>
      <point x="877" y="-4" type="curve"/>
      <point x="898" y="167" type="line"/>
    </contour>
  </outline>
</glyph>
<glyph name="twosuperior" format="1">
  <advance width="729"/>
  <unicode hex="00B2"/>
  <outline>
    <contour>
      <point x="477" y="1175"/>
      <point x="637" y="1333"/>
      <point x="637" y="1478" type="curve" smooth="yes"/>
      <point x="637" y="1613"/>
      <point x="532" y="1699"/>
      <point x="343" y="1699" type="curve" smooth="yes"/>
      <point x="247" y="1699"/>
      <point x="151" y="1678"/>
      <point x="59" y="1629" type="curve"/>
      <point x="107" y="1519" type="line"/>
      <point x="174" y="1539"/>
      <point x="233" y="1549"/>
      <point x="279" y="1549" type="curve" smooth="yes"/>
      <point x="372" y="1549"/>
      <point x="403" y="1503"/>
      <point x="403" y="1454" type="curve" smooth="yes"/>
      <point x="403" y="1405"/>
      <point x="372" y="1347"/>
      <point x="308" y="1270" type="curve" smooth="yes"/>
      <point x="268" y="1221"/>
      <point x="66" y="989"/>
      <point x="35" y="957" type="curve"/>
      <point x="63" y="886" type="line"/>
      <point x="695" y="886" type="line"/>
      <point x="661" y="1050" type="line"/>
      <point x="535" y="1043"/>
      <point x="414" y="1031"/>
      <point x="302" y="1012" type="curve"/>
    </contour>
  </outline>
</glyph>
<glyph name="threesuperior" format="1">
  <advance width="677"/>
  <unicode hex="00B3"/>
  <outline>
    <contour>
      <point x="80" y="827" type="line"/>
      <point x="318" y="827"/>
      <point x="614" y="901"/>
      <point x="614" y="1147" type="curve" smooth="yes"/>
      <point x="614" y="1250"/>
      <point x="540" y="1328"/>
      <point x="417" y="1342" type="curve"/>
      <point x="633" y="1607" type="line"/>
      <point x="609" y="1685" type="line"/>
      <point x="35" y="1685" type="line"/>
      <point x="68" y="1543" type="line"/>
      <point x="147" y="1543"/>
      <point x="303" y="1555"/>
      <point x="433" y="1569" type="curve"/>
      <point x="183" y="1343" type="line"/>
      <point x="170" y="1269" type="line"/>
      <point x="279" y="1268"/>
      <point x="387" y="1245"/>
      <point x="387" y="1137" type="curve" smooth="yes"/>
      <point x="387" y="998"/>
      <point x="204" y="951"/>
      <point x="50" y="921" type="curve"/>
    </contour>
  </outline>
</glyph>
<glyph name="acute" format="1">
  <advance width="1024"/>
  <unicode hex="00B4"/>
  <outline>
    <contour>
      <point x="614" y="1463" type="line"/>
      <point x="327" y="1195" type="line"/>
      <point x="354" y="1049" type="line"/>
      <point x="775" y="1285" type="line"/>
      <point x="740" y="1463" type="line"/>
    </contour>
  </outline>
</glyph>
<glyph name="uni00B5" format="1">
  <advance width="1349"/>
  <unicode hex="00B5"/>
  <outline>
    <contour>
      <point x="1101" y="975" type="line"/>
      <point x="818" y="933" type="line"/>
      <point x="818" y="258" type="line"/>
      <point x="818" y="242" type="line"/>
      <point x="766" y="192"/>
      <point x="699" y="171"/>
      <point x="638" y="171" type="curve" smooth="yes"/>
      <point x="497" y="171"/>
      <point x="444" y="289"/>
      <point x="444" y="436" type="curve" smooth="yes"/>
      <point x="444" y="975" type="line"/>
      <point x="164" y="933" type="line"/>
      <point x="164" y="-500" type="line"/>
      <point x="444" y="-458" type="line"/>
      <point x="423" y="28" type="line"/>
      <point x="469" y="-14"/>
      <point x="527" y="-31"/>
      <point x="586" y="-31" type="curve" smooth="yes"/>
      <point x="676" y="-31"/>
      <point x="777" y="25"/>
      <point x="823" y="108" type="curve"/>
      <point x="835" y="12"/>
      <point x="870" y="-28"/>
      <point x="974" y="-28" type="curve" smooth="yes"/>
      <point x="1041" y="-28"/>
      <point x="1149" y="-7"/>
      <point x="1299" y="35" type="curve"/>
      <point x="1308" y="103" type="line"/>
      <point x="1144" y="103"/>
      <point x="1101" y="118"/>
      <point x="1101" y="207" type="curve" smooth="yes"/>
    </contour>
  </outline>
</glyph>
<glyph name="paragraph" format="1">
  <advance width="1545"/>
  <unicode hex="00B6"/>
  <outline>
    <contour>
      <point x="547" y="-35" type="line"/>
      <point x="828" y="22" type="line"/>
      <point x="818" y="1225" type="line"/>
      <point x="1004" y="1225" type="line"/>
      <point x="994" y="-35" type="line"/>
      <point x="1276" y="22" type="line"/>
      <point x="1276" y="1229" type="line"/>
      <point x="1455" y="1300" type="line"/>
      <point x="1471" y="1384" type="line"/>
      <point x="649" y="1384" type="line" smooth="yes"/>
      <point x="438" y="1384"/>
      <point x="301" y="1353"/>
      <point x="213" y="1285" type="curve" smooth="yes"/>
      <point x="127" y="1219"/>
      <point x="87" y="1128"/>
      <point x="87" y="997" type="curve" smooth="yes"/>
      <point x="87" y="883"/>
      <point x="126" y="799"/>
      <point x="209" y="728" type="curve" smooth="yes"/>
      <point x="292" y="658"/>
      <point x="403" y="622"/>
      <point x="559" y="616" type="curve"/>
    </contour>
  </outline>
</glyph>
<glyph name="periodcentered" format="1">
  <advance width="592"/>
  <unicode hex="00B7"/>
  <outline>
    <contour>
      <point x="375" y="385"/>
      <point x="486" y="536"/>
      <point x="476" y="590" type="curve" smooth="yes"/>
      <point x="467" y="636"/>
      <point x="323" y="749"/>
      <point x="265" y="738" type="curve" smooth="yes"/>
      <point x="213" y="730"/>
      <point x="104" y="578"/>
      <point x="114" y="526" type="curve" smooth="yes"/>
      <point x="124" y="475"/>
      <point x="273" y="369"/>
      <point x="325" y="377" type="curve" smooth="yes"/>
    </contour>
  </outline>
</glyph>
<glyph name="cedilla" format="1">
  <advance width="1024"/>
  <unicode hex="00B8"/>
  <outline>
    <contour>
      <point x="558" y="8" type="line"/>
      <point x="451" y="8" type="line"/>
      <point x="414" y="-26"/>
      <point x="344" y="-129"/>
      <point x="340" y="-178" type="curve"/>
      <point x="451" y="-198"/>
      <point x="529" y="-224"/>
      <point x="529" y="-270" type="curve" smooth="yes"/>
      <point x="529" y="-297"/>
      <point x="510" y="-344"/>
      <point x="307" y="-416" type="curve"/>
      <point x="332" y="-489" type="line"/>
      <point x="469" y="-489"/>
      <point x="713" y="-428"/>
      <point x="713" y="-262" type="curve" smooth="yes"/>
      <point x="713" y="-161"/>
      <point x="649" y="-108"/>
      <point x="520" y="-84" type="curve"/>
    </contour>
  </outline>
</glyph>
<glyph name="onesuperior" format="1">
  <advance width="612"/>
  <unicode hex="00B9"/>
  <outline>
    <contour>
      <point x="216" y="999" type="line"/>
      <point x="67" y="972" type="line"/>
      <point x="50" y="886" type="line"/>
      <point x="574" y="886" type="line"/>
      <point x="594" y="977" type="line"/>
      <point x="448" y="1003" type="line"/>
      <point x="448" y="1701" type="line"/>
      <point x="59" y="1634" type="line"/>
      <point x="43" y="1552" type="line"/>
      <point x="216" y="1552" type="line"/>
    </contour>
  </outline>
</glyph>
<glyph name="ordmasculine" format="1">
  <advance width="1015"/>
  <unicode hex="00BA"/>
  <outline>
    <contour>
      <point x="132" y="731"/>
      <point x="302" y="615"/>
      <point x="515" y="615" type="curve" smooth="yes"/>
      <point x="720" y="615"/>
      <point x="883" y="815"/>
      <point x="883" y="1040" type="curve" smooth="yes"/>
      <point x="883" y="1300"/>
      <point x="713" y="1419"/>
      <point x="510" y="1419" type="curve" smooth="yes"/>
      <point x="285" y="1419"/>
      <point x="132" y="1213"/>
      <point x="132" y="993" type="curve" smooth="yes"/>
    </contour>
    <contour>
      <point x="396" y="753"/>
      <point x="329" y="929"/>
      <point x="329" y="1081" type="curve" smooth="yes"/>
      <point x="329" y="1149"/>
      <point x="347" y="1231"/>
      <point x="375" y="1261" type="curve" smooth="yes"/>
      <point x="386" y="1273"/>
      <point x="410" y="1283"/>
      <point x="447" y="1283" type="curve" smooth="yes"/>
      <point x="598" y="1283"/>
      <point x="686" y="1136"/>
      <point x="686" y="953" type="curve" smooth="yes"/>
      <point x="686" y="902"/>
      <point x="672" y="807"/>
      <point x="641" y="776" type="curve" smooth="yes"/>
      <point x="624" y="759"/>
      <point x="593" y="753"/>
      <point x="567" y="753" type="curve" smooth="yes"/>
    </contour>
    <contour>
      <point x="164" y="506" type="line"/>
      <point x="135" y="347" type="line"/>
      <point x="325" y="347"/>
      <point x="590" y="353"/>
      <point x="860" y="369" type="curve"/>
      <point x="891" y="506" type="line"/>
    </contour>
  </outline>
</glyph>
<glyph name="guillemotright" format="1">
  <advance width="1012"/>
  <unicode hex="00BB"/>
  <outline>
    <contour>
      <point x="562" y="295"/>
      <point x="461" y="150"/>
      <point x="416" y="57" type="curve"/>
      <point x="523" y="-21" type="line"/>
      <point x="976" y="461" type="line"/>
      <point x="524" y="944" type="line"/>
      <point x="417" y="866" type="line"/>
      <point x="457" y="775"/>
      <point x="558" y="635"/>
      <point x="692" y="461" type="curve"/>
    </contour>
    <contour>
      <point x="174" y="347"/>
      <point x="113" y="243"/>
      <point x="76" y="172" type="curve"/>
      <point x="183" y="92" type="line"/>
      <point x="524" y="461" type="line"/>
      <point x="185" y="829" type="line"/>
      <point x="77" y="752" type="line"/>
      <point x="110" y="679"/>
      <point x="180" y="573"/>
      <point x="257" y="461" type="curve"/>
    </contour>
  </outline>
</glyph>
<glyph name="onequarter" format="1">
  <advance width="1744"/>
  <unicode hex="00BC"/>
  <outline>
    <contour>
      <point x="216" y="699" type="line"/>
      <point x="67" y="671" type="line"/>
      <point x="50" y="586" type="line"/>
      <point x="574" y="586" type="line"/>
      <point x="594" y="676" type="line"/>
      <point x="448" y="703" type="line"/>
      <point x="448" y="1401" type="line"/>
      <point x="59" y="1334" type="line"/>
      <point x="43" y="1252" type="line"/>
      <point x="216" y="1252" type="line"/>
    </contour>
    <contour>
      <point x="388" y="241" type="line"/>
      <point x="562" y="197" type="line"/>
      <point x="1285" y="1148" type="line"/>
      <point x="1103" y="1197" type="line"/>
    </contour>
    <contour>
      <point x="944" y="281" type="line"/>
      <point x="975" y="213" type="line"/>
      <point x="1341" y="213" type="line"/>
      <point x="1341" y="-66" type="line"/>
      <point x="1557" y="-30" type="line"/>
      <point x="1557" y="213" type="line"/>
      <point x="1643" y="213" type="line"/>
      <point x="1659" y="349" type="line"/>
      <point x="1553" y="346" type="line"/>
      <point x="1553" y="467" type="line"/>
      <point x="1352" y="430" type="line"/>
      <point x="1352" y="334" type="line"/>
      <point x="1175" y="326" type="line"/>
      <point x="1516" y="794" type="line"/>
      <point x="1288" y="830" type="line"/>
    </contour>
  </outline>
</glyph>
<glyph name="onehalf" format="1">
  <advance width="1728"/>
  <unicode hex="00BD"/>
  <outline>
    <contour>
      <point x="216" y="699" type="line"/>
      <point x="67" y="671" type="line"/>
      <point x="50" y="586" type="line"/>
      <point x="574" y="586" type="line"/>
      <point x="594" y="676" type="line"/>
      <point x="448" y="703" type="line"/>
      <point x="448" y="1401" type="line"/>
      <point x="59" y="1334" type="line"/>
      <point x="43" y="1252" type="line"/>
      <point x="216" y="1252" type="line"/>
    </contour>
    <contour>
      <point x="388" y="241" type="line"/>
      <point x="562" y="197" type="line"/>
      <point x="1285" y="1148" type="line"/>
      <point x="1103" y="1197" type="line"/>
    </contour>
    <contour>
      <point x="1481" y="289"/>
      <point x="1641" y="447"/>
      <point x="1641" y="592" type="curve" smooth="yes"/>
      <point x="1641" y="727"/>
      <point x="1536" y="813"/>
      <point x="1347" y="813" type="curve" smooth="yes"/>
      <point x="1252" y="813"/>
      <point x="1156" y="793"/>
      <point x="1064" y="743" type="curve"/>
      <point x="1111" y="633" type="line"/>
      <point x="1179" y="654"/>
      <point x="1238" y="664"/>
      <point x="1283" y="664" type="curve" smooth="yes"/>
      <point x="1376" y="664"/>
      <point x="1407" y="617"/>
      <point x="1407" y="568" type="curve" smooth="yes"/>
      <point x="1407" y="520"/>
      <point x="1376" y="461"/>
      <point x="1313" y="384" type="curve" smooth="yes"/>
      <point x="1273" y="336"/>
      <point x="1070" y="104"/>
      <point x="1040" y="71" type="curve"/>
      <point x="1067" y="1" type="line"/>
      <point x="1699" y="1" type="line"/>
      <point x="1665" y="165" type="line"/>
      <point x="1539" y="157"/>
      <point x="1418" y="145"/>
      <point x="1306" y="126" type="curve"/>
    </contour>
  </outline>
</glyph>
<glyph name="threequarters" format="1">
  <advance width="1809"/>
  <unicode hex="00BE"/>
  <outline>
    <contour>
      <point x="80" y="527" type="line"/>
      <point x="318" y="527"/>
      <point x="614" y="600"/>
      <point x="614" y="847" type="curve" smooth="yes"/>
      <point x="614" y="949"/>
      <point x="540" y="1028"/>
      <point x="417" y="1041" type="curve"/>
      <point x="633" y="1307" type="line"/>
      <point x="609" y="1385" type="line"/>
      <point x="35" y="1385" type="line"/>
      <point x="68" y="1243" type="line"/>
      <point x="147" y="1243"/>
      <point x="303" y="1255"/>
      <point x="433" y="1268" type="curve"/>
      <point x="183" y="1043" type="line"/>
      <point x="170" y="969" type="line"/>
      <point x="279" y="967"/>
      <point x="387" y="944"/>
      <point x="387" y="836" type="curve" smooth="yes"/>
      <point x="387" y="698"/>
      <point x="204" y="651"/>
      <point x="50" y="621" type="curve"/>
    </contour>
    <contour>
      <point x="381" y="241" type="line"/>
      <point x="555" y="197" type="line"/>
      <point x="1278" y="1148" type="line"/>
      <point x="1096" y="1197" type="line"/>
    </contour>
    <contour>
      <point x="936" y="281" type="line"/>
      <point x="967" y="213" type="line"/>
      <point x="1334" y="213" type="line"/>
      <point x="1334" y="-66" type="line"/>
      <point x="1550" y="-30" type="line"/>
      <point x="1550" y="213" type="line"/>
      <point x="1635" y="213" type="line"/>
      <point x="1652" y="349" type="line"/>
      <point x="1546" y="346" type="line"/>
      <point x="1546" y="467" type="line"/>
      <point x="1344" y="430" type="line"/>
      <point x="1344" y="334" type="line"/>
      <point x="1167" y="326" type="line"/>
      <point x="1509" y="794" type="line"/>
      <point x="1281" y="830" type="line"/>
    </contour>
  </outline>
</glyph>
<glyph name="questiondown" format="1">
  <advance width="986"/>
  <unicode hex="00BF"/>
  <outline>
    <contour>
      <point x="492" y="1121"/>
      <point x="381" y="970"/>
      <point x="391" y="916" type="curve" smooth="yes"/>
      <point x="399" y="870"/>
      <point x="544" y="757"/>
      <point x="602" y="768" type="curve" smooth="yes"/>
      <point x="654" y="776"/>
      <point x="763" y="928"/>
      <point x="753" y="980" type="curve" smooth="yes"/>
      <point x="743" y="1031"/>
      <point x="594" y="1137"/>
      <point x="542" y="1129" type="curve" smooth="yes"/>
    </contour>
    <contour>
      <point x="694" y="603" type="line"/>
      <point x="460" y="649" type="line"/>
      <point x="445" y="596"/>
      <point x="411" y="470"/>
      <point x="403" y="431" type="curve"/>
      <point x="165" y="339"/>
      <point x="54" y="223"/>
      <point x="54" y="35" type="curve" smooth="yes"/>
      <point x="54" y="-232"/>
      <point x="362" y="-325"/>
      <point x="595" y="-325" type="curve" smooth="yes"/>
      <point x="737" y="-325"/>
      <point x="903" y="-266"/>
      <point x="903" y="-186" type="curve" smooth="yes"/>
      <point x="903" y="-126"/>
      <point x="785" y="-13"/>
      <point x="732" y="-13" type="curve" smooth="yes"/>
      <point x="700" y="-13"/>
      <point x="653" y="-47"/>
      <point x="631" y="-69" type="curve"/>
      <point x="592" y="-251" type="line"/>
      <point x="524" y="-247"/>
      <point x="361" y="-130"/>
      <point x="361" y="59" type="curve" smooth="yes"/>
      <point x="361" y="177"/>
      <point x="445" y="293"/>
      <point x="680" y="412" type="curve" smooth="yes"/>
      <point x="697" y="421"/>
      <point x="700" y="428"/>
      <point x="700" y="450" type="curve"/>
    </contour>
  </outline>
</glyph>
<glyph name="Agrave" format="1">
  <advance width="1432"/>
  <unicode hex="00C0"/>
  <outline>
    <contour>
      <point x="929" y="1488" type="line"/>
      <point x="951" y="1599" type="line"/>
      <point x="603" y="1801" type="line"/>
      <point x="473" y="1801" type="line"/>
      <point x="440" y="1637" type="line"/>
    </contour>
    <contour>
      <point x="1467" y="97" type="line"/>
      <point x="1309" y="149" type="line"/>
      <point x="819" y="1419" type="line"/>
      <point x="585" y="1384" type="line"/>
      <point x="139" y="156" type="line"/>
      <point x="-21" y="94" type="line"/>
      <point x="-39" y="0" type="line"/>
      <point x="485" y="0" type="line"/>
      <point x="501" y="81" type="line"/>
      <point x="316" y="151" type="line"/>
      <point x="316" y="151"/>
      <point x="353" y="258"/>
      <point x="403" y="403" type="curve"/>
      <point x="568" y="402"/>
      <point x="730" y="407"/>
      <point x="892" y="416" type="curve"/>
      <point x="982" y="149" type="line"/>
      <point x="823" y="84" type="line"/>
      <point x="807" y="0" type="line"/>
      <point x="1440" y="0" type="line"/>
    </contour>
    <contour>
      <point x="842" y="568" type="line"/>
      <point x="459" y="568" type="line"/>
      <point x="544" y="818"/>
      <point x="636" y="1099"/>
      <point x="645" y="1155" type="curve"/>
    </contour>
  </outline>
</glyph>
<glyph name="Acircumflex" format="1">
  <advance width="1432"/>
  <unicode hex="00C2"/>
  <outline>
    <contour>
      <point x="443" y="1486" type="line"/>
      <point x="697" y="1612" type="line"/>
      <point x="951" y="1486" type="line"/>
      <point x="1037" y="1560" type="line"/>
      <point x="756" y="1797" type="line"/>
      <point x="638" y="1797" type="line"/>
      <point x="358" y="1560" type="line"/>
    </contour>
    <contour>
      <point x="1467" y="97" type="line"/>
      <point x="1309" y="149" type="line"/>
      <point x="819" y="1419" type="line"/>
      <point x="585" y="1384" type="line"/>
      <point x="139" y="156" type="line"/>
      <point x="-21" y="94" type="line"/>
      <point x="-39" y="0" type="line"/>
      <point x="485" y="0" type="line"/>
      <point x="501" y="81" type="line"/>
      <point x="316" y="151" type="line"/>
      <point x="316" y="151"/>
      <point x="353" y="258"/>
      <point x="403" y="403" type="curve"/>
      <point x="568" y="402"/>
      <point x="730" y="407"/>
      <point x="892" y="416" type="curve"/>
      <point x="982" y="149" type="line"/>
      <point x="823" y="84" type="line"/>
      <point x="807" y="0" type="line"/>
      <point x="1440" y="0" type="line"/>
    </contour>
    <contour>
      <point x="842" y="568" type="line"/>
      <point x="459" y="568" type="line"/>
      <point x="544" y="818"/>
      <point x="636" y="1099"/>
      <point x="645" y="1155" type="curve"/>
    </contour>
  </outline>
</glyph>
<glyph name="Atilde" format="1">
  <advance width="1432"/>
  <unicode hex="00C3"/>
  <outline>
    <contour>
      <point x="617" y="1650"/>
      <point x="691" y="1515"/>
      <point x="818" y="1515" type="curve" smooth="yes"/>
      <point x="918" y="1515"/>
      <point x="992" y="1595"/>
      <point x="1064" y="1675" type="curve"/>
      <point x="1043" y="1809" type="line"/>
      <point x="965" y="1744"/>
      <point x="877" y="1696"/>
      <point x="834" y="1696" type="curve" smooth="yes"/>
      <point x="776" y="1696"/>
      <point x="700" y="1831"/>
      <point x="572" y="1831" type="curve" smooth="yes"/>
      <point x="474" y="1831"/>
      <point x="402" y="1754"/>
      <point x="327" y="1670" type="curve"/>
      <point x="352" y="1537" type="line"/>
      <point x="423" y="1603"/>
      <point x="515" y="1650"/>
      <point x="559" y="1650" type="curve" smooth="yes"/>
    </contour>
    <contour>
      <point x="1467" y="97" type="line"/>
      <point x="1309" y="149" type="line"/>
      <point x="819" y="1419" type="line"/>
      <point x="585" y="1384" type="line"/>
      <point x="139" y="156" type="line"/>
      <point x="-21" y="94" type="line"/>
      <point x="-39" y="0" type="line"/>
      <point x="485" y="0" type="line"/>
      <point x="501" y="81" type="line"/>
      <point x="316" y="151" type="line"/>
      <point x="316" y="151"/>
      <point x="353" y="258"/>
      <point x="403" y="403" type="curve"/>
      <point x="568" y="402"/>
      <point x="730" y="407"/>
      <point x="892" y="416" type="curve"/>
      <point x="982" y="149" type="line"/>
      <point x="823" y="84" type="line"/>
      <point x="807" y="0" type="line"/>
      <point x="1440" y="0" type="line"/>
    </contour>
    <contour>
      <point x="842" y="568" type="line"/>
      <point x="459" y="568" type="line"/>
      <point x="544" y="818"/>
      <point x="636" y="1099"/>
      <point x="645" y="1155" type="curve"/>
    </contour>
  </outline>
</glyph>
<glyph name="Adieresis" format="1">
  <advance width="1432"/>
  <unicode hex="00C4"/>
  <outline>
    <contour>
      <point x="532" y="1507"/>
      <point x="611" y="1628"/>
      <point x="605" y="1667" type="curve"/>
      <point x="596" y="1709"/>
      <point x="475" y="1790"/>
      <point x="438" y="1783" type="curve" smooth="yes"/>
      <point x="394" y="1775"/>
      <point x="314" y="1655"/>
      <point x="321" y="1616" type="curve" smooth="yes"/>
      <point x="329" y="1575"/>
      <point x="449" y="1492"/>
      <point x="487" y="1499" type="curve" smooth="yes"/>
    </contour>
    <contour>
      <point x="1000" y="1507"/>
      <point x="1079" y="1628"/>
      <point x="1072" y="1667" type="curve" smooth="yes"/>
      <point x="1064" y="1709"/>
      <point x="943" y="1790"/>
      <point x="906" y="1783" type="curve" smooth="yes"/>
      <point x="861" y="1775"/>
      <point x="782" y="1656"/>
      <point x="789" y="1616" type="curve" smooth="yes"/>
      <point x="797" y="1575"/>
      <point x="916" y="1493"/>
      <point x="955" y="1499" type="curve" smooth="yes"/>
    </contour>
    <contour>
      <point x="1467" y="97" type="line"/>
      <point x="1309" y="149" type="line"/>
      <point x="819" y="1419" type="line"/>
      <point x="585" y="1384" type="line"/>
      <point x="139" y="156" type="line"/>
      <point x="-21" y="94" type="line"/>
      <point x="-39" y="0" type="line"/>
      <point x="485" y="0" type="line"/>
      <point x="501" y="81" type="line"/>
      <point x="316" y="151" type="line"/>
      <point x="316" y="151"/>
      <point x="353" y="258"/>
      <point x="403" y="403" type="curve"/>
      <point x="568" y="402"/>
      <point x="730" y="407"/>
      <point x="892" y="416" type="curve"/>
      <point x="982" y="149" type="line"/>
      <point x="823" y="84" type="line"/>
      <point x="807" y="0" type="line"/>
      <point x="1440" y="0" type="line"/>
    </contour>
    <contour>
      <point x="842" y="568" type="line"/>
      <point x="459" y="568" type="line"/>
      <point x="544" y="818"/>
      <point x="636" y="1099"/>
      <point x="645" y="1155" type="curve"/>
    </contour>
  </outline>
</glyph>
<glyph name="Aring" format="1">
  <advance width="1432"/>
  <unicode hex="00C5"/>
  <outline>
    <contour>
      <point x="1467" y="97" type="line"/>
      <point x="1309" y="149" type="line"/>
      <point x="835" y="1377" type="line"/>
      <point x="873" y="1412"/>
      <point x="896" y="1463"/>
      <point x="896" y="1524" type="curve" smooth="yes"/>
      <point x="896" y="1634"/>
      <point x="801" y="1706"/>
      <point x="702" y="1706" type="curve" smooth="yes"/>
      <point x="576" y="1706"/>
      <point x="496" y="1620"/>
      <point x="496" y="1506" type="curve" smooth="yes"/>
      <point x="496" y="1440"/>
      <point x="528" y="1389"/>
      <point x="576" y="1358" type="curve"/>
      <point x="139" y="156" type="line"/>
      <point x="-21" y="94" type="line"/>
      <point x="-39" y="0" type="line"/>
      <point x="485" y="0" type="line"/>
      <point x="501" y="81" type="line"/>
      <point x="316" y="151" type="line"/>
      <point x="316" y="151"/>
      <point x="353" y="258"/>
      <point x="403" y="403" type="curve"/>
      <point x="568" y="402"/>
      <point x="730" y="407"/>
      <point x="892" y="416" type="curve"/>
      <point x="982" y="149" type="line"/>
      <point x="823" y="84" type="line"/>
      <point x="807" y="0" type="line"/>
      <point x="1440" y="0" type="line"/>
    </contour>
    <contour>
      <point x="738" y="1595"/>
      <point x="767" y="1554"/>
      <point x="767" y="1507" type="curve" smooth="yes"/>
      <point x="767" y="1468"/>
      <point x="743" y="1439"/>
      <point x="702" y="1439" type="curve" smooth="yes"/>
      <point x="648" y="1439"/>
      <point x="623" y="1481"/>
      <point x="623" y="1523" type="curve" smooth="yes"/>
      <point x="623" y="1561"/>
      <point x="648" y="1595"/>
      <point x="688" y="1595" type="curve" smooth="yes"/>
    </contour>
    <contour>
      <point x="842" y="568" type="line"/>
      <point x="459" y="568" type="line"/>
      <point x="544" y="818"/>
      <point x="636" y="1099"/>
      <point x="645" y="1155" type="curve"/>
    </contour>
  </outline>
</glyph>
<glyph name="AE" format="1">
  <advance width="1935"/>
  <unicode hex="00C6"/>
  <outline>
    <contour>
      <point x="886" y="156" type="line"/>
      <point x="709" y="88" type="line"/>
      <point x="694" y="0" type="line"/>
      <point x="1815" y="0" type="line"/>
      <point x="1895" y="343" type="line"/>
      <point x="1783" y="359" type="line"/>
      <point x="1661" y="165" type="line"/>
      <point x="1454" y="145"/>
      <point x="1211" y="107"/>
      <point x="1180" y="99" type="curve"/>
      <point x="1180" y="659" type="line"/>
      <point x="1252" y="642"/>
      <point x="1413" y="628"/>
      <point x="1428" y="628" type="curve"/>
      <point x="1472" y="468" type="line"/>
      <point x="1566" y="454" type="line"/>
      <point x="1583" y="923" type="line"/>
      <point x="1491" y="945" type="line"/>
      <point x="1429" y="775" type="line"/>
      <point x="1409" y="774"/>
      <point x="1253" y="758"/>
      <point x="1180" y="741" type="curve"/>
      <point x="1180" y="1296" type="line"/>
      <point x="1327" y="1271"/>
      <point x="1468" y="1251"/>
      <point x="1603" y="1234" type="curve"/>
      <point x="1699" y="1022" type="line"/>
      <point x="1822" y="1046" type="line"/>
      <point x="1784" y="1397" type="line"/>
      <point x="1645" y="1384" type="line"/>
      <point x="564" y="1384" type="line"/>
      <point x="546" y="1303" type="line"/>
      <point x="697" y="1247" type="line"/>
      <point x="125" y="151" type="line"/>
      <point x="-26" y="93" type="line"/>
      <point x="-44" y="0" type="line"/>
      <point x="470" y="0" type="line"/>
      <point x="489" y="82" type="line"/>
      <point x="309" y="151" type="line"/>
      <point x="442" y="404" type="line"/>
      <point x="600" y="404"/>
      <point x="773" y="406"/>
      <point x="886" y="419" type="curve"/>
    </contour>
    <contour>
      <point x="886" y="1188" type="line"/>
      <point x="886" y="568" type="line"/>
      <point x="526" y="568" type="line"/>
      <point x="840" y="1188" type="line"/>
    </contour>
  </outline>
</glyph>
<glyph name="Ccedilla" format="1">
  <advance width="1284"/>
  <unicode hex="00C7"/>
  <outline>
    <contour>
      <point x="1207" y="230" type="line"/>
      <point x="1144" y="213"/>
      <point x="887" y="164"/>
      <point x="811" y="164" type="curve" smooth="yes"/>
      <point x="719" y="164"/>
      <point x="608" y="209"/>
      <point x="527" y="316" type="curve" smooth="yes"/>
      <point x="450" y="417"/>
      <point x="404" y="557"/>
      <point x="404" y="743" type="curve" smooth="yes"/>
      <point x="404" y="949"/>
      <point x="446" y="1140"/>
      <point x="521" y="1216" type="curve" smooth="yes"/>
      <point x="558" y="1253"/>
      <point x="641" y="1270"/>
      <point x="721" y="1270" type="curve" smooth="yes"/>
      <point x="821" y="1270"/>
      <point x="910" y="1256"/>
      <point x="987" y="1212" type="curve"/>
      <point x="1074" y="1006" type="line"/>
      <point x="1197" y="1028" type="line"/>
      <point x="1167" y="1408" type="line"/>
      <point x="1021" y="1398" type="line"/>
      <point x="955" y="1409"/>
      <point x="867" y="1419"/>
      <point x="800" y="1419" type="curve" smooth="yes"/>
      <point x="621" y="1419"/>
      <point x="469" y="1368"/>
      <point x="348" y="1269" type="curve" smooth="yes"/>
      <point x="180" y="1133"/>
      <point x="86" y="908"/>
      <point x="86" y="646" type="curve" smooth="yes"/>
      <point x="86" y="240"/>
      <point x="314" y="4"/>
      <point x="651" y="-31" type="curve"/>
      <point x="603" y="-81"/>
      <point x="571" y="-135"/>
      <point x="554" y="-192" type="curve"/>
      <point x="689" y="-212"/>
      <point x="778" y="-242"/>
      <point x="778" y="-284" type="curve" smooth="yes"/>
      <point x="778" y="-309"/>
      <point x="754" y="-352"/>
      <point x="537" y="-430" type="curve"/>
      <point x="552" y="-500" type="line"/>
      <point x="735" y="-500"/>
      <point x="961" y="-434"/>
      <point x="961" y="-263" type="curve" smooth="yes"/>
      <point x="961" y="-165"/>
      <point x="855" y="-108"/>
      <point x="755" y="-102" type="curve"/>
      <point x="779" y="-34" type="line"/>
      <point x="975" y="-26"/>
      <point x="1132" y="41"/>
      <point x="1243" y="167" type="curve"/>
    </contour>
  </outline>
</glyph>
<glyph name="Eacute" format="1">
  <advance width="1332"/>
  <unicode hex="00C9"/>
  <outline>
    <contour>
      <point x="467" y="1597" type="line"/>
      <point x="491" y="1489" type="line"/>
      <point x="980" y="1636" type="line"/>
      <point x="947" y="1801" type="line"/>
      <point x="817" y="1801" type="line"/>
    </contour>
    <contour>
      <point x="1058" y="165" type="line"/>
      <point x="555" y="99" type="line"/>
      <point x="555" y="659" type="line"/>
      <point x="640" y="641"/>
      <point x="726" y="633"/>
      <point x="814" y="628" type="curve"/>
      <point x="860" y="470" type="line"/>
      <point x="955" y="453" type="line"/>
      <point x="973" y="924" type="line"/>
      <point x="880" y="944" type="line"/>
      <point x="815" y="775" type="line"/>
      <point x="727" y="768"/>
      <point x="640" y="756"/>
      <point x="555" y="741" type="curve"/>
      <point x="555" y="1296" type="line"/>
      <point x="999" y="1234" type="line"/>
      <point x="1095" y="1022" type="line"/>
      <point x="1217" y="1046" type="line"/>
      <point x="1179" y="1397" type="line"/>
      <point x="1041" y="1384" type="line"/>
      <point x="84" y="1384" type="line"/>
      <point x="65" y="1304" type="line"/>
      <point x="253" y="1231" type="line"/>
      <point x="253" y="157" type="line"/>
      <point x="71" y="88" type="line"/>
      <point x="55" y="0" type="line"/>
      <point x="1213" y="0" type="line"/>
      <point x="1292" y="341" type="line"/>
      <point x="1180" y="359" type="line"/>
    </contour>
  </outline>
</glyph>
<glyph name="Ecircumflex" format="1">
  <advance width="1332"/>
  <unicode hex="00CA"/>
  <outline>
    <contour>
      <point x="324" y="1560" type="line"/>
      <point x="409" y="1486" type="line"/>
      <point x="663" y="1612" type="line"/>
      <point x="917" y="1486" type="line"/>
      <point x="1003" y="1560" type="line"/>
      <point x="722" y="1797" type="line"/>
      <point x="604" y="1797" type="line"/>
    </contour>
    <contour>
      <point x="1058" y="165" type="line"/>
      <point x="555" y="99" type="line"/>
      <point x="555" y="659" type="line"/>
      <point x="640" y="641"/>
      <point x="726" y="633"/>
      <point x="814" y="628" type="curve"/>
      <point x="860" y="470" type="line"/>
      <point x="955" y="453" type="line"/>
      <point x="973" y="924" type="line"/>
      <point x="880" y="944" type="line"/>
      <point x="815" y="775" type="line"/>
      <point x="727" y="768"/>
      <point x="640" y="756"/>
      <point x="555" y="741" type="curve"/>
      <point x="555" y="1296" type="line"/>
      <point x="999" y="1234" type="line"/>
      <point x="1095" y="1022" type="line"/>
      <point x="1217" y="1046" type="line"/>
      <point x="1179" y="1397" type="line"/>
      <point x="1041" y="1384" type="line"/>
      <point x="84" y="1384" type="line"/>
      <point x="65" y="1304" type="line"/>
      <point x="253" y="1231" type="line"/>
      <point x="253" y="157" type="line"/>
      <point x="71" y="88" type="line"/>
      <point x="55" y="0" type="line"/>
      <point x="1213" y="0" type="line"/>
      <point x="1292" y="341" type="line"/>
      <point x="1180" y="359" type="line"/>
    </contour>
  </outline>
</glyph>
<glyph name="Edieresis" format="1">
  <advance width="1332"/>
  <unicode hex="00CB"/>
  <outline>
    <contour>
      <point x="295" y="1575"/>
      <point x="415" y="1492"/>
      <point x="453" y="1499" type="curve" smooth="yes"/>
      <point x="498" y="1507"/>
      <point x="577" y="1628"/>
      <point x="571" y="1667" type="curve"/>
      <point x="562" y="1709"/>
      <point x="441" y="1790"/>
      <point x="404" y="1783" type="curve" smooth="yes"/>
      <point x="360" y="1775"/>
      <point x="280" y="1655"/>
      <point x="287" y="1616" type="curve" smooth="yes"/>
    </contour>
    <contour>
      <point x="763" y="1575"/>
      <point x="882" y="1493"/>
      <point x="921" y="1499" type="curve" smooth="yes"/>
      <point x="966" y="1507"/>
      <point x="1045" y="1628"/>
      <point x="1038" y="1667" type="curve" smooth="yes"/>
      <point x="1030" y="1709"/>
      <point x="909" y="1790"/>
      <point x="872" y="1783" type="curve" smooth="yes"/>
      <point x="827" y="1775"/>
      <point x="748" y="1656"/>
      <point x="755" y="1616" type="curve" smooth="yes"/>
    </contour>
    <contour>
      <point x="1058" y="165" type="line"/>
      <point x="555" y="99" type="line"/>
      <point x="555" y="659" type="line"/>
      <point x="640" y="641"/>
      <point x="726" y="633"/>
      <point x="814" y="628" type="curve"/>
      <point x="860" y="470" type="line"/>
      <point x="955" y="453" type="line"/>
      <point x="973" y="924" type="line"/>
      <point x="880" y="944" type="line"/>
      <point x="815" y="775" type="line"/>
      <point x="727" y="768"/>
      <point x="640" y="756"/>
      <point x="555" y="741" type="curve"/>
      <point x="555" y="1296" type="line"/>
      <point x="999" y="1234" type="line"/>
      <point x="1095" y="1022" type="line"/>
      <point x="1217" y="1046" type="line"/>
      <point x="1179" y="1397" type="line"/>
      <point x="1041" y="1384" type="line"/>
      <point x="84" y="1384" type="line"/>
      <point x="65" y="1304" type="line"/>
      <point x="253" y="1231" type="line"/>
      <point x="253" y="157" type="line"/>
      <point x="71" y="88" type="line"/>
      <point x="55" y="0" type="line"/>
      <point x="1213" y="0" type="line"/>
      <point x="1292" y="341" type="line"/>
      <point x="1180" y="359" type="line"/>
    </contour>
  </outline>
</glyph>
<glyph name="Igrave" format="1">
  <advance width="810"/>
  <unicode hex="00CC"/>
  <outline>
    <contour>
      <point x="148" y="1637" type="line"/>
      <point x="637" y="1488" type="line"/>
      <point x="659" y="1599" type="line"/>
      <point x="311" y="1801" type="line"/>
      <point x="181" y="1801" type="line"/>
    </contour>
    <contour>
      <point x="252" y="156" type="line"/>
      <point x="75" y="86" type="line"/>
      <point x="57" y="0" type="line"/>
      <point x="729" y="0" type="line"/>
      <point x="747" y="82" type="line"/>
      <point x="555" y="156" type="line"/>
      <point x="555" y="1228" type="line"/>
      <point x="737" y="1300" type="line"/>
      <point x="752" y="1384" type="line"/>
      <point x="82" y="1384" type="line"/>
      <point x="65" y="1302" type="line"/>
      <point x="252" y="1230" type="line"/>
    </contour>
  </outline>
</glyph>
<glyph name="Iacute" format="1">
  <advance width="810"/>
  <unicode hex="00CD"/>
  <outline>
    <contour>
      <point x="209" y="1597" type="line"/>
      <point x="233" y="1489" type="line"/>
      <point x="722" y="1636" type="line"/>
      <point x="689" y="1801" type="line"/>
      <point x="559" y="1801" type="line"/>
    </contour>
    <contour>
      <point x="252" y="156" type="line"/>
      <point x="75" y="86" type="line"/>
      <point x="57" y="0" type="line"/>
      <point x="729" y="0" type="line"/>
      <point x="747" y="82" type="line"/>
      <point x="555" y="156" type="line"/>
      <point x="555" y="1228" type="line"/>
      <point x="737" y="1300" type="line"/>
      <point x="752" y="1384" type="line"/>
      <point x="82" y="1384" type="line"/>
      <point x="65" y="1302" type="line"/>
      <point x="252" y="1230" type="line"/>
    </contour>
  </outline>
</glyph>
<glyph name="Icircumflex" format="1">
  <advance width="810"/>
  <unicode hex="00CE"/>
  <outline>
    <contour>
      <point x="66" y="1560" type="line"/>
      <point x="151" y="1486" type="line"/>
      <point x="405" y="1612" type="line"/>
      <point x="659" y="1486" type="line"/>
      <point x="745" y="1560" type="line"/>
      <point x="464" y="1797" type="line"/>
      <point x="346" y="1797" type="line"/>
    </contour>
    <contour>
      <point x="252" y="156" type="line"/>
      <point x="75" y="86" type="line"/>
      <point x="57" y="0" type="line"/>
      <point x="729" y="0" type="line"/>
      <point x="747" y="82" type="line"/>
      <point x="555" y="156" type="line"/>
      <point x="555" y="1228" type="line"/>
      <point x="737" y="1300" type="line"/>
      <point x="752" y="1384" type="line"/>
      <point x="82" y="1384" type="line"/>
      <point x="65" y="1302" type="line"/>
      <point x="252" y="1230" type="line"/>
    </contour>
  </outline>
</glyph>
<glyph name="Idieresis" format="1">
  <advance width="810"/>
  <unicode hex="00CF"/>
  <outline>
    <contour>
      <point x="37" y="1575"/>
      <point x="157" y="1492"/>
      <point x="195" y="1499" type="curve" smooth="yes"/>
      <point x="240" y="1507"/>
      <point x="319" y="1628"/>
      <point x="313" y="1667" type="curve"/>
      <point x="304" y="1709"/>
      <point x="183" y="1790"/>
      <point x="146" y="1783" type="curve" smooth="yes"/>
      <point x="102" y="1775"/>
      <point x="22" y="1655"/>
      <point x="29" y="1616" type="curve" smooth="yes"/>
    </contour>
    <contour>
      <point x="505" y="1575"/>
      <point x="624" y="1493"/>
      <point x="663" y="1499" type="curve" smooth="yes"/>
      <point x="708" y="1507"/>
      <point x="787" y="1628"/>
      <point x="780" y="1667" type="curve" smooth="yes"/>
      <point x="772" y="1709"/>
      <point x="651" y="1790"/>
      <point x="614" y="1783" type="curve" smooth="yes"/>
      <point x="569" y="1775"/>
      <point x="490" y="1656"/>
      <point x="497" y="1616" type="curve" smooth="yes"/>
    </contour>
    <contour>
      <point x="252" y="156" type="line"/>
      <point x="75" y="86" type="line"/>
      <point x="57" y="0" type="line"/>
      <point x="729" y="0" type="line"/>
      <point x="747" y="82" type="line"/>
      <point x="555" y="156" type="line"/>
      <point x="555" y="1228" type="line"/>
      <point x="737" y="1300" type="line"/>
      <point x="752" y="1384" type="line"/>
      <point x="82" y="1384" type="line"/>
      <point x="65" y="1302" type="line"/>
      <point x="252" y="1230" type="line"/>
    </contour>
  </outline>
</glyph>
<glyph name="Ntilde" format="1">
  <advance width="1572"/>
  <unicode hex="00D1"/>
  <outline>
    <contour>
      <point x="431" y="1537" type="line"/>
      <point x="502" y="1603"/>
      <point x="594" y="1650"/>
      <point x="638" y="1650" type="curve" smooth="yes"/>
      <point x="696" y="1650"/>
      <point x="770" y="1515"/>
      <point x="897" y="1515" type="curve" smooth="yes"/>
      <point x="997" y="1515"/>
      <point x="1071" y="1595"/>
      <point x="1143" y="1675" type="curve"/>
      <point x="1122" y="1809" type="line"/>
      <point x="1044" y="1744"/>
      <point x="956" y="1696"/>
      <point x="913" y="1696" type="curve" smooth="yes"/>
      <point x="855" y="1696"/>
      <point x="779" y="1831"/>
      <point x="651" y="1831" type="curve" smooth="yes"/>
      <point x="553" y="1831"/>
      <point x="481" y="1754"/>
      <point x="406" y="1670" type="curve"/>
    </contour>
    <contour>
      <point x="251" y="155" type="line"/>
      <point x="80" y="84" type="line"/>
      <point x="64" y="0" type="line"/>
      <point x="620" y="0" type="line"/>
      <point x="638" y="82" type="line"/>
      <point x="431" y="154" type="line"/>
      <point x="431" y="454"/>
      <point x="431" y="755"/>
      <point x="397" y="1055" type="curve"/>
      <point x="1090" y="-25" type="line"/>
      <point x="1346" y="15" type="line"/>
      <point x="1346" y="1229" type="line"/>
      <point x="1514" y="1300" type="line"/>
      <point x="1530" y="1384" type="line"/>
      <point x="978" y="1384" type="line"/>
      <point x="962" y="1301" type="line"/>
      <point x="1164" y="1231" type="line"/>
      <point x="1164" y="935"/>
      <point x="1164" y="639"/>
      <point x="1195" y="343" type="curve"/>
      <point x="521" y="1384" type="line"/>
      <point x="82" y="1384" type="line"/>
      <point x="64" y="1302" type="line"/>
      <point x="251" y="1230" type="line"/>
    </contour>
  </outline>
</glyph>
<glyph name="Oacute" format="1">
  <advance width="1491"/>
  <unicode hex="00D3"/>
  <outline>
    <contour>
      <point x="559" y="1597" type="line"/>
      <point x="583" y="1489" type="line"/>
      <point x="1072" y="1636" type="line"/>
      <point x="1039" y="1801" type="line"/>
      <point x="909" y="1801" type="line"/>
    </contour>
    <contour>
      <point x="77" y="211"/>
      <point x="358" y="-35"/>
      <point x="718" y="-35" type="curve" smooth="yes"/>
      <point x="1153" y="-35"/>
      <point x="1414" y="335"/>
      <point x="1414" y="762" type="curve" smooth="yes"/>
      <point x="1414" y="1173"/>
      <point x="1126" y="1419"/>
      <point x="789" y="1419" type="curve" smooth="yes"/>
      <point x="320" y="1419"/>
      <point x="77" y="1041"/>
      <point x="77" y="623" type="curve" smooth="yes"/>
    </contour>
    <contour>
      <point x="405" y="413"/>
      <point x="393" y="586"/>
      <point x="393" y="766" type="curve" smooth="yes"/>
      <point x="393" y="895"/>
      <point x="419" y="1126"/>
      <point x="498" y="1203" type="curve" smooth="yes"/>
      <point x="545" y="1249"/>
      <point x="621" y="1259"/>
      <point x="682" y="1259" type="curve" smooth="yes"/>
      <point x="841" y="1259"/>
      <point x="992" y="1151"/>
      <point x="1054" y="984" type="curve" smooth="yes"/>
      <point x="1091" y="882"/>
      <point x="1098" y="775"/>
      <point x="1098" y="617" type="curve" smooth="yes"/>
      <point x="1098" y="491"/>
      <point x="1070" y="274"/>
      <point x="1007" y="197" type="curve" smooth="yes"/>
      <point x="961" y="142"/>
      <point x="877" y="125"/>
      <point x="810" y="125" type="curve" smooth="yes"/>
      <point x="685" y="125"/>
      <point x="571" y="186"/>
      <point x="498" y="286" type="curve" smooth="yes"/>
    </contour>
  </outline>
</glyph>
<glyph name="Otilde" format="1">
  <advance width="1491"/>
  <unicode hex="00D5"/>
  <outline>
    <contour>
      <point x="410" y="1537" type="line"/>
      <point x="481" y="1603"/>
      <point x="573" y="1650"/>
      <point x="617" y="1650" type="curve" smooth="yes"/>
      <point x="675" y="1650"/>
      <point x="749" y="1515"/>
      <point x="876" y="1515" type="curve" smooth="yes"/>
      <point x="976" y="1515"/>
      <point x="1050" y="1595"/>
      <point x="1122" y="1675" type="curve"/>
      <point x="1101" y="1809" type="line"/>
      <point x="1023" y="1744"/>
      <point x="935" y="1696"/>
      <point x="892" y="1696" type="curve" smooth="yes"/>
      <point x="834" y="1696"/>
      <point x="758" y="1831"/>
      <point x="630" y="1831" type="curve" smooth="yes"/>
      <point x="532" y="1831"/>
      <point x="460" y="1754"/>
      <point x="385" y="1670" type="curve"/>
    </contour>
    <contour>
      <point x="77" y="211"/>
      <point x="358" y="-35"/>
      <point x="718" y="-35" type="curve" smooth="yes"/>
      <point x="1153" y="-35"/>
      <point x="1414" y="335"/>
      <point x="1414" y="762" type="curve" smooth="yes"/>
      <point x="1414" y="1173"/>
      <point x="1126" y="1419"/>
      <point x="789" y="1419" type="curve" smooth="yes"/>
      <point x="320" y="1419"/>
      <point x="77" y="1041"/>
      <point x="77" y="623" type="curve" smooth="yes"/>
    </contour>
    <contour>
      <point x="405" y="413"/>
      <point x="393" y="586"/>
      <point x="393" y="766" type="curve" smooth="yes"/>
      <point x="393" y="895"/>
      <point x="419" y="1126"/>
      <point x="498" y="1203" type="curve" smooth="yes"/>
      <point x="545" y="1249"/>
      <point x="621" y="1259"/>
      <point x="682" y="1259" type="curve" smooth="yes"/>
      <point x="841" y="1259"/>
      <point x="992" y="1151"/>
      <point x="1054" y="984" type="curve" smooth="yes"/>
      <point x="1091" y="882"/>
      <point x="1098" y="775"/>
      <point x="1098" y="617" type="curve" smooth="yes"/>
      <point x="1098" y="491"/>
      <point x="1070" y="274"/>
      <point x="1007" y="197" type="curve" smooth="yes"/>
      <point x="961" y="142"/>
      <point x="877" y="125"/>
      <point x="810" y="125" type="curve" smooth="yes"/>
      <point x="685" y="125"/>
      <point x="571" y="186"/>
      <point x="498" y="286" type="curve" smooth="yes"/>
    </contour>
  </outline>
</glyph>
<glyph name="Odieresis" format="1">
  <advance width="1491"/>
  <unicode hex="00D6"/>
  <outline>
    <contour>
      <point x="386" y="1575"/>
      <point x="506" y="1492"/>
      <point x="544" y="1499" type="curve" smooth="yes"/>
      <point x="589" y="1507"/>
      <point x="668" y="1628"/>
      <point x="662" y="1667" type="curve"/>
      <point x="653" y="1709"/>
      <point x="532" y="1790"/>
      <point x="495" y="1783" type="curve" smooth="yes"/>
      <point x="451" y="1775"/>
      <point x="371" y="1655"/>
      <point x="378" y="1616" type="curve" smooth="yes"/>
    </contour>
    <contour>
      <point x="854" y="1575"/>
      <point x="973" y="1493"/>
      <point x="1012" y="1499" type="curve" smooth="yes"/>
      <point x="1057" y="1507"/>
      <point x="1136" y="1628"/>
      <point x="1129" y="1667" type="curve" smooth="yes"/>
      <point x="1121" y="1709"/>
      <point x="1000" y="1790"/>
      <point x="963" y="1783" type="curve" smooth="yes"/>
      <point x="918" y="1775"/>
      <point x="839" y="1656"/>
      <point x="846" y="1616" type="curve" smooth="yes"/>
    </contour>
    <contour>
      <point x="77" y="211"/>
      <point x="358" y="-35"/>
      <point x="718" y="-35" type="curve" smooth="yes"/>
      <point x="1153" y="-35"/>
      <point x="1414" y="335"/>
      <point x="1414" y="762" type="curve" smooth="yes"/>
      <point x="1414" y="1173"/>
      <point x="1126" y="1419"/>
      <point x="789" y="1419" type="curve" smooth="yes"/>
      <point x="320" y="1419"/>
      <point x="77" y="1041"/>
      <point x="77" y="623" type="curve" smooth="yes"/>
    </contour>
    <contour>
      <point x="405" y="413"/>
      <point x="393" y="586"/>
      <point x="393" y="766" type="curve" smooth="yes"/>
      <point x="393" y="895"/>
      <point x="419" y="1126"/>
      <point x="498" y="1203" type="curve" smooth="yes"/>
      <point x="545" y="1249"/>
      <point x="621" y="1259"/>
      <point x="682" y="1259" type="curve" smooth="yes"/>
      <point x="841" y="1259"/>
      <point x="992" y="1151"/>
      <point x="1054" y="984" type="curve" smooth="yes"/>
      <point x="1091" y="882"/>
      <point x="1098" y="775"/>
      <point x="1098" y="617" type="curve" smooth="yes"/>
      <point x="1098" y="491"/>
      <point x="1070" y="274"/>
      <point x="1007" y="197" type="curve" smooth="yes"/>
      <point x="961" y="142"/>
      <point x="877" y="125"/>
      <point x="810" y="125" type="curve" smooth="yes"/>
      <point x="685" y="125"/>
      <point x="571" y="186"/>
      <point x="498" y="286" type="curve" smooth="yes"/>
    </contour>
  </outline>
</glyph>
<glyph name="multiply" format="1">
  <advance width="1024"/>
  <unicode hex="00D7"/>
  <outline>
    <contour>
      <point x="646" y="574" type="line"/>
      <point x="875" y="796" type="line"/>
      <point x="740" y="923" type="line"/>
      <point x="513" y="703" type="line"/>
      <point x="285" y="923" type="line"/>
      <point x="150" y="796" type="line"/>
      <point x="379" y="574" type="line"/>
      <point x="156" y="357" type="line"/>
      <point x="291" y="230" type="line"/>
      <point x="513" y="445" type="line"/>
      <point x="734" y="230" type="line"/>
      <point x="870" y="357" type="line"/>
    </contour>
  </outline>
</glyph>
<glyph name="Oslash" format="1">
  <advance width="1491"/>
  <unicode hex="00D8"/>
  <outline>
    <contour>
      <point x="1205" y="1468" type="line"/>
      <point x="1010" y="1518" type="line"/>
      <point x="959" y="1397" type="line"/>
      <point x="905" y="1412"/>
      <point x="848" y="1419"/>
      <point x="789" y="1419" type="curve" smooth="yes"/>
      <point x="320" y="1419"/>
      <point x="77" y="1041"/>
      <point x="77" y="623" type="curve" smooth="yes"/>
      <point x="77" y="349"/>
      <point x="201" y="148"/>
      <point x="391" y="45" type="curve"/>
      <point x="318" y="-128" type="line"/>
      <point x="514" y="-176" type="line"/>
      <point x="579" y="-22" type="line"/>
      <point x="623" y="-31"/>
      <point x="670" y="-35"/>
      <point x="718" y="-35" type="curve" smooth="yes"/>
      <point x="1153" y="-35"/>
      <point x="1414" y="335"/>
      <point x="1414" y="762" type="curve" smooth="yes"/>
      <point x="1414" y="1016"/>
      <point x="1304" y="1207"/>
      <point x="1141" y="1316" type="curve"/>
    </contour>
    <contour>
      <point x="482" y="274" type="line"/>
      <point x="399" y="400"/>
      <point x="393" y="579"/>
      <point x="393" y="766" type="curve" smooth="yes"/>
      <point x="393" y="895"/>
      <point x="419" y="1126"/>
      <point x="498" y="1203" type="curve" smooth="yes"/>
      <point x="545" y="1252"/>
      <point x="628" y="1265"/>
      <point x="688" y="1265" type="curve" smooth="yes"/>
      <point x="755" y="1265"/>
      <point x="823" y="1249"/>
      <point x="884" y="1218" type="curve"/>
      <point x="485" y="270" type="line"/>
    </contour>
    <contour>
      <point x="960" y="137"/>
      <point x="873" y="120"/>
      <point x="806" y="120" type="curve" smooth="yes"/>
      <point x="752" y="120"/>
      <point x="699" y="130"/>
      <point x="650" y="148" type="curve"/>
      <point x="1038" y="1070" type="line"/>
      <point x="1046" y="1055"/>
      <point x="1053" y="1039"/>
      <point x="1059" y="1022" type="curve" smooth="yes"/>
      <point x="1096" y="917"/>
      <point x="1098" y="784"/>
      <point x="1098" y="617" type="curve" smooth="yes"/>
      <point x="1098" y="491"/>
      <point x="1067" y="276"/>
      <point x="1007" y="197" type="curve" smooth="yes"/>
    </contour>
  </outline>
</glyph>
<glyph name="Uacute" format="1">
  <advance width="1551"/>
  <unicode hex="00DA"/>
  <outline>
    <contour>
      <point x="628" y="1597" type="line"/>
      <point x="652" y="1489" type="line"/>
      <point x="1141" y="1636" type="line"/>
      <point x="1108" y="1801" type="line"/>
      <point x="978" y="1801" type="line"/>
    </contour>
    <contour>
      <point x="511" y="1219" type="line"/>
      <point x="703" y="1283" type="line"/>
      <point x="725" y="1384" type="line"/>
      <point x="60" y="1384" type="line"/>
      <point x="43" y="1303" type="line"/>
      <point x="214" y="1230" type="line"/>
      <point x="214" y="469" type="line" smooth="yes"/>
      <point x="214" y="149"/>
      <point x="389" y="-35"/>
      <point x="756" y="-35" type="curve" smooth="yes"/>
      <point x="1136" y="-35"/>
      <point x="1352" y="154"/>
      <point x="1352" y="508" type="curve" smooth="yes"/>
      <point x="1352" y="1226" type="line"/>
      <point x="1505" y="1300" type="line"/>
      <point x="1520" y="1384" type="line"/>
      <point x="981" y="1384" type="line"/>
      <point x="964" y="1302" type="line"/>
      <point x="1161" y="1229" type="line"/>
      <point x="1161" y="477" type="line" smooth="yes"/>
      <point x="1161" y="361"/>
      <point x="1136" y="266"/>
      <point x="1077" y="207" type="curve" smooth="yes"/>
      <point x="1030" y="159"/>
      <point x="958" y="138"/>
      <point x="879" y="138" type="curve" smooth="yes"/>
      <point x="644" y="138"/>
      <point x="511" y="306"/>
      <point x="511" y="536" type="curve" smooth="yes"/>
    </contour>
  </outline>
</glyph>
<glyph name="Udieresis" format="1">
  <advance width="1551"/>
  <unicode hex="00DC"/>
  <outline>
    <contour>
      <point x="456" y="1575"/>
      <point x="576" y="1492"/>
      <point x="614" y="1499" type="curve" smooth="yes"/>
      <point x="659" y="1507"/>
      <point x="738" y="1628"/>
      <point x="732" y="1667" type="curve"/>
      <point x="723" y="1709"/>
      <point x="602" y="1790"/>
      <point x="565" y="1783" type="curve" smooth="yes"/>
      <point x="521" y="1775"/>
      <point x="441" y="1655"/>
      <point x="448" y="1616" type="curve" smooth="yes"/>
    </contour>
    <contour>
      <point x="924" y="1575"/>
      <point x="1043" y="1493"/>
      <point x="1082" y="1499" type="curve" smooth="yes"/>
      <point x="1127" y="1507"/>
      <point x="1206" y="1628"/>
      <point x="1199" y="1667" type="curve" smooth="yes"/>
      <point x="1191" y="1709"/>
      <point x="1070" y="1790"/>
      <point x="1033" y="1783" type="curve" smooth="yes"/>
      <point x="988" y="1775"/>
      <point x="909" y="1656"/>
      <point x="916" y="1616" type="curve" smooth="yes"/>
    </contour>
    <contour>
      <point x="511" y="1219" type="line"/>
      <point x="703" y="1283" type="line"/>
      <point x="725" y="1384" type="line"/>
      <point x="60" y="1384" type="line"/>
      <point x="43" y="1303" type="line"/>
      <point x="214" y="1230" type="line"/>
      <point x="214" y="469" type="line" smooth="yes"/>
      <point x="214" y="149"/>
      <point x="389" y="-35"/>
      <point x="756" y="-35" type="curve" smooth="yes"/>
      <point x="1136" y="-35"/>
      <point x="1352" y="154"/>
      <point x="1352" y="508" type="curve" smooth="yes"/>
      <point x="1352" y="1226" type="line"/>
      <point x="1505" y="1300" type="line"/>
      <point x="1520" y="1384" type="line"/>
      <point x="981" y="1384" type="line"/>
      <point x="964" y="1302" type="line"/>
      <point x="1161" y="1229" type="line"/>
      <point x="1161" y="477" type="line" smooth="yes"/>
      <point x="1161" y="361"/>
      <point x="1136" y="266"/>
      <point x="1077" y="207" type="curve" smooth="yes"/>
      <point x="1030" y="159"/>
      <point x="958" y="138"/>
      <point x="879" y="138" type="curve" smooth="yes"/>
      <point x="644" y="138"/>
      <point x="511" y="306"/>
      <point x="511" y="536" type="curve" smooth="yes"/>
    </contour>
  </outline>
</glyph>
<glyph name="Yacute" format="1">
  <advance width="1286"/>
  <unicode hex="00DD"/>
  <outline>
    <contour>
      <point x="465" y="1597" type="line"/>
      <point x="489" y="1489" type="line"/>
      <point x="978" y="1636" type="line"/>
      <point x="945" y="1801" type="line"/>
      <point x="815" y="1801" type="line"/>
    </contour>
    <contour>
      <point x="500" y="151" type="line"/>
      <point x="325" y="83" type="line"/>
      <point x="310" y="0" type="line"/>
      <point x="983" y="0" type="line"/>
      <point x="1000" y="82" type="line"/>
      <point x="797" y="151" type="line"/>
      <point x="797" y="560" type="line"/>
      <point x="1160" y="1233" type="line"/>
      <point x="1299" y="1290" type="line"/>
      <point x="1314" y="1384" type="line"/>
      <point x="811" y="1384" type="line"/>
      <point x="793" y="1303" type="line"/>
      <point x="973" y="1230" type="line"/>
      <point x="888" y="1058"/>
      <point x="795" y="864"/>
      <point x="732" y="690" type="curve"/>
      <point x="425" y="1231" type="line"/>
      <point x="577" y="1296" type="line"/>
      <point x="593" y="1384" type="line"/>
      <point x="-19" y="1384" type="line"/>
      <point x="-37" y="1291" type="line"/>
      <point x="102" y="1232" type="line"/>
      <point x="500" y="558" type="line"/>
    </contour>
  </outline>
</glyph>
<glyph name="Thorn" format="1">
  <advance width="1292"/>
  <unicode hex="00DE"/>
  <outline>
    <contour>
      <point x="1009" y="1131"/>
      <point x="837" y="1144"/>
      <point x="556" y="1144" type="curve"/>
      <point x="556" y="1228" type="line"/>
      <point x="737" y="1300" type="line"/>
      <point x="753" y="1384" type="line"/>
      <point x="83" y="1384" type="line"/>
      <point x="66" y="1302" type="line"/>
      <point x="253" y="1230" type="line"/>
      <point x="253" y="156" type="line"/>
      <point x="76" y="86" type="line"/>
      <point x="58" y="0" type="line"/>
      <point x="769" y="0" type="line"/>
      <point x="787" y="82" type="line"/>
      <point x="556" y="156" type="line"/>
      <point x="556" y="1063" type="line"/>
      <point x="764" y="1056"/>
      <point x="943" y="976"/>
      <point x="943" y="747" type="curve" smooth="yes"/>
      <point x="943" y="569"/>
      <point x="881" y="489"/>
      <point x="692" y="399" type="curve"/>
      <point x="679" y="332" type="line"/>
      <point x="814" y="332"/>
      <point x="975" y="358"/>
      <point x="1090" y="434" type="curve" smooth="yes"/>
      <point x="1189" y="500"/>
      <point x="1246" y="606"/>
      <point x="1246" y="735" type="curve" smooth="yes"/>
      <point x="1246" y="869"/>
      <point x="1203" y="962"/>
      <point x="1131" y="1025" type="curve" smooth="yes"/>
    </contour>
  </outline>
</glyph>
<glyph name="germandbls" format="1">
  <advance width="1372"/>
  <unicode hex="00DF"/>
  <outline>
    <contour>
      <point x="205" y="145" type="line"/>
      <point x="69" y="79" type="line"/>
      <point x="53" y="0" type="line"/>
      <point x="511" y="0" type="line"/>
      <point x="487" y="125" type="line"/>
      <point x="487" y="1067" type="line" smooth="yes"/>
      <point x="487" y="1208"/>
      <point x="495" y="1275"/>
      <point x="541" y="1329" type="curve"/>
      <point x="556" y="1345"/>
      <point x="601" y="1361"/>
      <point x="678" y="1361" type="curve" smooth="yes"/>
      <point x="824" y="1361"/>
      <point x="962" y="1291"/>
      <point x="962" y="1140" type="curve" smooth="yes"/>
      <point x="962" y="1121"/>
      <point x="961" y="1093"/>
      <point x="946" y="1078" type="curve"/>
      <point x="884" y="1022"/>
      <point x="669" y="931"/>
      <point x="669" y="738" type="curve" smooth="yes"/>
      <point x="669" y="568"/>
      <point x="775" y="502"/>
      <point x="904" y="415" type="curve" smooth="yes"/>
      <point x="1025" y="336"/>
      <point x="1090" y="294"/>
      <point x="1090" y="214" type="curve" smooth="yes"/>
      <point x="1090" y="189"/>
      <point x="1084" y="167"/>
      <point x="1063" y="150" type="curve" smooth="yes"/>
      <point x="1037" y="129"/>
      <point x="937" y="96"/>
      <point x="836" y="94" type="curve"/>
      <point x="788" y="303" type="line"/>
      <point x="673" y="322" type="line"/>
      <point x="625" y="69" type="line"/>
      <point x="734" y="-4"/>
      <point x="852" y="-26"/>
      <point x="983" y="-26" type="curve" smooth="yes"/>
      <point x="1190" y="-26"/>
      <point x="1344" y="63"/>
      <point x="1344" y="260" type="curve" smooth="yes"/>
      <point x="1344" y="415"/>
      <point x="1242" y="498"/>
      <point x="1097" y="586" type="curve" smooth="yes"/>
      <point x="962" y="670"/>
      <point x="913" y="707"/>
      <point x="913" y="774" type="curve" smooth="yes"/>
      <point x="913" y="947"/>
      <point x="1196" y="955"/>
      <point x="1196" y="1179" type="curve" smooth="yes"/>
      <point x="1196" y="1365"/>
      <point x="1010" y="1478"/>
      <point x="750" y="1478" type="curve" smooth="yes"/>
      <point x="556" y="1478"/>
      <point x="404" y="1434"/>
      <point x="316" y="1327" type="curve" smooth="yes"/>
      <point x="247" y="1248"/>
      <point x="205" y="1122"/>
      <point x="205" y="987" type="curve" smooth="yes"/>
      <point x="205" y="950" type="line"/>
      <point x="67" y="950" type="line"/>
      <point x="49" y="862" type="line"/>
      <point x="205" y="793" type="line"/>
    </contour>
  </outline>
</glyph>
<glyph name="aring" format="1">
  <advance width="1080"/>
  <unicode hex="00E5"/>
  <outline>
    <contour>
      <point x="638" y="1047"/>
      <point x="733" y="1149"/>
      <point x="733" y="1274" type="curve" smooth="yes"/>
      <point x="733" y="1401"/>
      <point x="633" y="1485"/>
      <point x="516" y="1485" type="curve" smooth="yes"/>
      <point x="377" y="1485"/>
      <point x="287" y="1378"/>
      <point x="287" y="1256" type="curve" smooth="yes"/>
      <point x="287" y="1128"/>
      <point x="383" y="1047"/>
      <point x="507" y="1047" type="curve" smooth="yes"/>
    </contour>
    <contour>
      <point x="457" y="1172"/>
      <point x="421" y="1224"/>
      <point x="421" y="1275" type="curve" smooth="yes"/>
      <point x="421" y="1321"/>
      <point x="452" y="1363"/>
      <point x="499" y="1363" type="curve" smooth="yes"/>
      <point x="556" y="1363"/>
      <point x="596" y="1312"/>
      <point x="596" y="1256" type="curve" smooth="yes"/>
      <point x="596" y="1210"/>
      <point x="565" y="1172"/>
      <point x="518" y="1172" type="curve" smooth="yes"/>
    </contour>
    <contour>
      <point x="57" y="125"/>
      <point x="127" y="-25"/>
      <point x="342" y="-25" type="curve" smooth="yes"/>
      <point x="491" y="-25"/>
      <point x="594" y="51"/>
      <point x="655" y="132" type="curve"/>
      <point x="719" y="90"/>
      <point x="759" y="37"/>
      <point x="793" y="-25" type="curve"/>
      <point x="900" y="-23"/>
      <point x="989" y="-3"/>
      <point x="1070" y="35" type="curve"/>
      <point x="1083" y="93" type="line"/>
      <point x="1004" y="113"/>
      <point x="947" y="145"/>
      <point x="910" y="198" type="curve"/>
      <point x="910" y="674" type="line" smooth="yes"/>
      <point x="910" y="846"/>
      <point x="833" y="975"/>
      <point x="611" y="975" type="curve" smooth="yes"/>
      <point x="541" y="975"/>
      <point x="356" y="957"/>
      <point x="225" y="906" type="curve" smooth="yes"/>
      <point x="173" y="886"/>
      <point x="91" y="845"/>
      <point x="91" y="808" type="curve" smooth="yes"/>
      <point x="91" y="743"/>
      <point x="216" y="640"/>
      <point x="264" y="640" type="curve" smooth="yes"/>
      <point x="287" y="640"/>
      <point x="333" y="666"/>
      <point x="363" y="696" type="curve"/>
      <point x="392" y="868" type="line"/>
      <point x="407" y="872"/>
      <point x="426" y="875"/>
      <point x="445" y="875" type="curve" smooth="yes"/>
      <point x="484" y="875"/>
      <point x="526" y="867"/>
      <point x="550" y="851" type="curve" smooth="yes"/>
      <point x="620" y="804"/>
      <point x="628" y="669"/>
      <point x="628" y="581" type="curve" smooth="yes"/>
      <point x="628" y="527" type="line"/>
      <point x="579" y="535"/>
      <point x="516" y="538"/>
      <point x="466" y="538" type="curve" smooth="yes"/>
      <point x="381" y="538"/>
      <point x="281" y="528"/>
      <point x="209" y="496" type="curve" smooth="yes"/>
      <point x="102" y="449"/>
      <point x="57" y="367"/>
      <point x="57" y="241" type="curve" smooth="yes"/>
    </contour>
    <contour>
      <point x="366" y="165"/>
      <point x="336" y="247"/>
      <point x="336" y="307" type="curve" smooth="yes"/>
      <point x="336" y="328"/>
      <point x="338" y="355"/>
      <point x="350" y="371" type="curve" smooth="yes"/>
      <point x="365" y="391"/>
      <point x="455" y="436"/>
      <point x="628" y="461" type="curve"/>
      <point x="628" y="165" type="line"/>
      <point x="580" y="146"/>
      <point x="485" y="124"/>
      <point x="430" y="124" type="curve" smooth="yes"/>
      <point x="418" y="124"/>
      <point x="407" y="128"/>
      <point x="400" y="136" type="curve"/>
    </contour>
  </outline>
</glyph>
<glyph name="ae" format="1">
  <advance width="1480"/>
  <unicode hex="00E6"/>
  <outline>
    <contour>
      <point x="57" y="125"/>
      <point x="131" y="-25"/>
      <point x="323" y="-25" type="curve" smooth="yes"/>
      <point x="484" y="-25"/>
      <point x="602" y="45"/>
      <point x="681" y="142" type="curve"/>
      <point x="766" y="30"/>
      <point x="905" y="-25"/>
      <point x="1048" y="-25" type="curve" smooth="yes"/>
      <point x="1186" y="-25"/>
      <point x="1320" y="50"/>
      <point x="1388" y="154" type="curve"/>
      <point x="1368" y="188" type="line"/>
      <point x="1334" y="174"/>
      <point x="1206" y="133"/>
      <point x="1124" y="133" type="curve" smooth="yes"/>
      <point x="985" y="133"/>
      <point x="862" y="313"/>
      <point x="854" y="489" type="curve"/>
      <point x="1324" y="489" type="line" smooth="yes"/>
      <point x="1363" y="489"/>
      <point x="1379" y="502"/>
      <point x="1390" y="524" type="curve" smooth="yes"/>
      <point x="1413" y="569"/>
      <point x="1425" y="614"/>
      <point x="1425" y="657" type="curve" smooth="yes"/>
      <point x="1425" y="826"/>
      <point x="1308" y="975"/>
      <point x="1093" y="975" type="curve" smooth="yes"/>
      <point x="984" y="975"/>
      <point x="893" y="945"/>
      <point x="818" y="894" type="curve"/>
      <point x="771" y="944"/>
      <point x="700" y="975"/>
      <point x="595" y="975" type="curve" smooth="yes"/>
      <point x="526" y="975"/>
      <point x="346" y="957"/>
      <point x="215" y="906" type="curve" smooth="yes"/>
      <point x="164" y="886"/>
      <point x="81" y="845"/>
      <point x="81" y="808" type="curve" smooth="yes"/>
      <point x="81" y="743"/>
      <point x="206" y="640"/>
      <point x="254" y="640" type="curve" smooth="yes"/>
      <point x="278" y="640"/>
      <point x="324" y="666"/>
      <point x="353" y="696" type="curve"/>
      <point x="383" y="868" type="line"/>
      <point x="398" y="872"/>
      <point x="416" y="875"/>
      <point x="436" y="875" type="curve" smooth="yes"/>
      <point x="474" y="875"/>
      <point x="510" y="867"/>
      <point x="534" y="851" type="curve" smooth="yes"/>
      <point x="606" y="802"/>
      <point x="616" y="665"/>
      <point x="616" y="575" type="curve" smooth="yes"/>
      <point x="616" y="527" type="line"/>
      <point x="569" y="531"/>
      <point x="521" y="534"/>
      <point x="475" y="534" type="curve" smooth="yes"/>
      <point x="388" y="534"/>
      <point x="285" y="519"/>
      <point x="214" y="491" type="curve" smooth="yes"/>
      <point x="103" y="446"/>
      <point x="57" y="378"/>
      <point x="57" y="241" type="curve" smooth="yes"/>
    </contour>
    <contour>
      <point x="854" y="564" type="line"/>
      <point x="860" y="704"/>
      <point x="889" y="801"/>
      <point x="912" y="835" type="curve" smooth="yes"/>
      <point x="928" y="857"/>
      <point x="960" y="859"/>
      <point x="981" y="859" type="curve" smooth="yes"/>
      <point x="1083" y="859"/>
      <point x="1165" y="770"/>
      <point x="1165" y="607" type="curve"/>
    </contour>
    <contour>
      <point x="366" y="165"/>
      <point x="336" y="239"/>
      <point x="336" y="297" type="curve" smooth="yes"/>
      <point x="336" y="321"/>
      <point x="337" y="345"/>
      <point x="350" y="365" type="curve"/>
      <point x="365" y="384"/>
      <point x="448" y="431"/>
      <point x="616" y="458" type="curve"/>
      <point x="616" y="176" type="line"/>
      <point x="572" y="144"/>
      <point x="487" y="124"/>
      <point x="430" y="124" type="curve" smooth="yes"/>
      <point x="418" y="124"/>
      <point x="407" y="128"/>
      <point x="400" y="136" type="curve"/>
    </contour>
  </outline>
</glyph>
<glyph name="ccedilla" format="1">
  <advance width="930"/>
  <unicode hex="00E7"/>
  <outline>
    <contour>
      <point x="879" y="182" type="line"/>
      <point x="851" y="173"/>
      <point x="697" y="139"/>
      <point x="615" y="139" type="curve" smooth="yes"/>
      <point x="530" y="139"/>
      <point x="466" y="184"/>
      <point x="415" y="257" type="curve" smooth="yes"/>
      <point x="360" y="336"/>
      <point x="338" y="423"/>
      <point x="338" y="530" type="curve" smooth="yes"/>
      <point x="338" y="612"/>
      <point x="358" y="716"/>
      <point x="416" y="794" type="curve" smooth="yes"/>
      <point x="460" y="850"/>
      <point x="516" y="880"/>
      <point x="579" y="890" type="curve"/>
      <point x="615" y="719" type="line"/>
      <point x="639" y="691"/>
      <point x="686" y="662"/>
      <point x="716" y="662" type="curve" smooth="yes"/>
      <point x="764" y="662"/>
      <point x="887" y="772"/>
      <point x="887" y="836" type="curve" smooth="yes"/>
      <point x="887" y="868"/>
      <point x="838" y="911"/>
      <point x="787" y="935" type="curve" smooth="yes"/>
      <point x="725" y="963"/>
      <point x="661" y="973"/>
      <point x="585" y="973" type="curve" smooth="yes"/>
      <point x="302" y="973"/>
      <point x="60" y="784"/>
      <point x="60" y="462" type="curve" smooth="yes"/>
      <point x="60" y="192"/>
      <point x="205" y="8"/>
      <point x="460" y="-21" type="curve"/>
      <point x="423" y="-66"/>
      <point x="378" y="-139"/>
      <point x="375" y="-178" type="curve"/>
      <point x="486" y="-198"/>
      <point x="564" y="-224"/>
      <point x="564" y="-270" type="curve" smooth="yes"/>
      <point x="564" y="-297"/>
      <point x="545" y="-344"/>
      <point x="342" y="-416" type="curve"/>
      <point x="367" y="-489" type="line"/>
      <point x="504" y="-489"/>
      <point x="748" y="-428"/>
      <point x="748" y="-262" type="curve" smooth="yes"/>
      <point x="748" y="-161"/>
      <point x="684" y="-108"/>
      <point x="555" y="-84" type="curve"/>
      <point x="580" y="-23" type="line"/>
      <point x="729" y="-7"/>
      <point x="845" y="79"/>
      <point x="898" y="150" type="curve"/>
    </contour>
  </outline>
</glyph>
